<svg id="draw.id" overflow="visible" v:layers="{&quot;default&quot;:{&quot;name&quot;:&quot;Default&quot;,&quot;print&quot;:0,&quot;display&quot;:1,&quot;publish&quot;:0},&quot;jx575u50pt&quot;:{&quot;name&quot;:&quot;Untitled layer&quot;,&quot;print&quot;:1,&quot;display&quot;:1,&quot;publish&quot;:1}}" v:ver="2" x="500.5" xmlns="http://www.w3.org/2000/svg" xmlns:v="http://vecta.io" xmlns:xlink="http://www.w3.org/1999/xlink" y="500.5" v:stencils="{&quot;0&quot;:{&quot;id&quot;:&quot;stencil_65&quot;,&quot;expand&quot;:0,&quot;show_name&quot;:1}}"><style xmlns="http://www.w3.org/1999/xhtml"><![CDATA[#draw\.id{stroke:#000;stroke-linecap:round;stroke-linejoin:round;fill:#fff;fill-rule:evenodd;font-family:Roboto;font-size:14px;text-anchor:middle}#draw\.id text{paint-order:stroke;white-space:pre}#draw\.id .Text\.cls{stroke:none}]]></style><defs><linearGradient id="L00100100000aaff10000387f.grad" x1="0%" y1="0%" x2="100%" y2="100%"><stop offset="0%" stop-color="#00aaff" stop-opacity="1"/><stop offset="100%" stop-color="#00387f" stop-opacity="1"/></linearGradient><linearGradient id="L001001000808080100000000.grad" x1="0%" y1="0%" x2="100%" y2="100%"><stop offset="0%" stop-color="#808080" stop-opacity="1"/><stop offset="100%" stop-color="#000000" stop-opacity="1"/></linearGradient><linearGradient id="L001001000808080100100000000100.grad" x1="0%" y1="0%" x2="100%" y2="100%"><stop offset="0%" stop-color="#808080" stop-opacity="1"/><stop offset="100%" stop-color="#000000" stop-opacity="1"/></linearGradient><linearGradient id="L001001000f1a9eb100672965.grad" x1="0%" y1="0%" x2="100%" y2="100%"><stop offset="0%" stop-color="#f1a9eb" stop-opacity="1"/><stop offset="100%" stop-color="#672965" stop-opacity="1"/></linearGradient><linearGradient id="L001001000ffd194100d1913c.grad" x1="0%" y1="0%" x2="100%" y2="100%"><stop offset="0%" stop-color="#ffd194"/><stop offset="100%" stop-color="#d1913c"/></linearGradient><linearGradient id="L06710033090a4ae100ECEFF1.grad" x1="0%" y1="67%" x2="100%" y2="33%"><stop offset="0%" stop-color="#90a4ae"/><stop offset="100%" stop-color="#ECEFF1"/></linearGradient><linearGradient id="L0941006090a4ae100B0BEC5.grad" x1="0%" y1="94%" x2="100%" y2="6%"><stop offset="0%" stop-color="#90a4ae"/><stop offset="100%" stop-color="#B0BEC5"/></linearGradient><linearGradient id="L100100000578fff1008ab1ff.grad" x1="100%" y1="100%" x2="0%" y2="0%"><stop offset="0%" stop-color="#578fff"/><stop offset="100%" stop-color="#8ab1ff"/></linearGradient><linearGradient id="L10010000057c7ff1008ad8ff.grad" x1="100%" y1="100%" x2="0%" y2="0%"><stop offset="0%" stop-color="#57c7ff"/><stop offset="100%" stop-color="#8ad8ff"/></linearGradient><linearGradient id="L10010000057ffff1008affff.grad" x1="100%" y1="100%" x2="0%" y2="0%"><stop offset="0%" stop-color="#57ffff"/><stop offset="100%" stop-color="#8affff"/></linearGradient><linearGradient id="L1001000008fff57100b1ff8a.grad" x1="100%" y1="100%" x2="0%" y2="0%"><stop offset="0%" stop-color="#8fff57"/><stop offset="100%" stop-color="#b1ff8a"/></linearGradient><linearGradient id="L100100000c757ff100d88aff.grad" x1="100%" y1="100%" x2="0%" y2="0%"><stop offset="0%" stop-color="#c757ff"/><stop offset="100%" stop-color="#d88aff"/></linearGradient><linearGradient id="L100100000c7ff57100d8ff8a.grad" x1="100%" y1="100%" x2="0%" y2="0%"><stop offset="0%" stop-color="#c7ff57"/><stop offset="100%" stop-color="#d8ff8a"/></linearGradient><linearGradient id="L100100000ff578f100ff8ab1.grad" x1="100%" y1="100%" x2="0%" y2="0%"><stop offset="0%" stop-color="#ff578f"/><stop offset="100%" stop-color="#ff8ab1"/></linearGradient><linearGradient id="L100100000ff57e3100ff8aeb.grad" x1="100%" y1="100%" x2="0%" y2="0%"><stop offset="0%" stop-color="#ff57e3"/><stop offset="100%" stop-color="#ff8aeb"/></linearGradient><linearGradient id="L100100000ff7357100ff9d8a.grad" x1="100%" y1="100%" x2="0%" y2="0%"><stop offset="0%" stop-color="#ff7357"/><stop offset="100%" stop-color="#ff9d8a"/></linearGradient><linearGradient id="L100100000ffab57100ffc48a.grad" x1="100%" y1="100%" x2="0%" y2="0%"><stop offset="0%" stop-color="#ffab57"/><stop offset="100%" stop-color="#ffc48a"/></linearGradient><linearGradient id="L100100000ffe357100ffeb8a.grad" x1="100%" y1="100%" x2="0%" y2="0%"><stop offset="0%" stop-color="#ffe357"/><stop offset="100%" stop-color="#ffeb8a"/></linearGradient><linearGradient id="L100100000ffff57100ffff8a.grad" x1="100%" y1="100%" x2="0%" y2="0%"><stop offset="0%" stop-color="#ffff57"/><stop offset="100%" stop-color="#ffff8a"/></linearGradient><linearGradient id="L170831000E0E0E0100757575.grad" x1="17%" y1="0%" x2="83%" y2="100%"><stop offset="0%" stop-color="#E0E0E0"/><stop offset="100%" stop-color="#757575"/></linearGradient><linearGradient id="L5005010004387FD1004683EA.grad" x1="50%" y1="0%" x2="50%" y2="100%"><stop offset="0%" stop-color="#4387FD"/><stop offset="100%" stop-color="#4683EA"/></linearGradient><linearGradient id="L611003900000000100100808080100.grad" x1="61%" y1="100%" x2="39%" y2="0%"><stop offset="0%" stop-color="#000000" stop-opacity="1"/><stop offset="100%" stop-color="#808080" stop-opacity="1"/></linearGradient><clipPath id="jw8nw00y2b8.clip"><path d="M 0 15 C 0 6.69 6.69 0 15 0 L 399 0 C 407.31 0 414 6.69 414 15 L 414 813 C 414 821.31 407.31 828 399 828 L 15 828 C 6.69 828 0 821.31 0 813 Z" stroke="hsla(0,0%,100%,1)" stroke-width="1" transform="translate(0 0)"/></clipPath><clipPath id="jw8nwu5f2en.clip"><path d="M 480 947.0445 C 480 966 463.5 986 440.1188 986 L 40.1346 986 C 10 986 0 960 0 949.9712 L 0 39.7345 C 0 16 20 0 39.7865 0 L 130.3007 0 C 139.25 0 145 7.75 145 14.1357 L 145 14 C 145 30.62 158.38 44 175 44 L 305 44 C 321.62 44 335 30.62 335 14 L 335 13.8857 C 335 8.75 340 0 349.9493 0 L 439.7751 0 C 464.5 0 480 20.5 480 39.9367 Z" stroke="hsla(0,0%,100%,1)" stroke-width="1" transform="translate(0 0)"/></clipPath><clipPath id="jw8nxjem3h1.clip"><path d="M 0 40 C 0 17.84 17.84 0 40 0 L 374 0 C 396.16 0 414 17.84 414 40 L 414 834 C 414 856.16 396.16 874 374 874 L 40 874 C 17.84 874 0 856.16 0 834 Z" stroke="hsla(0,0%,100%,1)" transform="translate(1.1517835812563817 3)"/></clipPath><clipPath id="jw8ny4f43i0.clip"><path d="M 0 40 C 0 17.84 17.84 0 40 0 L 440 0 C 462.16 0 480 17.84 480 40 L 480 973 C 480 995.16 462.16 1013 440 1013 L 40 1013 C 17.84 1013 0 995.16 0 973 Z" stroke="hsla(0,0%,100%,1)" stroke-width="1" transform="translate(6 8.642899999999997)"/></clipPath><clipPath id="jw8o1udg4wt.clip"><path d="M 43.54657451923149 0 L 149.36523437499966 0 C 180.34197716346247 0 180.34197716346247 30.062344341105906 206.68347355769168 30.062344341105906 C 233.02496995192348 30.062344341105906 233.02496995192348 0 264.0775615985576 0 L 375.48191105769286 0 C 390.62403846153893 0 396.11487379807704 1.5754000230444005 401.65063100961584 4.533742296454201 C 407.18638822115395 7.4920414082198015 411.530851862981 11.833239608706302 414.4913762019235 17.364835963593304 C 417.45190054086584 22.896389156836005 419.02848557692346 28.383140563119007 419.02848557692346 43.51388664745901 L 419.02848557692346 839.0223144317017 C 419.02848557692346 854.1529741927511 417.45190054086584 859.6397687606808 414.4913762019235 865.171365115567 C 411.530851862981 870.7028751471631 407.18638822115395 875.0440733476512 401.65063100961584 878.0024587827053 C 396.11487379807704 880.9607578944717 390.62403846153893 882.5361579175152 375.48191105769286 882.5361579175152 L 43.54657451923149 882.5361579175152 C 28.404447115384198 882.5361579175152 22.913611778847397 880.9607578944717 17.377854567307896 878.0024587827053 C 11.842097355768498 875.0440733476512 7.497633713942099 870.7028751471631 4.537109374999999 865.171365115567 C 1.5765850360578997 859.6397687606808 0 854.1529741927511 0 839.0223144317017 L 0 43.51388664745901 C 0 28.383140563119007 1.5765850360578997 22.896389156836005 4.537109374999999 17.364835963593304 C 7.497633713942099 11.833239608706302 11.842097355768498 7.4920414082198015 17.377854567307896 4.533742296454201 C 22.913611778847397 1.5754000230444005 28.404447115384198 0 43.54657451923149 0 Z" fill="hsla(0,0%,20%,1)" stroke="none" transform="translate(0 0)"/></clipPath><clipPath id="jw8pi2jcloi.clip"><path d="M 335.8927317333333 814.0000000000001 C 362.464 814.0000000000001 376 790.972109720438 376 774.0900697557959 L 376 39.9095124786729 C 376 15.5326649749132 354.944 0.0138998239484 336.1203370666667 0.0138998239484 L 298.2586410666667 0.0138998239484 C 296.288 0.0138998239484 292.7786666666667 2.3917210306186 292.7943082666667 5.7074945327155 C 292.7786666666667 7.1475636899658 292.7786666666667 8.3184020911954 292.7786666666667 10.0259999134094 C 292.7786666666667 21.1194284391008 283.83488 30.0503002153345 272.7253333333333 30.0503002153345 L 103.2746666666667 30.0503002153345 C 92.16512 30.0503002153345 83.2213333333333 21.1194284391008 83.2213333333333 10.0259999134094 C 83.2213333333333 7.9584598941353 83.2213333333333 8.5241548630892 83.2320618666667 6.3454783100915 C 83.2213333333333 2.0162597680386 79.8373333333333 0.0138998239484 77.4965077333333 0.0138998239484 L 39.9373162666667 0.0138998239484 C 23.0613333333333 -0.4867151928249 0 12.5290749972763 0 40.0629009198122 L 0 774.0901698787992 C 0 797.9806198322619 19.552 814.0000000000001 40.107168 814.0000000000001 Z" stroke="hsla(0,0%,100%,1)" stroke-width="1" transform="translate(1.6289867642501576 1)"/></clipPath><clipPath id="jw8pmnlrt78.clip"><path d="M 369.8393 895.9999976352831 C 399.096 895.9999976352831 414 870.652297635283 414 852.0696976352831 L 414 43.9298976352831 C 414 17.097397635283 390.816 0.015297635283 370.0899 0.015297635283 L 328.4018 0.015297635283 C 326.232 0.015297635283 322.368 2.632697635283 322.3852 6.282497635283 C 322.368 7.867597635283 322.368 9.156397635283 322.368 11.035997635283 C 322.368 23.246897635283 312.5203 33.0774976352831 300.288 33.0774976352831 L 113.712 33.0774976352831 C 101.4797 33.0774976352831 91.632 23.246897635283 91.632 11.035997635283 C 91.632 8.760197635283 91.632 9.382897635283 91.6438 6.984697635283 C 91.632 2.219397635283 87.906 0.015297635283 85.3286 0.015297635283 L 43.9735 0.015297635283 C 25.392 -0.535702364717 0 13.791197635283 0 44.0986976352831 L 0 852.0697976352831 C 0 878.3668976352831 21.528 895.9999976352831 44.1606 895.9999976352831 Z" stroke="hsla(0,0%,100%,1)" stroke-width="1" transform="translate(0.9199223449481906 1.0000011823585737)"/></clipPath><clipPath id="jw8uzo6nb9b.clip"><rect x="0" y="0" width="480" height="1040" stroke-width="0.2" stroke="none" rx="40" class="" transform="translate(0.999964282226756 1.16666664971126)"/></clipPath><clipPath id="jwpugewnio.clip"><path d="M 0 0 L 375 0 L 375 667 L 0 667 Z" fill="hsla(240,8%,12%,1)" fill-opacity="1" stroke="hsla(0,0%,75%,1)" stroke-linejoin="miter" stroke-width="1" transform="translate(146.49997790527343 1)"/></clipPath><clipPath id="jwpuhbtxk8.clip"><path d="M 0 0 L 414 0 L 414 736 L 0 736 Z" stroke="hsla(0,0%,75%,1)" stroke-linejoin="miter" stroke-width="1" transform="translate(161.99995786132808 1)"/></clipPath><link rel="stylesheet" data-is-imported="true" media="" href="data:text/css,%2F*%20cyrillic-ext%20*%2F%0A%40font-face%20%7B%0A%20%20font-family%3A%20'Roboto%20Condensed'%3B%0A%20%20font-style%3A%20italic%3B%0A%20%20font-weight%3A%20400%3B%0A%20%20src%3A%20local('Roboto%20Condensed%20Italic')%2C%20local('RobotoCondensed-Italic')%2C%20url(https%3A%2F%2Ffonts.gstatic.com%2Fs%2Frobotocondensed%2Fv17%2FieVj2ZhZI2eCN5jzbjEETS9weq8-19eLAgM9UvI.woff2)%20format('woff2')%3B%0A%20%20unicode-range%3A%20U%2B0460-052F%2C%20U%2B1C80-1C88%2C%20U%2B20B4%2C%20U%2B2DE0-2DFF%2C%20U%2BA640-A69F%2C%20U%2BFE2E-FE2F%3B%0A%7D%0A%2F*%20cyrillic%20*%2F%0A%40font-face%20%7B%0A%20%20font-family%3A%20'Roboto%20Condensed'%3B%0A%20%20font-style%3A%20italic%3B%0A%20%20font-weight%3A%20400%3B%0A%20%20src%3A%20local('Roboto%20Condensed%20Italic')%2C%20local('RobotoCondensed-Italic')%2C%20url(https%3A%2F%2Ffonts.gstatic.com%2Fs%2Frobotocondensed%2Fv17%2FieVj2ZhZI2eCN5jzbjEETS9weq8-19eLCwM9UvI.woff2)%20format('woff2')%3B%0A%20%20unicode-range%3A%20U%2B0400-045F%2C%20U%2B0490-0491%2C%20U%2B04B0-04B1%2C%20U%2B2116%3B%0A%7D%0A%2F*%20greek-ext%20*%2F%0A%40font-face%20%7B%0A%20%20font-family%3A%20'Roboto%20Condensed'%3B%0A%20%20font-style%3A%20italic%3B%0A%20%20font-weight%3A%20400%3B%0A%20%20src%3A%20local('Roboto%20Condensed%20Italic')%2C%20local('RobotoCondensed-Italic')%2C%20url(https%3A%2F%2Ffonts.gstatic.com%2Fs%2Frobotocondensed%2Fv17%2FieVj2ZhZI2eCN5jzbjEETS9weq8-19eLAwM9UvI.woff2)%20format('woff2')%3B%0A%20%20unicode-range%3A%20U%2B1F00-1FFF%3B%0A%7D%0A%2F*%20greek%20*%2F%0A%40font-face%20%7B%0A%20%20font-family%3A%20'Roboto%20Condensed'%3B%0A%20%20font-style%3A%20italic%3B%0A%20%20font-weight%3A%20400%3B%0A%20%20src%3A%20local('Roboto%20Condensed%20Italic')%2C%20local('RobotoCondensed-Italic')%2C%20url(https%3A%2F%2Ffonts.gstatic.com%2Fs%2Frobotocondensed%2Fv17%2FieVj2ZhZI2eCN5jzbjEETS9weq8-19eLDAM9UvI.woff2)%20format('woff2')%3B%0A%20%20unicode-range%3A%20U%2B0370-03FF%3B%0A%7D%0A%2F*%20vietnamese%20*%2F%0A%40font-face%20%7B%0A%20%20font-family%3A%20'Roboto%20Condensed'%3B%0A%20%20font-style%3A%20italic%3B%0A%20%20font-weight%3A%20400%3B%0A%20%20src%3A%20local('Roboto%20Condensed%20Italic')%2C%20local('RobotoCondensed-Italic')%2C%20url(https%3A%2F%2Ffonts.gstatic.com%2Fs%2Frobotocondensed%2Fv17%2FieVj2ZhZI2eCN5jzbjEETS9weq8-19eLAAM9UvI.woff2)%20format('woff2')%3B%0A%20%20unicode-range%3A%20U%2B0102-0103%2C%20U%2B0110-0111%2C%20U%2B1EA0-1EF9%2C%20U%2B20AB%3B%0A%7D%0A%2F*%20latin-ext%20*%2F%0A%40font-face%20%7B%0A%20%20font-family%3A%20'Roboto%20Condensed'%3B%0A%20%20font-style%3A%20italic%3B%0A%20%20font-weight%3A%20400%3B%0A%20%20src%3A%20local('Roboto%20Condensed%20Italic')%2C%20local('RobotoCondensed-Italic')%2C%20url(https%3A%2F%2Ffonts.gstatic.com%2Fs%2Frobotocondensed%2Fv17%2FieVj2ZhZI2eCN5jzbjEETS9weq8-19eLAQM9UvI.woff2)%20format('woff2')%3B%0A%20%20unicode-range%3A%20U%2B0100-024F%2C%20U%2B0259%2C%20U%2B1E00-1EFF%2C%20U%2B2020%2C%20U%2B20A0-20AB%2C%20U%2B20AD-20CF%2C%20U%2B2113%2C%20U%2B2C60-2C7F%2C%20U%2BA720-A7FF%3B%0A%7D%0A%2F*%20latin%20*%2F%0A%40font-face%20%7B%0A%20%20font-family%3A%20'Roboto%20Condensed'%3B%0A%20%20font-style%3A%20italic%3B%0A%20%20font-weight%3A%20400%3B%0A%20%20src%3A%20local('Roboto%20Condensed%20Italic')%2C%20local('RobotoCondensed-Italic')%2C%20url(https%3A%2F%2Ffonts.gstatic.com%2Fs%2Frobotocondensed%2Fv17%2FieVj2ZhZI2eCN5jzbjEETS9weq8-19eLDwM9.woff2)%20format('woff2')%3B%0A%20%20unicode-range%3A%20U%2B0000-00FF%2C%20U%2B0131%2C%20U%2B0152-0153%2C%20U%2B02BB-02BC%2C%20U%2B02C6%2C%20U%2B02DA%2C%20U%2B02DC%2C%20U%2B2000-206F%2C%20U%2B2074%2C%20U%2B20AC%2C%20U%2B2122%2C%20U%2B2191%2C%20U%2B2193%2C%20U%2B2212%2C%20U%2B2215%2C%20U%2BFEFF%2C%20U%2BFFFD%3B%0A%7D%0A%2F*%20cyrillic-ext%20*%2F%0A%40font-face%20%7B%0A%20%20font-family%3A%20'Roboto%20Condensed'%3B%0A%20%20font-style%3A%20italic%3B%0A%20%20font-weight%3A%20700%3B%0A%20%20src%3A%20local('Roboto%20Condensed%20Bold%20Italic')%2C%20local('RobotoCondensed-BoldItalic')%2C%20url(https%3A%2F%2Ffonts.gstatic.com%2Fs%2Frobotocondensed%2Fv17%2FieVg2ZhZI2eCN5jzbjEETS9weq8-19eDtCYoYNNZQyQ.woff2)%20format('woff2')%3B%0A%20%20unicode-range%3A%20U%2B0460-052F%2C%20U%2B1C80-1C88%2C%20U%2B20B4%2C%20U%2B2DE0-2DFF%2C%20U%2BA640-A69F%2C%20U%2BFE2E-FE2F%3B%0A%7D%0A%2F*%20cyrillic%20*%2F%0A%40font-face%20%7B%0A%20%20font-family%3A%20'Roboto%20Condensed'%3B%0A%20%20font-style%3A%20italic%3B%0A%20%20font-weight%3A%20700%3B%0A%20%20src%3A%20local('Roboto%20Condensed%20Bold%20Italic')%2C%20local('RobotoCondensed-BoldItalic')%2C%20url(https%3A%2F%2Ffonts.gstatic.com%2Fs%2Frobotocondensed%2Fv17%2FieVg2ZhZI2eCN5jzbjEETS9weq8-19eDtCYoadNZQyQ.woff2)%20format('woff2')%3B%0A%20%20unicode-range%3A%20U%2B0400-045F%2C%20U%2B0490-0491%2C%20U%2B04B0-04B1%2C%20U%2B2116%3B%0A%7D%0A%2F*%20greek-ext%20*%2F%0A%40font-face%20%7B%0A%20%20font-family%3A%20'Roboto%20Condensed'%3B%0A%20%20font-style%3A%20italic%3B%0A%20%20font-weight%3A%20700%3B%0A%20%20src%3A%20local('Roboto%20Condensed%20Bold%20Italic')%2C%20local('RobotoCondensed-BoldItalic')%2C%20url(https%3A%2F%2Ffonts.gstatic.com%2Fs%2Frobotocondensed%2Fv17%2FieVg2ZhZI2eCN5jzbjEETS9weq8-19eDtCYoYdNZQyQ.woff2)%20format('woff2')%3B%0A%20%20unicode-range%3A%20U%2B1F00-1FFF%3B%0A%7D%0A%2F*%20greek%20*%2F%0A%40font-face%20%7B%0A%20%20font-family%3A%20'Roboto%20Condensed'%3B%0A%20%20font-style%3A%20italic%3B%0A%20%20font-weight%3A%20700%3B%0A%20%20src%3A%20local('Roboto%20Condensed%20Bold%20Italic')%2C%20local('RobotoCondensed-BoldItalic')%2C%20url(https%3A%2F%2Ffonts.gstatic.com%2Fs%2Frobotocondensed%2Fv17%2FieVg2ZhZI2eCN5jzbjEETS9weq8-19eDtCYobtNZQyQ.woff2)%20format('woff2')%3B%0A%20%20unicode-range%3A%20U%2B0370-03FF%3B%0A%7D%0A%2F*%20vietnamese%20*%2F%0A%40font-face%20%7B%0A%20%20font-family%3A%20'Roboto%20Condensed'%3B%0A%20%20font-style%3A%20italic%3B%0A%20%20font-weight%3A%20700%3B%0A%20%20src%3A%20local('Roboto%20Condensed%20Bold%20Italic')%2C%20local('RobotoCondensed-BoldItalic')%2C%20url(https%3A%2F%2Ffonts.gstatic.com%2Fs%2Frobotocondensed%2Fv17%2FieVg2ZhZI2eCN5jzbjEETS9weq8-19eDtCYoYtNZQyQ.woff2)%20format('woff2')%3B%0A%20%20unicode-range%3A%20U%2B0102-0103%2C%20U%2B0110-0111%2C%20U%2B1EA0-1EF9%2C%20U%2B20AB%3B%0A%7D%0A%2F*%20latin-ext%20*%2F%0A%40font-face%20%7B%0A%20%20font-family%3A%20'Roboto%20Condensed'%3B%0A%20%20font-style%3A%20italic%3B%0A%20%20font-weight%3A%20700%3B%0A%20%20src%3A%20local('Roboto%20Condensed%20Bold%20Italic')%2C%20local('RobotoCondensed-BoldItalic')%2C%20url(https%3A%2F%2Ffonts.gstatic.com%2Fs%2Frobotocondensed%2Fv17%2FieVg2ZhZI2eCN5jzbjEETS9weq8-19eDtCYoY9NZQyQ.woff2)%20format('woff2')%3B%0A%20%20unicode-range%3A%20U%2B0100-024F%2C%20U%2B0259%2C%20U%2B1E00-1EFF%2C%20U%2B2020%2C%20U%2B20A0-20AB%2C%20U%2B20AD-20CF%2C%20U%2B2113%2C%20U%2B2C60-2C7F%2C%20U%2BA720-A7FF%3B%0A%7D%0A%2F*%20latin%20*%2F%0A%40font-face%20%7B%0A%20%20font-family%3A%20'Roboto%20Condensed'%3B%0A%20%20font-style%3A%20italic%3B%0A%20%20font-weight%3A%20700%3B%0A%20%20src%3A%20local('Roboto%20Condensed%20Bold%20Italic')%2C%20local('RobotoCondensed-BoldItalic')%2C%20url(https%3A%2F%2Ffonts.gstatic.com%2Fs%2Frobotocondensed%2Fv17%2FieVg2ZhZI2eCN5jzbjEETS9weq8-19eDtCYobdNZ.woff2)%20format('woff2')%3B%0A%20%20unicode-range%3A%20U%2B0000-00FF%2C%20U%2B0131%2C%20U%2B0152-0153%2C%20U%2B02BB-02BC%2C%20U%2B02C6%2C%20U%2B02DA%2C%20U%2B02DC%2C%20U%2B2000-206F%2C%20U%2B2074%2C%20U%2B20AC%2C%20U%2B2122%2C%20U%2B2191%2C%20U%2B2193%2C%20U%2B2212%2C%20U%2B2215%2C%20U%2BFEFF%2C%20U%2BFFFD%3B%0A%7D%0A%2F*%20cyrillic-ext%20*%2F%0A%40font-face%20%7B%0A%20%20font-family%3A%20'Roboto%20Condensed'%3B%0A%20%20font-style%3A%20normal%3B%0A%20%20font-weight%3A%20400%3B%0A%20%20src%3A%20local('Roboto%20Condensed')%2C%20local('RobotoCondensed-Regular')%2C%20url(https%3A%2F%2Ffonts.gstatic.com%2Fs%2Frobotocondensed%2Fv17%2FieVl2ZhZI2eCN5jzbjEETS9weq8-19-7DRs5.woff2)%20format('woff2')%3B%0A%20%20unicode-range%3A%20U%2B0460-052F%2C%20U%2B1C80-1C88%2C%20U%2B20B4%2C%20U%2B2DE0-2DFF%2C%20U%2BA640-A69F%2C%20U%2BFE2E-FE2F%3B%0A%7D%0A%2F*%20cyrillic%20*%2F%0A%40font-face%20%7B%0A%20%20font-family%3A%20'Roboto%20Condensed'%3B%0A%20%20font-style%3A%20normal%3B%0A%20%20font-weight%3A%20400%3B%0A%20%20src%3A%20local('Roboto%20Condensed')%2C%20local('RobotoCondensed-Regular')%2C%20url(https%3A%2F%2Ffonts.gstatic.com%2Fs%2Frobotocondensed%2Fv17%2FieVl2ZhZI2eCN5jzbjEETS9weq8-19a7DRs5.woff2)%20format('woff2')%3B%0A%20%20unicode-range%3A%20U%2B0400-045F%2C%20U%2B0490-0491%2C%20U%2B04B0-04B1%2C%20U%2B2116%3B%0A%7D%0A%2F*%20greek-ext%20*%2F%0A%40font-face%20%7B%0A%20%20font-family%3A%20'Roboto%20Condensed'%3B%0A%20%20font-style%3A%20normal%3B%0A%20%20font-weight%3A%20400%3B%0A%20%20src%3A%20local('Roboto%20Condensed')%2C%20local('RobotoCondensed-Regular')%2C%20url(https%3A%2F%2Ffonts.gstatic.com%2Fs%2Frobotocondensed%2Fv17%2FieVl2ZhZI2eCN5jzbjEETS9weq8-1967DRs5.woff2)%20format('woff2')%3B%0A%20%20unicode-range%3A%20U%2B1F00-1FFF%3B%0A%7D%0A%2F*%20greek%20*%2F%0A%40font-face%20%7B%0A%20%20font-family%3A%20'Roboto%20Condensed'%3B%0A%20%20font-style%3A%20normal%3B%0A%20%20font-weight%3A%20400%3B%0A%20%20src%3A%20local('Roboto%20Condensed')%2C%20local('RobotoCondensed-Regular')%2C%20url(https%3A%2F%2Ffonts.gstatic.com%2Fs%2Frobotocondensed%2Fv17%2FieVl2ZhZI2eCN5jzbjEETS9weq8-19G7DRs5.woff2)%20format('woff2')%3B%0A%20%20unicode-range%3A%20U%2B0370-03FF%3B%0A%7D%0A%2F*%20vietnamese%20*%2F%0A%40font-face%20%7B%0A%20%20font-family%3A%20'Roboto%20Condensed'%3B%0A%20%20font-style%3A%20normal%3B%0A%20%20font-weight%3A%20400%3B%0A%20%20src%3A%20local('Roboto%20Condensed')%2C%20local('RobotoCondensed-Regular')%2C%20url(https%3A%2F%2Ffonts.gstatic.com%2Fs%2Frobotocondensed%2Fv17%2FieVl2ZhZI2eCN5jzbjEETS9weq8-1927DRs5.woff2)%20format('woff2')%3B%0A%20%20unicode-range%3A%20U%2B0102-0103%2C%20U%2B0110-0111%2C%20U%2B1EA0-1EF9%2C%20U%2B20AB%3B%0A%7D%0A%2F*%20latin-ext%20*%2F%0A%40font-face%20%7B%0A%20%20font-family%3A%20'Roboto%20Condensed'%3B%0A%20%20font-style%3A%20normal%3B%0A%20%20font-weight%3A%20400%3B%0A%20%20src%3A%20local('Roboto%20Condensed')%2C%20local('RobotoCondensed-Regular')%2C%20url(https%3A%2F%2Ffonts.gstatic.com%2Fs%2Frobotocondensed%2Fv17%2FieVl2ZhZI2eCN5jzbjEETS9weq8-19y7DRs5.woff2)%20format('woff2')%3B%0A%20%20unicode-range%3A%20U%2B0100-024F%2C%20U%2B0259%2C%20U%2B1E00-1EFF%2C%20U%2B2020%2C%20U%2B20A0-20AB%2C%20U%2B20AD-20CF%2C%20U%2B2113%2C%20U%2B2C60-2C7F%2C%20U%2BA720-A7FF%3B%0A%7D%0A%2F*%20latin%20*%2F%0A%40font-face%20%7B%0A%20%20font-family%3A%20'Roboto%20Condensed'%3B%0A%20%20font-style%3A%20normal%3B%0A%20%20font-weight%3A%20400%3B%0A%20%20src%3A%20local('Roboto%20Condensed')%2C%20local('RobotoCondensed-Regular')%2C%20url(https%3A%2F%2Ffonts.gstatic.com%2Fs%2Frobotocondensed%2Fv17%2FieVl2ZhZI2eCN5jzbjEETS9weq8-19K7DQ.woff2)%20format('woff2')%3B%0A%20%20unicode-range%3A%20U%2B0000-00FF%2C%20U%2B0131%2C%20U%2B0152-0153%2C%20U%2B02BB-02BC%2C%20U%2B02C6%2C%20U%2B02DA%2C%20U%2B02DC%2C%20U%2B2000-206F%2C%20U%2B2074%2C%20U%2B20AC%2C%20U%2B2122%2C%20U%2B2191%2C%20U%2B2193%2C%20U%2B2212%2C%20U%2B2215%2C%20U%2BFEFF%2C%20U%2BFFFD%3B%0A%7D%0A%2F*%20cyrillic-ext%20*%2F%0A%40font-face%20%7B%0A%20%20font-family%3A%20'Roboto%20Condensed'%3B%0A%20%20font-style%3A%20normal%3B%0A%20%20font-weight%3A%20700%3B%0A%20%20src%3A%20local('Roboto%20Condensed%20Bold')%2C%20local('RobotoCondensed-Bold')%2C%20url(https%3A%2F%2Ffonts.gstatic.com%2Fs%2Frobotocondensed%2Fv17%2FieVi2ZhZI2eCN5jzbjEETS9weq8-32meGCkYb8td.woff2)%20format('woff2')%3B%0A%20%20unicode-range%3A%20U%2B0460-052F%2C%20U%2B1C80-1C88%2C%20U%2B20B4%2C%20U%2B2DE0-2DFF%2C%20U%2BA640-A69F%2C%20U%2BFE2E-FE2F%3B%0A%7D%0A%2F*%20cyrillic%20*%2F%0A%40font-face%20%7B%0A%20%20font-family%3A%20'Roboto%20Condensed'%3B%0A%20%20font-style%3A%20normal%3B%0A%20%20font-weight%3A%20700%3B%0A%20%20src%3A%20local('Roboto%20Condensed%20Bold')%2C%20local('RobotoCondensed-Bold')%2C%20url(https%3A%2F%2Ffonts.gstatic.com%2Fs%2Frobotocondensed%2Fv17%2FieVi2ZhZI2eCN5jzbjEETS9weq8-32meGCAYb8td.woff2)%20format('woff2')%3B%0A%20%20unicode-range%3A%20U%2B0400-045F%2C%20U%2B0490-0491%2C%20U%2B04B0-04B1%2C%20U%2B2116%3B%0A%7D%0A%2F*%20greek-ext%20*%2F%0A%40font-face%20%7B%0A%20%20font-family%3A%20'Roboto%20Condensed'%3B%0A%20%20font-style%3A%20normal%3B%0A%20%20font-weight%3A%20700%3B%0A%20%20src%3A%20local('Roboto%20Condensed%20Bold')%2C%20local('RobotoCondensed-Bold')%2C%20url(https%3A%2F%2Ffonts.gstatic.com%2Fs%2Frobotocondensed%2Fv17%2FieVi2ZhZI2eCN5jzbjEETS9weq8-32meGCgYb8td.woff2)%20format('woff2')%3B%0A%20%20unicode-range%3A%20U%2B1F00-1FFF%3B%0A%7D%0A%2F*%20greek%20*%2F%0A%40font-face%20%7B%0A%20%20font-family%3A%20'Roboto%20Condensed'%3B%0A%20%20font-style%3A%20normal%3B%0A%20%20font-weight%3A%20700%3B%0A%20%20src%3A%20local('Roboto%20Condensed%20Bold')%2C%20local('RobotoCondensed-Bold')%2C%20url(https%3A%2F%2Ffonts.gstatic.com%2Fs%2Frobotocondensed%2Fv17%2FieVi2ZhZI2eCN5jzbjEETS9weq8-32meGCcYb8td.woff2)%20format('woff2')%3B%0A%20%20unicode-range%3A%20U%2B0370-03FF%3B%0A%7D%0A%2F*%20vietnamese%20*%2F%0A%40font-face%20%7B%0A%20%20font-family%3A%20'Roboto%20Condensed'%3B%0A%20%20font-style%3A%20normal%3B%0A%20%20font-weight%3A%20700%3B%0A%20%20src%3A%20local('Roboto%20Condensed%20Bold')%2C%20local('RobotoCondensed-Bold')%2C%20url(https%3A%2F%2Ffonts.gstatic.com%2Fs%2Frobotocondensed%2Fv17%2FieVi2ZhZI2eCN5jzbjEETS9weq8-32meGCsYb8td.woff2)%20format('woff2')%3B%0A%20%20unicode-range%3A%20U%2B0102-0103%2C%20U%2B0110-0111%2C%20U%2B1EA0-1EF9%2C%20U%2B20AB%3B%0A%7D%0A%2F*%20latin-ext%20*%2F%0A%40font-face%20%7B%0A%20%20font-family%3A%20'Roboto%20Condensed'%3B%0A%20%20font-style%3A%20normal%3B%0A%20%20font-weight%3A%20700%3B%0A%20%20src%3A%20local('Roboto%20Condensed%20Bold')%2C%20local('RobotoCondensed-Bold')%2C%20url(https%3A%2F%2Ffonts.gstatic.com%2Fs%2Frobotocondensed%2Fv17%2FieVi2ZhZI2eCN5jzbjEETS9weq8-32meGCoYb8td.woff2)%20format('woff2')%3B%0A%20%20unicode-range%3A%20U%2B0100-024F%2C%20U%2B0259%2C%20U%2B1E00-1EFF%2C%20U%2B2020%2C%20U%2B20A0-20AB%2C%20U%2B20AD-20CF%2C%20U%2B2113%2C%20U%2B2C60-2C7F%2C%20U%2BA720-A7FF%3B%0A%7D%0A%2F*%20latin%20*%2F%0A%40font-face%20%7B%0A%20%20font-family%3A%20'Roboto%20Condensed'%3B%0A%20%20font-style%3A%20normal%3B%0A%20%20font-weight%3A%20700%3B%0A%20%20src%3A%20local('Roboto%20Condensed%20Bold')%2C%20local('RobotoCondensed-Bold')%2C%20url(https%3A%2F%2Ffonts.gstatic.com%2Fs%2Frobotocondensed%2Fv17%2FieVi2ZhZI2eCN5jzbjEETS9weq8-32meGCQYbw.woff2)%20format('woff2')%3B%0A%20%20unicode-range%3A%20U%2B0000-00FF%2C%20U%2B0131%2C%20U%2B0152-0153%2C%20U%2B02BB-02BC%2C%20U%2B02C6%2C%20U%2B02DA%2C%20U%2B02DC%2C%20U%2B2000-206F%2C%20U%2B2074%2C%20U%2B20AC%2C%20U%2B2122%2C%20U%2B2191%2C%20U%2B2193%2C%20U%2B2212%2C%20U%2B2215%2C%20U%2BFEFF%2C%20U%2BFFFD%3B%0A%7D%0A"/><g id="many.end"><path d="M -5 0 L 0 7.5 L 5 0" fill="none"/></g><link rel="stylesheet" data-is-imported="true" media="" href="data:text/css,%2F*%20cyrillic-ext%20*%2F%0A%40font-face%20%7B%0A%20%20font-family%3A%20'Roboto%20Condensed'%3B%0A%20%20font-style%3A%20italic%3B%0A%20%20font-weight%3A%20400%3B%0A%20%20src%3A%20local('Roboto%20Condensed%20Italic')%2C%20local('RobotoCondensed-Italic')%2C%20url(https%3A%2F%2Ffonts.gstatic.com%2Fs%2Frobotocondensed%2Fv17%2FieVj2ZhZI2eCN5jzbjEETS9weq8-19eLAgM9UvI.woff2)%20format('woff2')%3B%0A%20%20unicode-range%3A%20U%2B0460-052F%2C%20U%2B1C80-1C88%2C%20U%2B20B4%2C%20U%2B2DE0-2DFF%2C%20U%2BA640-A69F%2C%20U%2BFE2E-FE2F%3B%0A%7D%0A%2F*%20cyrillic%20*%2F%0A%40font-face%20%7B%0A%20%20font-family%3A%20'Roboto%20Condensed'%3B%0A%20%20font-style%3A%20italic%3B%0A%20%20font-weight%3A%20400%3B%0A%20%20src%3A%20local('Roboto%20Condensed%20Italic')%2C%20local('RobotoCondensed-Italic')%2C%20url(https%3A%2F%2Ffonts.gstatic.com%2Fs%2Frobotocondensed%2Fv17%2FieVj2ZhZI2eCN5jzbjEETS9weq8-19eLCwM9UvI.woff2)%20format('woff2')%3B%0A%20%20unicode-range%3A%20U%2B0400-045F%2C%20U%2B0490-0491%2C%20U%2B04B0-04B1%2C%20U%2B2116%3B%0A%7D%0A%2F*%20greek-ext%20*%2F%0A%40font-face%20%7B%0A%20%20font-family%3A%20'Roboto%20Condensed'%3B%0A%20%20font-style%3A%20italic%3B%0A%20%20font-weight%3A%20400%3B%0A%20%20src%3A%20local('Roboto%20Condensed%20Italic')%2C%20local('RobotoCondensed-Italic')%2C%20url(https%3A%2F%2Ffonts.gstatic.com%2Fs%2Frobotocondensed%2Fv17%2FieVj2ZhZI2eCN5jzbjEETS9weq8-19eLAwM9UvI.woff2)%20format('woff2')%3B%0A%20%20unicode-range%3A%20U%2B1F00-1FFF%3B%0A%7D%0A%2F*%20greek%20*%2F%0A%40font-face%20%7B%0A%20%20font-family%3A%20'Roboto%20Condensed'%3B%0A%20%20font-style%3A%20italic%3B%0A%20%20font-weight%3A%20400%3B%0A%20%20src%3A%20local('Roboto%20Condensed%20Italic')%2C%20local('RobotoCondensed-Italic')%2C%20url(https%3A%2F%2Ffonts.gstatic.com%2Fs%2Frobotocondensed%2Fv17%2FieVj2ZhZI2eCN5jzbjEETS9weq8-19eLDAM9UvI.woff2)%20format('woff2')%3B%0A%20%20unicode-range%3A%20U%2B0370-03FF%3B%0A%7D%0A%2F*%20vietnamese%20*%2F%0A%40font-face%20%7B%0A%20%20font-family%3A%20'Roboto%20Condensed'%3B%0A%20%20font-style%3A%20italic%3B%0A%20%20font-weight%3A%20400%3B%0A%20%20src%3A%20local('Roboto%20Condensed%20Italic')%2C%20local('RobotoCondensed-Italic')%2C%20url(https%3A%2F%2Ffonts.gstatic.com%2Fs%2Frobotocondensed%2Fv17%2FieVj2ZhZI2eCN5jzbjEETS9weq8-19eLAAM9UvI.woff2)%20format('woff2')%3B%0A%20%20unicode-range%3A%20U%2B0102-0103%2C%20U%2B0110-0111%2C%20U%2B1EA0-1EF9%2C%20U%2B20AB%3B%0A%7D%0A%2F*%20latin-ext%20*%2F%0A%40font-face%20%7B%0A%20%20font-family%3A%20'Roboto%20Condensed'%3B%0A%20%20font-style%3A%20italic%3B%0A%20%20font-weight%3A%20400%3B%0A%20%20src%3A%20local('Roboto%20Condensed%20Italic')%2C%20local('RobotoCondensed-Italic')%2C%20url(https%3A%2F%2Ffonts.gstatic.com%2Fs%2Frobotocondensed%2Fv17%2FieVj2ZhZI2eCN5jzbjEETS9weq8-19eLAQM9UvI.woff2)%20format('woff2')%3B%0A%20%20unicode-range%3A%20U%2B0100-024F%2C%20U%2B0259%2C%20U%2B1E00-1EFF%2C%20U%2B2020%2C%20U%2B20A0-20AB%2C%20U%2B20AD-20CF%2C%20U%2B2113%2C%20U%2B2C60-2C7F%2C%20U%2BA720-A7FF%3B%0A%7D%0A%2F*%20latin%20*%2F%0A%40font-face%20%7B%0A%20%20font-family%3A%20'Roboto%20Condensed'%3B%0A%20%20font-style%3A%20italic%3B%0A%20%20font-weight%3A%20400%3B%0A%20%20src%3A%20local('Roboto%20Condensed%20Italic')%2C%20local('RobotoCondensed-Italic')%2C%20url(https%3A%2F%2Ffonts.gstatic.com%2Fs%2Frobotocondensed%2Fv17%2FieVj2ZhZI2eCN5jzbjEETS9weq8-19eLDwM9.woff2)%20format('woff2')%3B%0A%20%20unicode-range%3A%20U%2B0000-00FF%2C%20U%2B0131%2C%20U%2B0152-0153%2C%20U%2B02BB-02BC%2C%20U%2B02C6%2C%20U%2B02DA%2C%20U%2B02DC%2C%20U%2B2000-206F%2C%20U%2B2074%2C%20U%2B20AC%2C%20U%2B2122%2C%20U%2B2191%2C%20U%2B2193%2C%20U%2B2212%2C%20U%2B2215%2C%20U%2BFEFF%2C%20U%2BFFFD%3B%0A%7D%0A%2F*%20cyrillic-ext%20*%2F%0A%40font-face%20%7B%0A%20%20font-family%3A%20'Roboto%20Condensed'%3B%0A%20%20font-style%3A%20italic%3B%0A%20%20font-weight%3A%20700%3B%0A%20%20src%3A%20local('Roboto%20Condensed%20Bold%20Italic')%2C%20local('RobotoCondensed-BoldItalic')%2C%20url(https%3A%2F%2Ffonts.gstatic.com%2Fs%2Frobotocondensed%2Fv17%2FieVg2ZhZI2eCN5jzbjEETS9weq8-19eDtCYoYNNZQyQ.woff2)%20format('woff2')%3B%0A%20%20unicode-range%3A%20U%2B0460-052F%2C%20U%2B1C80-1C88%2C%20U%2B20B4%2C%20U%2B2DE0-2DFF%2C%20U%2BA640-A69F%2C%20U%2BFE2E-FE2F%3B%0A%7D%0A%2F*%20cyrillic%20*%2F%0A%40font-face%20%7B%0A%20%20font-family%3A%20'Roboto%20Condensed'%3B%0A%20%20font-style%3A%20italic%3B%0A%20%20font-weight%3A%20700%3B%0A%20%20src%3A%20local('Roboto%20Condensed%20Bold%20Italic')%2C%20local('RobotoCondensed-BoldItalic')%2C%20url(https%3A%2F%2Ffonts.gstatic.com%2Fs%2Frobotocondensed%2Fv17%2FieVg2ZhZI2eCN5jzbjEETS9weq8-19eDtCYoadNZQyQ.woff2)%20format('woff2')%3B%0A%20%20unicode-range%3A%20U%2B0400-045F%2C%20U%2B0490-0491%2C%20U%2B04B0-04B1%2C%20U%2B2116%3B%0A%7D%0A%2F*%20greek-ext%20*%2F%0A%40font-face%20%7B%0A%20%20font-family%3A%20'Roboto%20Condensed'%3B%0A%20%20font-style%3A%20italic%3B%0A%20%20font-weight%3A%20700%3B%0A%20%20src%3A%20local('Roboto%20Condensed%20Bold%20Italic')%2C%20local('RobotoCondensed-BoldItalic')%2C%20url(https%3A%2F%2Ffonts.gstatic.com%2Fs%2Frobotocondensed%2Fv17%2FieVg2ZhZI2eCN5jzbjEETS9weq8-19eDtCYoYdNZQyQ.woff2)%20format('woff2')%3B%0A%20%20unicode-range%3A%20U%2B1F00-1FFF%3B%0A%7D%0A%2F*%20greek%20*%2F%0A%40font-face%20%7B%0A%20%20font-family%3A%20'Roboto%20Condensed'%3B%0A%20%20font-style%3A%20italic%3B%0A%20%20font-weight%3A%20700%3B%0A%20%20src%3A%20local('Roboto%20Condensed%20Bold%20Italic')%2C%20local('RobotoCondensed-BoldItalic')%2C%20url(https%3A%2F%2Ffonts.gstatic.com%2Fs%2Frobotocondensed%2Fv17%2FieVg2ZhZI2eCN5jzbjEETS9weq8-19eDtCYobtNZQyQ.woff2)%20format('woff2')%3B%0A%20%20unicode-range%3A%20U%2B0370-03FF%3B%0A%7D%0A%2F*%20vietnamese%20*%2F%0A%40font-face%20%7B%0A%20%20font-family%3A%20'Roboto%20Condensed'%3B%0A%20%20font-style%3A%20italic%3B%0A%20%20font-weight%3A%20700%3B%0A%20%20src%3A%20local('Roboto%20Condensed%20Bold%20Italic')%2C%20local('RobotoCondensed-BoldItalic')%2C%20url(https%3A%2F%2Ffonts.gstatic.com%2Fs%2Frobotocondensed%2Fv17%2FieVg2ZhZI2eCN5jzbjEETS9weq8-19eDtCYoYtNZQyQ.woff2)%20format('woff2')%3B%0A%20%20unicode-range%3A%20U%2B0102-0103%2C%20U%2B0110-0111%2C%20U%2B1EA0-1EF9%2C%20U%2B20AB%3B%0A%7D%0A%2F*%20latin-ext%20*%2F%0A%40font-face%20%7B%0A%20%20font-family%3A%20'Roboto%20Condensed'%3B%0A%20%20font-style%3A%20italic%3B%0A%20%20font-weight%3A%20700%3B%0A%20%20src%3A%20local('Roboto%20Condensed%20Bold%20Italic')%2C%20local('RobotoCondensed-BoldItalic')%2C%20url(https%3A%2F%2Ffonts.gstatic.com%2Fs%2Frobotocondensed%2Fv17%2FieVg2ZhZI2eCN5jzbjEETS9weq8-19eDtCYoY9NZQyQ.woff2)%20format('woff2')%3B%0A%20%20unicode-range%3A%20U%2B0100-024F%2C%20U%2B0259%2C%20U%2B1E00-1EFF%2C%20U%2B2020%2C%20U%2B20A0-20AB%2C%20U%2B20AD-20CF%2C%20U%2B2113%2C%20U%2B2C60-2C7F%2C%20U%2BA720-A7FF%3B%0A%7D%0A%2F*%20latin%20*%2F%0A%40font-face%20%7B%0A%20%20font-family%3A%20'Roboto%20Condensed'%3B%0A%20%20font-style%3A%20italic%3B%0A%20%20font-weight%3A%20700%3B%0A%20%20src%3A%20local('Roboto%20Condensed%20Bold%20Italic')%2C%20local('RobotoCondensed-BoldItalic')%2C%20url(https%3A%2F%2Ffonts.gstatic.com%2Fs%2Frobotocondensed%2Fv17%2FieVg2ZhZI2eCN5jzbjEETS9weq8-19eDtCYobdNZ.woff2)%20format('woff2')%3B%0A%20%20unicode-range%3A%20U%2B0000-00FF%2C%20U%2B0131%2C%20U%2B0152-0153%2C%20U%2B02BB-02BC%2C%20U%2B02C6%2C%20U%2B02DA%2C%20U%2B02DC%2C%20U%2B2000-206F%2C%20U%2B2074%2C%20U%2B20AC%2C%20U%2B2122%2C%20U%2B2191%2C%20U%2B2193%2C%20U%2B2212%2C%20U%2B2215%2C%20U%2BFEFF%2C%20U%2BFFFD%3B%0A%7D%0A%2F*%20cyrillic-ext%20*%2F%0A%40font-face%20%7B%0A%20%20font-family%3A%20'Roboto%20Condensed'%3B%0A%20%20font-style%3A%20normal%3B%0A%20%20font-weight%3A%20400%3B%0A%20%20src%3A%20local('Roboto%20Condensed')%2C%20local('RobotoCondensed-Regular')%2C%20url(https%3A%2F%2Ffonts.gstatic.com%2Fs%2Frobotocondensed%2Fv17%2FieVl2ZhZI2eCN5jzbjEETS9weq8-19-7DRs5.woff2)%20format('woff2')%3B%0A%20%20unicode-range%3A%20U%2B0460-052F%2C%20U%2B1C80-1C88%2C%20U%2B20B4%2C%20U%2B2DE0-2DFF%2C%20U%2BA640-A69F%2C%20U%2BFE2E-FE2F%3B%0A%7D%0A%2F*%20cyrillic%20*%2F%0A%40font-face%20%7B%0A%20%20font-family%3A%20'Roboto%20Condensed'%3B%0A%20%20font-style%3A%20normal%3B%0A%20%20font-weight%3A%20400%3B%0A%20%20src%3A%20local('Roboto%20Condensed')%2C%20local('RobotoCondensed-Regular')%2C%20url(https%3A%2F%2Ffonts.gstatic.com%2Fs%2Frobotocondensed%2Fv17%2FieVl2ZhZI2eCN5jzbjEETS9weq8-19a7DRs5.woff2)%20format('woff2')%3B%0A%20%20unicode-range%3A%20U%2B0400-045F%2C%20U%2B0490-0491%2C%20U%2B04B0-04B1%2C%20U%2B2116%3B%0A%7D%0A%2F*%20greek-ext%20*%2F%0A%40font-face%20%7B%0A%20%20font-family%3A%20'Roboto%20Condensed'%3B%0A%20%20font-style%3A%20normal%3B%0A%20%20font-weight%3A%20400%3B%0A%20%20src%3A%20local('Roboto%20Condensed')%2C%20local('RobotoCondensed-Regular')%2C%20url(https%3A%2F%2Ffonts.gstatic.com%2Fs%2Frobotocondensed%2Fv17%2FieVl2ZhZI2eCN5jzbjEETS9weq8-1967DRs5.woff2)%20format('woff2')%3B%0A%20%20unicode-range%3A%20U%2B1F00-1FFF%3B%0A%7D%0A%2F*%20greek%20*%2F%0A%40font-face%20%7B%0A%20%20font-family%3A%20'Roboto%20Condensed'%3B%0A%20%20font-style%3A%20normal%3B%0A%20%20font-weight%3A%20400%3B%0A%20%20src%3A%20local('Roboto%20Condensed')%2C%20local('RobotoCondensed-Regular')%2C%20url(https%3A%2F%2Ffonts.gstatic.com%2Fs%2Frobotocondensed%2Fv17%2FieVl2ZhZI2eCN5jzbjEETS9weq8-19G7DRs5.woff2)%20format('woff2')%3B%0A%20%20unicode-range%3A%20U%2B0370-03FF%3B%0A%7D%0A%2F*%20vietnamese%20*%2F%0A%40font-face%20%7B%0A%20%20font-family%3A%20'Roboto%20Condensed'%3B%0A%20%20font-style%3A%20normal%3B%0A%20%20font-weight%3A%20400%3B%0A%20%20src%3A%20local('Roboto%20Condensed')%2C%20local('RobotoCondensed-Regular')%2C%20url(https%3A%2F%2Ffonts.gstatic.com%2Fs%2Frobotocondensed%2Fv17%2FieVl2ZhZI2eCN5jzbjEETS9weq8-1927DRs5.woff2)%20format('woff2')%3B%0A%20%20unicode-range%3A%20U%2B0102-0103%2C%20U%2B0110-0111%2C%20U%2B1EA0-1EF9%2C%20U%2B20AB%3B%0A%7D%0A%2F*%20latin-ext%20*%2F%0A%40font-face%20%7B%0A%20%20font-family%3A%20'Roboto%20Condensed'%3B%0A%20%20font-style%3A%20normal%3B%0A%20%20font-weight%3A%20400%3B%0A%20%20src%3A%20local('Roboto%20Condensed')%2C%20local('RobotoCondensed-Regular')%2C%20url(https%3A%2F%2Ffonts.gstatic.com%2Fs%2Frobotocondensed%2Fv17%2FieVl2ZhZI2eCN5jzbjEETS9weq8-19y7DRs5.woff2)%20format('woff2')%3B%0A%20%20unicode-range%3A%20U%2B0100-024F%2C%20U%2B0259%2C%20U%2B1E00-1EFF%2C%20U%2B2020%2C%20U%2B20A0-20AB%2C%20U%2B20AD-20CF%2C%20U%2B2113%2C%20U%2B2C60-2C7F%2C%20U%2BA720-A7FF%3B%0A%7D%0A%2F*%20latin%20*%2F%0A%40font-face%20%7B%0A%20%20font-family%3A%20'Roboto%20Condensed'%3B%0A%20%20font-style%3A%20normal%3B%0A%20%20font-weight%3A%20400%3B%0A%20%20src%3A%20local('Roboto%20Condensed')%2C%20local('RobotoCondensed-Regular')%2C%20url(https%3A%2F%2Ffonts.gstatic.com%2Fs%2Frobotocondensed%2Fv17%2FieVl2ZhZI2eCN5jzbjEETS9weq8-19K7DQ.woff2)%20format('woff2')%3B%0A%20%20unicode-range%3A%20U%2B0000-00FF%2C%20U%2B0131%2C%20U%2B0152-0153%2C%20U%2B02BB-02BC%2C%20U%2B02C6%2C%20U%2B02DA%2C%20U%2B02DC%2C%20U%2B2000-206F%2C%20U%2B2074%2C%20U%2B20AC%2C%20U%2B2122%2C%20U%2B2191%2C%20U%2B2193%2C%20U%2B2212%2C%20U%2B2215%2C%20U%2BFEFF%2C%20U%2BFFFD%3B%0A%7D%0A%2F*%20cyrillic-ext%20*%2F%0A%40font-face%20%7B%0A%20%20font-family%3A%20'Roboto%20Condensed'%3B%0A%20%20font-style%3A%20normal%3B%0A%20%20font-weight%3A%20700%3B%0A%20%20src%3A%20local('Roboto%20Condensed%20Bold')%2C%20local('RobotoCondensed-Bold')%2C%20url(https%3A%2F%2Ffonts.gstatic.com%2Fs%2Frobotocondensed%2Fv17%2FieVi2ZhZI2eCN5jzbjEETS9weq8-32meGCkYb8td.woff2)%20format('woff2')%3B%0A%20%20unicode-range%3A%20U%2B0460-052F%2C%20U%2B1C80-1C88%2C%20U%2B20B4%2C%20U%2B2DE0-2DFF%2C%20U%2BA640-A69F%2C%20U%2BFE2E-FE2F%3B%0A%7D%0A%2F*%20cyrillic%20*%2F%0A%40font-face%20%7B%0A%20%20font-family%3A%20'Roboto%20Condensed'%3B%0A%20%20font-style%3A%20normal%3B%0A%20%20font-weight%3A%20700%3B%0A%20%20src%3A%20local('Roboto%20Condensed%20Bold')%2C%20local('RobotoCondensed-Bold')%2C%20url(https%3A%2F%2Ffonts.gstatic.com%2Fs%2Frobotocondensed%2Fv17%2FieVi2ZhZI2eCN5jzbjEETS9weq8-32meGCAYb8td.woff2)%20format('woff2')%3B%0A%20%20unicode-range%3A%20U%2B0400-045F%2C%20U%2B0490-0491%2C%20U%2B04B0-04B1%2C%20U%2B2116%3B%0A%7D%0A%2F*%20greek-ext%20*%2F%0A%40font-face%20%7B%0A%20%20font-family%3A%20'Roboto%20Condensed'%3B%0A%20%20font-style%3A%20normal%3B%0A%20%20font-weight%3A%20700%3B%0A%20%20src%3A%20local('Roboto%20Condensed%20Bold')%2C%20local('RobotoCondensed-Bold')%2C%20url(https%3A%2F%2Ffonts.gstatic.com%2Fs%2Frobotocondensed%2Fv17%2FieVi2ZhZI2eCN5jzbjEETS9weq8-32meGCgYb8td.woff2)%20format('woff2')%3B%0A%20%20unicode-range%3A%20U%2B1F00-1FFF%3B%0A%7D%0A%2F*%20greek%20*%2F%0A%40font-face%20%7B%0A%20%20font-family%3A%20'Roboto%20Condensed'%3B%0A%20%20font-style%3A%20normal%3B%0A%20%20font-weight%3A%20700%3B%0A%20%20src%3A%20local('Roboto%20Condensed%20Bold')%2C%20local('RobotoCondensed-Bold')%2C%20url(https%3A%2F%2Ffonts.gstatic.com%2Fs%2Frobotocondensed%2Fv17%2FieVi2ZhZI2eCN5jzbjEETS9weq8-32meGCcYb8td.woff2)%20format('woff2')%3B%0A%20%20unicode-range%3A%20U%2B0370-03FF%3B%0A%7D%0A%2F*%20vietnamese%20*%2F%0A%40font-face%20%7B%0A%20%20font-family%3A%20'Roboto%20Condensed'%3B%0A%20%20font-style%3A%20normal%3B%0A%20%20font-weight%3A%20700%3B%0A%20%20src%3A%20local('Roboto%20Condensed%20Bold')%2C%20local('RobotoCondensed-Bold')%2C%20url(https%3A%2F%2Ffonts.gstatic.com%2Fs%2Frobotocondensed%2Fv17%2FieVi2ZhZI2eCN5jzbjEETS9weq8-32meGCsYb8td.woff2)%20format('woff2')%3B%0A%20%20unicode-range%3A%20U%2B0102-0103%2C%20U%2B0110-0111%2C%20U%2B1EA0-1EF9%2C%20U%2B20AB%3B%0A%7D%0A%2F*%20latin-ext%20*%2F%0A%40font-face%20%7B%0A%20%20font-family%3A%20'Roboto%20Condensed'%3B%0A%20%20font-style%3A%20normal%3B%0A%20%20font-weight%3A%20700%3B%0A%20%20src%3A%20local('Roboto%20Condensed%20Bold')%2C%20local('RobotoCondensed-Bold')%2C%20url(https%3A%2F%2Ffonts.gstatic.com%2Fs%2Frobotocondensed%2Fv17%2FieVi2ZhZI2eCN5jzbjEETS9weq8-32meGCoYb8td.woff2)%20format('woff2')%3B%0A%20%20unicode-range%3A%20U%2B0100-024F%2C%20U%2B0259%2C%20U%2B1E00-1EFF%2C%20U%2B2020%2C%20U%2B20A0-20AB%2C%20U%2B20AD-20CF%2C%20U%2B2113%2C%20U%2B2C60-2C7F%2C%20U%2BA720-A7FF%3B%0A%7D%0A%2F*%20latin%20*%2F%0A%40font-face%20%7B%0A%20%20font-family%3A%20'Roboto%20Condensed'%3B%0A%20%20font-style%3A%20normal%3B%0A%20%20font-weight%3A%20700%3B%0A%20%20src%3A%20local('Roboto%20Condensed%20Bold')%2C%20local('RobotoCondensed-Bold')%2C%20url(https%3A%2F%2Ffonts.gstatic.com%2Fs%2Frobotocondensed%2Fv17%2FieVi2ZhZI2eCN5jzbjEETS9weq8-32meGCQYbw.woff2)%20format('woff2')%3B%0A%20%20unicode-range%3A%20U%2B0000-00FF%2C%20U%2B0131%2C%20U%2B0152-0153%2C%20U%2B02BB-02BC%2C%20U%2B02C6%2C%20U%2B02DA%2C%20U%2B02DC%2C%20U%2B2000-206F%2C%20U%2B2074%2C%20U%2B20AC%2C%20U%2B2122%2C%20U%2B2191%2C%20U%2B2193%2C%20U%2B2212%2C%20U%2B2215%2C%20U%2BFEFF%2C%20U%2BFFFD%3B%0A%7D%0A"/><linearGradient id="L00100100000aaff10010000387f100.grad" x1="0%" y1="0%" x2="100%" y2="100%"><stop offset="0%" stop-color="#00aaff" stop-opacity="1"/><stop offset="100%" stop-color="#00387f" stop-opacity="1"/></linearGradient></defs><title xmlns="http://www.w3.org/1999/xhtml">Link Editable</title><desc xmlns="http://www.w3.org/1999/xhtml"></desc><svg height="396.8504047393799" id="kq2cgh6wu0" overflow="visible" v:setup="{&quot;paper&quot;:&quot;CUSTOM&quot;,&quot;unit&quot;:&quot;px&quot;,&quot;scale&quot;:{&quot;from&quot;:1,&quot;to&quot;:1},&quot;width&quot;:&quot;297mm&quot;,&quot;height&quot;:&quot;210mm&quot;}" viewBox="0 0 1122.5197162628174 793.7008094787598" width="561.2598581314087"><g id="kqgewmdhjs" transform="translate(6.981173121200982 9.166195892219093)" class="NoPrint.cls"><path d="M 129.4031800550838 357.0445200990082 C 112.90175579809207 343.5767939345587 95.3156458792061 330.68626861599233 83.29187419675802 312.5048639816066 C 57.98353227885446 280.45170359963515 38.51548990745941 243.2423404295575 25.184522058923143 204.33029164385786 C 17.1192589266119 178.96288509947 14.37515131640244 151.77738212756552 3.9922708282649646 127.39116931559587 C -6.854161422265212 109.69078373441369 5.8648671757031625 90.32613387943964 24.55419351048798 84.6985265477382 C 32.86983400606902 83.03429897054815 47.50785656455603 74.88633234734269 29.83828752458027 80.71595447061279 C 14.078517796189551 92.76954039747962 12.474829566025877 69.76862429426923 28.70734570574296 68.2101930193666 C 39.79481921447182 66.67106415688266 43.87384839370796 57.272514049232385 40.07292198068001 48.80708512596143 C 28.169670927331396 40.745685785827845 68.92261829940819 31.914722014452384 48.41642933533676 19.88997961640907 C 27.066454511432426 -4.015214142357264 78.28588294887413 -8.62309631000588 65.65950812092933 18.543214339284475 C 62.6372977445117 39.41818622452042 101.46205650713615 14.695282093269984 92.54381286605822 38.821719662820655 C 101.70295630919736 50.40397443929534 126.84452144105867 41.46717766903075 126.19566213861886 57.705387161193144 C 139.54501928502262 58.667388570997495 144.11546708572718 70.21111191583785 156.62132128457264 71.19234234485786 C 169.5999218947444 77.27205180773569 193.12832123523367 82.06271974773745 197.53185079375848 97.23313152780813 C 184.55325018358678 107.81489015944555 154.8599094611624 75.39619492936906 153.42299801704124 104.65960626781049 C 157.31643674395536 147.91022086233536 156.32454630822232 192.45947314104325 171.5653134683435 233.63219771733176 C 178.77759609188848 258.56669445315765 196.26185759181703 278.1910828539483 212.04949417928367 297.60380525696155 C 227.16040460523456 316.6221492830462 247.62033741236303 330.0225371836392 268.48794680759556 341.2776784538392 C 286.7878443960061 350.2240897337116 306.4969280256001 356.1595081592694 326.44705291339267 359.8919928967871 C 334.5309882558458 353.47559211462806 348.80730747089683 329.60885639429216 361.4246291060457 339.67117463089744 C 362.0362854443388 350.9936541649536 336.3942484982127 363.3166298438469 360.219422815052 362.06604635940175 C 374.125126950009 357.6794446991391 383.9240765027921 373.29234410077817 395.4470934587002 359.2089590520156 C 406.06196201224014 372.26304112371935 439.5746184455585 350.878243353058 432.0284993376547 377.553920439538 C 421.81225417942204 384.2877835217629 406.9981187298214 380.24745099378697 396.68002515263197 389.67484463026096 C 379.80770290327166 381.0170521216309 366.3840812847116 397.4861199341849 347.70423251113533 395.39863375464216 C 326.9661969377991 399.24656600065686 305.857263372094 400.80496057895795 284.8317889274779 400.8338041077809 C 250.32724205842567 398.00559702581944 215.09928850250213 396.81273729562287 182.282030440841 384.3551217856185 C 163.78748920731147 378.77562369855804 145.7563582800376 367.8475592380313 129.49597528124463 356.91945808090355 Z M 158.54031524509105 370.1562892283593 C 176.58983547023263 378.2369175877077 194.25006840513734 386.7985283036586 214.0332750507502 389.36703353640524 C 245.42324068563636 393.8883484209814 277.84187535199004 400.87229884281345 309.33368940583296 394.5136218149035 C 295.0757594886489 387.8374824869274 280.33574705506715 397.1109705764726 266.13326794375985 389.74218289411726 C 249.10336355728998 393.542005895491 230.9055973001111 388.7802181809145 213.4957417284761 386.41376443633914 C 193.8050473967494 377.31341091293643 172.54786779900581 371.06056688391504 154.10906028362808 359.2378392774406 C 131.05340735446524 350.5030572987444 166.02164744204777 370.4449079996011 172.25137573493032 372.0610263321504 C 186.65755168415248 380.5456842746369 156.49146455040193 367.7128827103187 152.13433260495776 364.17279825476226 C 140.0641633094293 357.15035309789704 138.53459809528445 358.612529186917 150.92912631396425 365.74080734267136 C 153.4323341221122 367.26074388254114 155.89819750997611 368.84801868626704 158.51258984215292 370.146674718751 Z M 124.18387295193902 344.95243943710835 C 141.686523749735 351.68630251933314 124.10974993592019 332.18697613664654 116.10007906562308 333.40867939566607 C 112.54953001586513 327.011507632723 102.52806995888824 322.9712118013492 109.59224800653263 319.5561893638971 C 96.89160870643148 324.13519130612065 96.27047480692997 302.2405676500354 90.30965463132206 305.2900185427808 C 76.86750225875748 300.88415116670086 85.08101142310639 285.28086627466985 69.05247503357867 275.6803013754507 C 67.58769673038158 265.57952510041474 53.13498171194166 256.82551410250323 48.53694996443613 241.58776405857648 C 46.49743537481805 233.8919362631492 32.202302493487004 211.381598677847 40.9814947514607 232.2277086859591 C 48.4534908433462 252.2945847083186 61.60820434463151 269.48514440407587 72.55662647025618 286.64686057101005 C 81.04837985695083 303.000517571669 91.09756531686587 320.0852809651391 106.57923227904848 330.27262452324703 C 111.79853938219313 335.46732204638636 116.83239748915305 343.42288838763096 124.19320905701024 345.05827243599737 Z M 73.78969962032573 287.5222580011412 C 74.39230276582259 284.78061820225133 76.98802288785687 293.4576764266988 73.78969962032573 287.5222580011412 Z M 145.14441902946973 353.00422426763436 C 149.01946845851637 351.2053201627319 139.58222224916935 350.7339523157378 145.14441902946973 353.00422426763436 Z M 154.63754041310597 356.6019957808382 C 153.6547031701688 351.6381932746927 150.2987977655289 359.48796331364997 154.63754041310597 356.6019957808382 Z M 166.53145536138373 361.74858405933617 C 172.09379359782145 356.1691226688774 157.81719147049495 358.2181508099889 166.53145536138373 361.74858405933617 Z M 186.90792904742221 373.5328536273796 C 190.337957468081 368.2612033307768 175.9037732036459 371.5511637501237 186.90792904742221 373.5328536273796 Z M 147.78653676458467 345.23140700214094 C 156.56558756642076 339.33448331161617 136.4301551385811 345.1352252094616 147.78653676458467 345.23140700214094 Z M 156.70478040566252 349.84890367939727 C 156.45440304239244 346.741729032403 153.5341825410697 351.24377820116274 156.70478040566252 349.84890367939727 Z M 201.2679902958386 378.7082854347017 C 208.43387530630272 383.40277158202395 243.1146765226064 389.00146199169853 221.40342272367837 380.6322515577088 C 217.7600784477593 381.42108170476814 181.14161106079496 369.87732166332626 201.2679902958386 378.7082854347017 Z M 130.53426333005848 321.5282280349435 C 129.83886495840065 318.41143887834085 119.40958685718256 318.06513304945196 130.53426333005848 321.5282280349435 Z M 151.2722989033951 334.0820620342286 C 156.677055002724 330.1668282209598 140.14762243051942 331.0614546703059 151.2722989033951 334.0820620342286 Z M 168.72855208811052 345.18329775750067 C 176.47865094620417 342.15307588397025 156.16696417111314 342.1434613743621 168.72855208811052 345.18329775750067 Z M 122.07957145137333 311.9950380961819 C 130.48786571697792 318.6904064433738 155.99099273613714 312.9570028093847 135.05817206154504 308.00281481284725 C 125.49106911802733 302.7119354970288 103.90938914099532 299.08524706179816 118.62167617163864 311.19659343951537 L 122.18156132646796 311.9950380961819 Z M 180.5483440203694 349.03123000351485 C 184.05249545704694 342.84568754174757 165.85472919986802 345.4911455479585 180.5483440203694 349.03123000351485 Z M 162.7862626665074 334.3802953150785 C 183.3387077875218 340.4022810237079 145.49678626783412 320.8837256218061 157.71534305153799 332.14848140161365 L 160.42224769760048 333.427908414882 L 162.7862626665074 334.38990982468636 Z M 198.40322060039236 355.736212860315 C 217.87126297178744 355.9286131422754 180.81711068150653 352.850282024105 198.40322060039236 355.736212860315 Z M 114.5982392544168 300.30698701742034 C 113.83805397181123 296.45905477140525 109.79622775672185 300.61479811127595 114.5982392544168 300.30698701742034 Z M 231.34128220342788 374.8988479237198 C 231.86042622783506 368.1072977838488 224.9910332814461 379.9588689191468 231.34128220342788 374.8988479237198 Z M 147.90705739368397 321.4128172230484 C 146.72038185669524 317.8342380324585 141.8255751328392 321.25887497951794 147.90705739368397 321.4128172230484 Z M 116.52656932000649 297.9404965762429 C 127.69750194982525 297.2382704088567 101.23020989787092 292.8420175423849 116.52656932000649 297.9404965762429 Z M 79.44469162678719 273.00599984041685 C 78.05403633960891 267.4265017533562 67.39305308526328 263.001405358061 79.44469162678719 273.00599984041685 Z M 177.03485647862058 337.2662261512886 C 174.9953418890027 334.8420486524642 176.07069144582545 337.7953177525304 177.03485647862058 337.2662261512886 Z M 237.7749902464999 375.9378021069888 C 237.58968270645275 372.2341608982942 234.4654824549406 377.33267662875363 237.7749902464999 375.9378021069888 Z M 171.676497992372 331.4943644788682 C 172.77051975933728 326.7229255580822 162.1465980130011 330.05138071246273 171.676497992372 331.4943644788682 Z M 126.43670339681753 301.7307050680088 C 134.75220243626114 300.80719839323683 113.10573554828132 295.9011196413397 126.43670339681753 301.7307050680088 Z M 202.98300450616804 351.08025814462695 C 215.94293290619785 345.75088409377554 190.34729357315214 348.48290938305706 202.98300450616804 351.08025814462695 Z M 163.17554995674368 323.03855006520536 C 178.00835761648636 325.0298544520689 145.4039910416732 312.4856349623913 159.8937675681226 321.913028598865 Z M 215.07156309956386 356.14989364966146 C 229.0236648476017 347.5112934636451 224.41615553888755 376.40916995398203 238.72981917422342 358.59330016770167 C 252.83950305937014 347.8960940275665 226.53912924959556 371.8205168055489 243.92125941829252 360.49803727149293 C 256.51057273822744 351.76325529279677 275.08857309284673 364.63455159214806 286.82518881629045 368.82875297044984 C 295.1685547148098 368.40549436809687 303.47485910532004 376.39955544437447 312.1333892780566 371.52232022130045 C 328.79239567215654 366.86632880901146 279.54783636952334 364.6152858763305 292.4523139636761 356.3615229508379 C 277.21154680355494 360.9790196280945 265.9386242986415 350.878243353058 258.4482389088888 340.7389723429896 C 241.34421150640034 336.6409527573669 221.57939415865437 327.55986494978214 213.04138461501688 311.8603615684695 C 209.55562247620648 305.9730523875522 218.06590661690583 312.69726426356794 210.03770499260395 303.0582413259177 C 199.84013204451358 293.55389491597964 194.59324099456813 282.85665207924376 187.67745043509888 271.19748122590687 C 179.3338016243045 266.6280937932907 178.44404251980333 253.16036762884156 177.60973422117885 270.7549569077367 C 177.67452113212696 259.65372118446487 167.63453032114518 252.18875170942945 165.18705623114846 255.28634854341757 C 165.1409415303428 244.70455321517892 175.94083471165507 249.95697449256636 168.38566241095447 242.0495173959621 C 166.76316051451136 230.96751069190643 161.40480202826262 219.42375065046426 159.80097234196163 206.91800754751895 C 157.29804744608788 200.8960218388892 159.4487465597345 187.9670201335907 151.2722989033951 201.62712823169994 C 148.30568078899157 216.0568374576528 150.28946166045793 183.90747693470053 154.92469637211022 194.50848293385414 C 161.00617863295506 183.6958292852232 152.73693575045462 184.88868901541989 152.40309926609478 186.46633096123713 C 156.36160781623173 177.34676676692058 154.906307074243 164.3889031844976 151.36481121728104 169.3430911810353 C 153.47873173519307 159.66561020495357 154.70232732405384 133.7498830401081 148.2128855628304 138.33849949193961 C 152.1530048150998 128.21845750108653 155.67582846191985 92.03843400466897 138.57165960329385 105.82362246918365 C 131.64667439489105 105.91980426186333 119.65996422045255 108.42093453415157 113.9864414599864 111.35497461500225 C 131.75785891891948 121.5230891538945 112.19716277750065 115.02973559827153 104.94767718980904 113.4136172657221 C 104.02057366502362 122.82178188298013 96.83601644441733 118.76222033578921 87.89004740040123 118.84878761886121 C 102.20371103573699 120.77275374186821 80.91866457891781 134.04807962435646 72.72354471243608 128.8533821012176 C 62.06256145809053 134.14429811363766 81.99401413574104 147.32336881024335 72.93671911155901 151.4214250924671 C 74.04927163252916 157.5588583095935 56.62074385075199 149.20887689481938 57.974196173783355 163.4077094520789 C 47.62837719365539 158.88639456750226 56.55581548366682 180.242330461039 61.738061078801955 173.0275033705137 C 79.3333656466214 177.97207685744345 74.12339464854787 189.23683263725127 74.56841565693603 199.94367163529418 C 71.78724653871716 206.1772866451003 60.41233415870896 185.28310408894933 72.06534930492514 186.25470166006056 C 62.79487988162045 170.86302772090514 61.90483786484438 180.6559745537843 54.266064986916405 187.85159097339448 C 52.41199939348293 188.37104971672798 73.73396590217413 198.0870437761433 60.40313950977525 202.88732622575264 C 72.13027767201041 204.7727976137272 72.47330880530376 215.42191285752173 74.86504917714888 222.15577593974643 C 81.91055501465104 229.77465096170945 80.46444892159612 213.7384562611162 88.90046859013903 222.90611135177278 C 83.56078231403272 214.72930119974362 60.6255085578319 199.8186096171897 79.09232438842267 204.66698296313896 C 78.999670618399 196.46129258568507 75.75494973778743 189.83326250234964 81.40994174424897 189.9968009071861 C 87.01867759376732 179.4727476814963 75.53243923359354 215.9702334779793 88.17748627168034 202.5794967835957 C 91.67244305942438 200.99222197986953 92.53447676098712 192.04581069999725 98.83846952602593 203.42603233660265 C 107.96055146115562 212.75722583209622 102.1387826686518 219.49108891432044 89.26203047743714 210.95832172719352 C 91.56111707925866 219.07744482157509 106.48657850902505 221.96337565778535 103.67768398786768 234.65188618478334 C 106.64416064613378 245.81084566230334 110.81584359539359 241.6935603608637 114.43146246837424 241.0586724573348 C 117.27741849754109 251.89055512518144 118.88124818384216 243.92537427432873 119.02029956694628 238.7499057704055 C 132.0359616851274 241.63583660661553 128.9860259057716 249.62028317328466 133.06505508500734 255.10356277106456 C 142.03889098809967 259.297800845968 120.22550585793986 226.62898157968274 135.62371369903238 245.29136857066894 C 151.82850443581123 260.4906605761645 141.7050545037399 266.8108428690423 127.15968571527625 264.3770508606103 C 136.3653682276335 263.60744973276684 139.3226502369659 277.2868051983925 150.83661400007824 276.805822841791 C 161.33067901224382 282.00052036492986 168.45044932190214 301.8942251245443 150.34519537860965 293.6115819736264 C 144.06906947264653 287.83972030120646 121.84772484210811 280.49019833466815 139.9993763984816 291.658772321796 C 156.74184191367186 299.72017166192927 170.06333220099947 304.5300686211467 186.22186678083568 314.7462924046796 C 197.78222815702856 323.4040849133097 202.7790247559788 333.02387883174475 207.1545459992903 335.06329246324856 C 197.42066626973 339.87318942246606 177.85982867217393 331.21536021723415 192.3961442678412 328.56993890762567 C 183.32965459472558 326.85760208579455 173.13208164663519 322.09581437121824 181.8092840295143 333.81270897880364 C 189.19782100031034 340.2194952513552 207.9704650000476 339.53649810318507 211.3447597025548 340.25798998638805 C 208.4896090244545 346.7801870708343 203.594660844461 347.2996641624686 211.4562271388578 347.799912234887 C 202.68622952981772 352.65788174214384 214.2743163089488 353.4082538507718 215.16435832572483 356.1691226688774 Z M 197.13322739845086 303.56810390794385 C 191.7935411223444 297.7673620100985 190.41208048409993 286.92582813604275 196.17839847072716 296.35325846911775 C 199.1450165851308 297.60380525696155 205.66218374929244 314.09213878533285 197.13322739845086 303.56810390794385 Z M 255.574133108371 342.08573762011406 C 258.91164921514394 341.8548792997215 255.66692833453234 344.71192991050685 255.574133108371 342.08573762011406 Z M 188.70640237884157 289.3692713506839 C 188.49308652358133 280.71144214545245 190.6253963393601 296.13197796173205 188.70640237884157 289.3692713506839 Z M 182.90302288420497 281.2694139721196 C 176.18187596985382 267.8016878076704 191.36690941182383 285.07885148310123 182.90302288420497 281.2694139721196 Z M 112.51246850785571 230.8616776930169 C 116.46164095292129 229.76503645210167 114.3665341012892 237.8648938306667 112.51246850785571 230.8616776930169 Z M 168.54324454806306 262.3665174545317 C 170.9533742177759 252.91985810224 171.38905912109266 270.2835890607433 168.54324454806306 262.3665174545317 Z M 128.95815904669576 233.79571777386798 C 126.17713138461414 228.58179123151294 134.7986000493416 238.60561473308505 128.95815904669576 233.79571777386798 Z M 162.91583648840268 245.08935377910043 C 156.55653437362454 230.3037425629518 167.4305505709558 237.00872541975107 164.334358634657 247.51353127792498 Z M 104.34507404431221 204.56116831255062 C 101.49911801514557 199.70316210869254 96.79895493640781 185.47550437091 98.31932550161906 181.12734240077765 C 99.68211392972155 188.20751131189147 112.81829667700218 211.59322797902357 104.75303354469092 190.8144745830687 C 95.85332065761769 173.4988345209058 115.41401679903645 196.46129258568507 117.41646988064504 200.81906906542505 C 118.3435734054306 205.14796531974028 111.91906001129233 199.63582384483635 116.27619195673684 209.7654803452977 C 108.32211334845385 198.22172030385568 111.58536498307004 216.13379023111688 104.34507404431221 204.57078282215858 Z M 86.24915620609062 191.612919239736 C 86.99081073469146 180.32889774411083 90.38377764734079 199.34724177019598 86.24915620609062 191.612919239736 Z M 94.38868381055816 194.52773030137075 C 98.28226399360975 186.01421048175985 100.87798411564404 206.39854880418525 94.38868381055816 194.52773030137075 Z M 74.80012081006369 178.80897955254179 C 68.06044314170794 171.85387265953298 63.18416717185682 165.34125338809255 75.1246211893522 174.48006494992597 C 79.71345828792421 174.67246523188672 64.90851748725731 159.91569754456117 76.23703225418487 169.7952300088133 C 88.14028330753351 172.04623624489227 82.11453476484026 190.0545246614344 74.8094569151348 178.79936504293406 Z M 84.99769375815396 178.52039747790118 C 88.90980469521027 174.48006494992597 87.0742698557814 182.48374053581102 84.99769375815396 178.52039747790118 Z M 91.3386065750646 180.61749816705213 C 85.40551180239503 169.07373812561022 98.54183600581305 185.45625700339392 91.3386065750646 180.61749816705213 Z M 78.7492932551293 168.1406169412307 C 59.160871710772284 150.03620177691093 103.36251971365023 177.59689080312978 81.94761652266048 171.48830111482673 Z M 134.88205917043152 201.97343406058872 C 126.39950043267062 196.70180211228654 132.6293701816906 164.84104201227535 135.5309184728715 186.6298693660737 C 143.87442582752823 183.85936769005983 135.0675081666159 197.8850289845747 141.21377733840882 197.75035245686226 C 140.2496123056137 206.60056359575393 137.5055046954044 209.7750948549052 134.8912538193652 201.98306691849749 Z M 155.4902380095979 214.67157744549527 C 156.41734153438318 205.05178352706076 157.2332605351404 221.24188377458287 155.4902380095979 214.67157744549527 Z M 151.78210682273058 210.9679545851017 C 152.70921034751612 206.8699166511789 151.87490204889164 215.7970989118359 151.78210682273058 210.9679545851017 Z M 82.25358614794435 162.1474747614246 C 69.66427282800896 144.1296268801769 118.83485057076163 180.37700698875142 90.31884928025558 166.716898890642 C 87.35237262198946 165.8991885181581 83.82954897516974 165.61060644351764 82.25358614794435 162.1474747614246 Z M 122.2371535884822 184.13833525509276 C 121.0319472974885 168.96790512672115 124.89780207760148 186.63948387568158 122.2371535884822 184.13833525509276 Z M 152.58868971841687 204.33990615346573 C 154.9340324771814 195.70134266405083 152.7739972584641 210.05406241993788 152.58868971841687 204.33990615346573 Z M 84.19111086246785 155.25974282887375 C 91.67244305942438 153.59547855508183 115.18231164590881 168.88137454025102 93.59129556380559 159.62711546992094 C 91.1810244379559 156.8662466518152 86.17503319007169 158.1264079492667 84.19111086246785 155.25974282887375 Z M 148.4355375231618 188.47686436731627 C 149.23278431377696 172.96012841005597 152.90385399263437 179.2130091356794 148.4725990311713 190.70865993248043 Z M 89.77197985291029 149.85337930795623 C 92.83125173733742 145.21665361148436 81.66951375645233 128.8822256300408 91.37566808307407 144.08151763553613 C 95.5660232424759 147.54464931762905 103.42730662459796 149.85337930795623 96.50232141619496 151.32520660318588 C 107.62685643293342 161.42601957482347 93.72115229797606 154.05726858906942 89.78117450184415 149.93998328763 Z M 145.2649396585691 183.52267637077884 C 147.3692411591351 165.84150146051113 147.1190052520026 193.87357668202398 145.2649396585691 183.52267637077884 Z M 83.40305872078645 133.42276953383328 C 85.73934828675475 132.38385204716653 84.63613187085583 136.64542838592595 83.40305872078645 133.42276953383328 Z M 97.88364059830214 142.3691808137057 C 101.61030253917386 134.2500944159252 104.74369743961965 151.4118105828592 97.88364059830214 142.3691808137057 Z M 138.71071098639806 165.93771994979244 C 138.6736494783886 162.83050860619647 139.48023237407472 170.45899813776757 138.71071098639806 165.93771994979244 Z M 136.3466960174912 160.51212740965966 C 130.78449923719066 146.00548375854368 141.630931487721 168.1887261858714 136.3466960174912 160.51212740965966 Z M 132.87026998375183 150.8923334912251 C 131.92477716109912 144.89919131141866 136.1149908643635 158.42464123011626 132.87026998375183 150.8923334912251 Z M 138.4326082201897 141.3398778366467 C 134.53902803713805 134.22121419050032 143.34594569805023 110.00820933787757 144.32864148484987 125.03433008062792 C 140.22188690267564 136.7416101786057 143.1419659478611 143.28307297886928 145.9973995382364 127.58356959755686 C 151.28135209619126 115.23175038984031 144.85712161432787 151.97936022253242 138.4326082201897 141.3398778366467 Z M 144.254518468831 105.3137598871572 C 145.9510019251557 103.14932093415004 144.62527500506292 107.91107195212513 144.254518468831 105.3137598871572 Z M 134.52049728313352 304.0298205487282 C 132.2214106813119 301.9423343691856 134.81713080334646 305.34774229702936 134.52049728313352 304.0298205487282 Z M 154.54474518694516 314.5346631035032 C 165.66913874754601 317.42059393971306 165.63207723953673 312.74537350820816 155.47184871173033 311.3216554576197 C 150.06709261240138 306.09807770905564 132.97240131498393 300.54745984742 148.26861928098222 310.6771163478807 C 149.19572280576745 313.3418033733062 152.4775051943884 313.2744651094503 154.45194996078382 314.525048593895 Z M 115.015393403729 287.28178517114105 C 121.13393717258327 292.03395837610987 138.11744394597227 300.7302456197729 123.7575241536933 289.2057512941482 C 128.6059332644685 283.3569001516625 114.48705473038854 280.25934001427584 119.16854559898404 276.3344549947972 C 107.25609989670164 268.76368921747445 109.76836089764588 269.44668636564484 118.12106290123647 269.6005919125731 C 103.80739926590063 262.86672883034817 120.18830289379287 263.463158695447 119.41892296225363 260.0481362579943 C 113.90298233889631 258.92261479165404 91.99680198257563 249.94735998295863 104.88274882272388 260.77924265080514 C 91.78362758345271 253.85297928661964 101.75869002734902 263.35736239315906 97.80018147721212 262.3665174545317 C 84.40428526159072 258.5763089627654 109.72196328456552 272.9482760861686 95.66801311757048 269.38896261139644 C 103.34384750350792 275.6995303946662 116.34112032382205 285.5694483493102 98.91259254204476 276.06510193937225 C 96.62284204529435 279.49935339604014 111.39072133795173 284.69405091917935 115.015393403729 287.30101419035645 Z M 135.94807262218367 299.7682809065698 C 161.40480202826262 308.2721678682721 123.46089063348028 289.3596568410761 135.94807262218367 299.7682809065698 Z M 243.13334873274826 367.14529637404394 C 243.46718521710804 361.90252630286585 239.65692269900896 371.6185020139803 243.13334873274826 367.14529637404394 Z M 254.25802520562397 371.9551933332616 C 260.1352448040047 366.058269642737 254.49906646382277 381.36335795051974 263.99190493518404 370.51224626345737 C 264.0847001613451 362.73942899796407 263.71380216897586 358.15081254613256 253.08988042264 367.597435201822 C 250.16032381624578 369.2905063078355 248.85326910629493 376.4476279924135 254.25802520562397 371.96480784286933 Z M 79.54668150188172 258.21077411466047 C 77.73887206539138 250.85160094191244 66.90163446379484 250.89971018655353 79.54668150188172 258.21077411466047 Z M 91.30154506705523 266.19518398472843 C 86.94441312161098 258.6917564712619 75.72722433484901 259.3939826386478 91.30154506705523 266.19518398472843 Z M 158.23420416366974 308.0797675863115 C 164.77004353797378 314.1017532949407 188.24299207258628 312.5048639816066 166.16989347408548 308.8301029983378 C 162.90678329560666 303.82780575715935 145.42252179567782 305.020665487356 158.23420416366974 308.0797675863115 Z M 250.22511072719342 367.04911458136434 C 260.28377374831723 358.3912853761326 240.4912309976335 370.9547338850256 250.22511072719342 367.04911458136434 Z M 271.13940064778114 381.9597878156179 C 271.20418755872873 379.1508097528716 266.8009409124792 383.19110558424575 271.13940064778114 381.9597878156179 Z M 271.17646215579055 378.1118555696035 C 282.3011386286662 365.87548387038373 260.3949582723453 378.83334745280655 271.17646215579055 378.1118555696035 Z M 50.60418995699255 233.07422589066474 C 41.11121002949373 219.02933557693493 44.70815669233239 212.709134935756 35.54901324919327 201.3289132991507 C 33.80613217978812 192.54604042411498 19.844835782816713 172.6427028065919 28.318058415506542 193.63308550372338 C 36.086688027604886 205.97527185353158 38.38577462942639 225.07055030477974 50.59499530805888 233.07422589066474 Z M 267.6816468241841 374.138898002086 C 288.07650980808967 360.40181878221165 259.2732111024419 368.15537033188787 267.6816468241841 374.138898002086 Z M 283.3207544673379 380.48796052038836 C 293.5831143263756 371.3491489585554 276.8315956183891 378.58322341659675 283.3207544673379 380.48796052038836 Z M 76.06091936307145 242.56895779099534 C 78.99033451332811 238.04767960301947 68.47773874715764 241.9917936417137 76.06091936307145 242.56895779099534 Z M 280.05764428885885 376.04359840927606 C 289.99550376860805 369.3097720236531 277.7677523359711 370.41602777417575 278.2591709574395 376.6496427839817 Z M 145.2464089045645 287.9743968289188 C 144.90337777127112 283.47234766015964 139.9900402934105 288.3591973928408 145.2464089045645 287.9743968289188 Z M 153.57124404907898 292.94785054127357 C 150.92007312116803 287.3875814734287 149.49221486984302 293.9098152544764 153.57124404907898 292.94785054127357 Z M 295.993526908363 380.64186606731676 C 308.7220330675398 371.0220721488825 288.29916176842124 378.71789994430924 293.33301987538107 382.4503846818269 Z M 291.1172509385124 378.19845954927683 C 301.5001314266493 369.1847100055479 280.17816491795844 382.19064613601046 291.1172509385124 378.19845954927683 Z M 316.0271109172458 395.39863375464216 C 322.9799629847243 390.5695077762094 307.5632243896264 393.8402391763407 316.0271109172458 395.39863375464216 Z M 82.43903514412888 239.39444488014465 C 91.76509682944797 241.55888383315133 119.7247511314002 263.23230037505436 103.23266297947966 240.89511570419728 C 94.88929708096022 238.29776694262713 99.84889071576384 216.87451113353526 91.2366166999701 220.65506841909192 C 97.02146544060187 230.6885431268735 95.99237204072175 234.94046825942362 83.84807972917454 228.63951498576188 C 68.59825937625698 220.9051924553014 75.27286722139004 232.45856700635082 78.26735219486935 235.66196014262687 C 74.18832301563324 236.6239248558296 83.64409997898514 239.31749210668028 82.43903514412888 239.50989238864102 Z M 39.93387059757589 204.57078282215858 C 41.60262865096223 197.39441377006432 24.544857405416945 165.1296240869161 31.868607465264706 188.40952610346008 C 34.51072520037957 193.28676132653345 34.23262243417142 202.52177302934732 39.93387059757589 204.57078282215858 Z M 117.95414465905662 254.59370018903823 C 113.13346095121963 250.42834233955972 117.72243950592896 253.9972703239402 117.95414465905662 254.59370018903823 Z M 129.78327269638643 257.45078749642505 C 129.78327269638643 249.7549597009977 116.80467208621472 254.37245637825376 129.78327269638643 257.45078749642505 Z M 232.3147833412938 324.51999187004236 C 230.4605762917233 319.32529434690287 224.58307378106747 324.40454436154556 232.3147833412938 324.51999187004236 Z M 237.22812081915438 328.25247660756014 C 236.48632483441617 325.3473167521345 234.38202333385019 328.8296774534424 237.22812081915438 328.25247660756014 Z M 277.86054756213184 354.735753412079 C 281.7539862890463 351.84982257586904 272.98427159228106 354.35098954475876 277.86054756213184 354.735753412079 Z M 61.16332479238089 210.1983718055591 C 72.34345207113331 205.7059187981065 49.18580926687599 206.99497866928337 61.16332479238089 210.1983718055591 Z M 223.39653970021592 316.1892394744838 C 223.26668296604566 308.6858119610174 216.25809718041532 318.06513304945196 223.39653970021592 316.1892394744838 Z M 56.833918249875005 199.50114731712384 C 64.00928082154762 197.00001704483586 50.1870358076803 197.84655259784253 56.833918249875005 199.50114731712384 Z M 77.67394369830612 210.08292429706205 C 77.5534230692068 207.62025206320524 75.47684697157933 211.02565999104976 77.67394369830612 210.08292429706205 Z M 331.81446459243693 371.7627930513004 C 341.04815542000716 369.8195979090777 362.10135526756113 376.64002827437423 365.49432218021025 369.2231680439798 C 354.36964570733477 368.9345859693389 326.7064834694583 361.00786315691806 325.39942875950743 371.09902492234613 L 327.85623895457496 371.5030545054837 L 331.81446459243693 371.75317854169276 Z M 84.29310073756234 211.70867548752022 C 84.46001897974224 204.01282934379208 78.57318036401591 211.42007506457904 84.29310073756234 211.70867548752022 Z M 29.597387722519 172.26751675227803 C 27.112852124512944 157.7704876107699 20.141469303029588 170.07419757384577 29.597387722519 172.26751675227803 Z M 42.575988332690784 175.67292468012232 C 42.74290657487067 171.0169699644347 30.52434979116702 171.478686605219 42.575988332690784 175.67292468012232 Z M 50.03864831950518 179.48236219110416 C 47.87861310078777 177.55839606809693 48.37003172225623 181.76224865260812 50.03864831950518 179.48236219110416 Z M 97.03999619460659 210.7466924260169 C 99.26481832427179 208.63034436934944 91.80215833745744 209.18827949941496 97.03999619460659 210.7466924260169 Z M 44.98625945854054 170.90152245593777 C 43.716266256599106 159.9541922795939 29.83828752458027 169.266138407571 44.98625945854054 170.90152245593777 Z M 18.1019547134115 152.85479434926478 C 17.73105672104238 147.80438786344598 15.487703837372436 154.75949475645524 18.1019547134115 152.85479434926478 Z M 21.995534896463074 149.737968496061 C 21.346534137885765 143.7448263162551 18.565506475804227 150.4883039080873 21.995534896463074 149.737968496061 Z M 44.01289977681206 163.36921471704625 C 53.32976681319731 159.57900622528024 27.047923757427714 155.5194813746908 42.11243657029807 162.65733734345108 Z M 338.8137142729959 352.27311787482336 C 344.77467590474123 346.5012195058018 331.2492058672244 350.5222863179595 338.8137142729959 352.27311787482336 Z M 374.4125658212881 371.51270571169306 C 376.80430619313347 364.20164178358556 368.38653436632 372.47467042489603 374.4125658212881 371.51270571169306 Z M 46.23786336261458 151.4118105828592 C 47.2204176932768 144.32202716213786 38.84918493568166 152.82591412384016 46.23786336261458 151.4118105828592 Z M 14.903631445880364 129.62298322906108 C 13.234873392494016 119.61838874670468 13.45738389668802 102.04302848702538 29.55099010943849 107.9784469125829 C 8.071300007501089 112.40354330787862 44.430053926124245 135.6834269761218 39.748421601391364 117.309658756377 C 48.787185871568425 117.77137539716136 57.427326746438105 111.76861870774756 52.68076605461998 120.86893553454799 C 70.48005037262877 118.94500610814221 82.82832243436546 102.81259291826727 100.02500360687735 105.06363585094792 C 113.42089982249901 103.21662250140477 128.06825848605706 101.82178467624098 142.50230129435485 96.21344306035674 C 154.36849083969406 95.32839442401642 165.7989954817163 82.07233425734518 159.18931600366872 74.20333519917259 C 143.00291456475696 72.77961714858391 126.05661075551467 74.87671783773486 108.173867316416 78.58035904642905 C 88.35359916279376 82.85154989479669 70.3503350945959 90.97063629257704 50.34461794478915 94.45299699388538 C 30.839514065384552 97.17540777355957 54.25672888184531 101.9372321847379 48.67600134754024 103.11082619911716 C 38.50629525852572 106.76635816317082 60.727498432926545 109.23860821003414 47.3594690763809 113.11538398487208 C 39.05316468587097 111.48003663310702 30.394634513134 108.51715302343288 33.95437821182586 99.42645070624017 C 15.28372408718318 101.95646120395348 -1.1342410487185288 109.98898031866204 13.624302138867876 129.70955051213272 L 14.718182449695773 129.71916502174057 Z M 59.911720888306775 105.84285148839916 C 64.26885283375115 89.10439392381821 83.36599721277693 119.61838874670468 67.07788881104581 108.0746287052626 C 65.22368176147481 106.55469216539278 61.9327047239201 105.332988906373 59.911720888306775 105.84285148839916 Z M 60.76470139707345 97.72372839401723 C 67.0685527059747 92.8464931709437 64.12060680171335 100.46536819290714 60.76470139707345 97.72372839401723 Z M 68.78356691630418 97.85840492172967 C 69.35830320272515 90.16257712630232 87.15758752073393 101.9372321847379 71.71312352269823 100.62892494604445 Z M 79.75985590100477 93.27940297950607 C 83.77395671315554 88.41178226604029 80.92785922785139 97.58905186630473 79.75985590100477 93.27940297950607 Z M 82.56875042216195 91.32655663107386 C 89.24349972343242 83.00545544172464 120.36441578490643 86.00683378643153 97.58686562195182 90.50888295519125 C 91.46846330923506 85.73748073100667 86.80536173850687 93.31786101793722 82.56875042216195 91.32655663107386 Z M 123.1734517622012 84.8332030754508 C 122.17222522139694 62.092025518057426 143.36447645205516 92.91383143479992 123.1734517622012 84.8332030754508 Z M 134.69661017424698 84.76586481159448 C 138.91469073658712 73.2221414667541 151.0589830481345 80.16763385015526 136.55067576768056 82.45713482126703 C 136.85664539296454 83.68845258989471 136.12432696943458 88.38290204061526 134.69661017424698 84.76586481159448 Z M 41.685946315914755 145.53411591154972 C 54.27525963584997 137.53044032566467 28.336589169511264 138.5886235281491 41.685946315914755 145.53411591154972 Z M 51.00281335230006 148.20841744658372 C 55.415537559758484 143.3407967331179 41.39864890077296 146.2363420789358 51.00281335230006 148.20841744658372 Z M 23.849600489896552 128.09343217958317 C 31.043493815573868 122.35041403598667 15.320785595192579 125.90972751075898 23.849600489896552 128.09343217958317 Z M 395.59533949073824 369.41556832594046 C 395.8086553459983 362.7586947137817 390.0980710775222 372.3014991621501 395.59533949073824 369.41556832594046 Z M 357.8183463381357 342.67255297560445 C 358.89369589495885 335.015183218608 352.960459666152 343.34593561416665 357.8183463381357 342.67255297560445 Z M 405.9782199788753 372.01291708751006 C 416.0368829999989 372.0514118225428 436.45041819404673 368.7614147065937 414.5719632406644 368.77106591280295 C 411.1419348200056 369.3193865332604 394.5663875469949 369.2135535343715 405.9782199788753 372.01291708751006 Z M 59.39257686389992 143.50435348625527 C 67.5321044683675 142.9271526403726 72.12094156693922 134.1923706616767 57.81661403667457 134.6926187340954 C 35.641667019216925 132.3165137833101 77.28465640806968 142.5808468114835 54.97065800750779 139.63719222102534 C 51.96697838509491 141.70541268475125 59.21646397278645 144.08151763553613 59.39257686389992 143.50435348625527 Z M 66.55874478663888 147.2752962622043 C 65.7057642778724 141.85935492828077 64.03714768062348 150.16122709841423 66.55874478663888 147.2752962622043 Z M 75.0690289273382 123.74528855775152 C 78.5917111180206 119.19513014435138 70.17422220348232 122.53319980833973 75.0690289273382 123.74528855775152 Z M 47.99913372988714 76.8006839607422 C 62.53530786941694 71.68293921106711 82.29998376102493 65.93030655786261 89.25283582850354 79.33069445845543 C 82.27211690194913 70.61514149897528 86.4346052022752 62.03430176380902 93.02589538245566 74.78053604505517 C 102.35195706777473 87.67106136362179 106.93159951741295 69.0086376760335 100.9521071316629 64.58354128073792 C 107.86789769113213 73.49149452217904 115.7199864243204 77.70492491969661 105.5873418433153 65.16074212662059 C 116.71187686005376 51.404433887530985 83.52357934988586 66.9596462315232 75.99599099598606 66.79608947838572 C 72.28785980911913 68.47954607479154 38.63601053655877 75.72327173904247 47.99913372988714 76.8006839607422 Z M 56.52809008072847 59.889091830017534 C 64.81586371723378 53.40535278400231 85.26646041929096 63.75625309524763 72.10241081293454 53.44381082243356 C 70.82308150592219 52.27021680805426 43.475224998400435 61.274315145573304 56.52809008072847 59.889091830017534 Z M 86.74976947649262 61.18778455910312 C 96.4373930491098 61.437871898710846 82.57808652723313 47.66233464040548 94.11977569328354 53.90556415981932 C 92.22864859184061 47.47954886805244 80.67762332071901 46.27707462824808 75.02263131425765 43.70860609210358 C 71.82430804672647 49.48046776452372 81.51193161934353 61.26470063596551 86.75896412542647 61.18778455910312 Z M 61.840050953896515 32.73239569033498 C 65.19595635853656 27.922498731117603 55.953212338170005 35.13734416994358 61.840050953896515 32.73239569033498 Z M 74.18832301563324 35.81076350510748 C 89.81823600985345 33.6655168747144 70.20194760642075 28.836390896281443 71.03625590504512 35.637592242362174 Z M 51.132670086470476 17.10023057287868 C 40.128514242694116 2.189557338625277 71.83364415179744 19.60139754176856 60.64418076797401 3.988461443527867 C 51.234659961565136 -3.78431912536358 42.1032419213644 12.646290648759674 51.132670086470476 17.10023057287868 Z M 192.32173833954758 96.01139157218653 C 197.3649325515787 86.73794017924233 171.4911904523246 83.50570351414326 188.92877142689807 92.7406968686562 C 190.53260111319946 93.28901748911386 190.17103922590124 96.66554519153317 192.32173833954758 96.01139157218653 Z M 451.95995201530485 98.46448599303736 C 450.2262655948337 105.56388392336645 449.1602521430813 117.4635643033053 448.7522926427029 134.05769413396433 C 448.7522926427029 137.32842553409606 447.3247173036525 138.98303860167826 444.46928371327704 138.98303860167826 C 441.6141330351767 138.98303860167826 439.6210160586391 137.54005483527274 438.49926888873574 134.6926187340954 C 435.43985554817186 126.96791071324294 432.5476433620615 121.58084960474464 429.7850049978475 118.50248178997225 C 426.5216119070938 114.9143247863763 422.1831521717913 112.730620117552 416.78773217753354 111.99951372474122 C 410.97501657782544 111.03754901153842 396.50405371765623 110.55652995833529 373.36494166740357 110.55652995833529 C 368.0623168993061 110.55652995833529 364.5949440583634 111.1337308042181 362.98206117926605 112.30732481859725 C 362.05495765448046 113.04808241761742 361.4523545089839 114.63535722134354 361.4523545089839 117.06914922977586 L 361.4523545089839 188.9482322143098 C 361.4523545089839 191.38204257104286 362.9356635661855 192.53642591450716 365.87427336537576 192.4402257735268 L 405.32950213257254 190.5355070180359 C 408.6947436422835 190.10261555777444 410.9659633850296 188.97709409143397 412.1338252557386 187.1204845805839 C 413.301970038723 185.26385672143303 414.4514426115649 180.3866214983592 415.5641365886726 172.75815031508884 C 416.2779242581979 168.5254175051525 418.6696646300425 166.98625194606691 422.7486938092786 167.94825335587154 C 426.21578373794716 168.68893756168842 427.69909279514883 170.3243216100552 427.1983380686091 172.75815031508884 C 424.34318739050866 187.14934645770822 423.4160838657231 205.86945720294335 424.4359826166702 228.93771157000984 C 424.5471671406984 231.6793513688995 422.8598783333072 233.17044437994613 419.39278840463874 233.38207368112282 C 416.53735481426355 233.69953598118795 414.7575536929867 232.11226117746176 414.0437660234614 228.62028596654605 C 411.40164828834645 215.40268383830596 406.4696386003437 208.41869671987234 399.21095836371836 207.42787012954528 C 391.95227812709356 206.43702519091735 380.3177937348824 206.08108650411964 364.1128615419658 206.08108650411964 C 362.2773267025372 206.08108650411964 361.36889538789376 206.75448749098274 361.36889538789376 208.13972915483964 L 361.36889538789376 279.547462640681 C 361.36889538789376 284.83834195649985 363.2508278404031 288.4361501663049 366.9312336243314 290.3216215542788 C 369.89785173873514 291.90889635800494 376.2664899585839 293.34222891820156 386.046767301225 294.6120414218624 C 391.0529000052463 295.1411330231041 393.23132452183114 297.4210194846082 392.53620906244817 301.3459045040866 C 391.915216619084 304.83791641160434 387.4372811322657 306.21352521755284 379.0755259358791 305.4824188247417 C 354.91651513468 303.55845270173455 334.9850624570297 303.57771841755164 319.28088499065325 305.7998811248074 C 314.89602764227106 306.42515451872936 312.7917261417051 304.5781778657879 312.7917261417051 300.2492632631714 C 312.7917261417051 297.49800895467365 314.9794867633604 295.9203486605555 319.28088499065325 295.4874755485947 C 329.2744781885542 294.33307385682934 334.2619386824333 285.22314252042133 334.2619386824333 268.1961028811996 L 334.2619386824333 132.36458633134922 C 334.2619386824333 125.39025041912461 333.05701530371516 120.0224183298419 330.67432812466586 116.26109006350075 C 328.2919238578919 112.4997617971599 323.81427128334883 109.0847026631062 317.2971041191869 106.0256005641507 C 313.21807493995067 104.12090015696063 311.6883682696683 101.53316590499907 312.7082670206151 98.25281999525929 C 313.21807493995067 96.25190109878793 314.0339939407079 95.13603083865708 315.1464050055408 94.92436484087892 C 316.0732256180514 94.60693923741506 318.872925490275 94.8281830481994 323.2487296458613 95.55928944100998 C 329.6731015838618 96.52125415421285 344.8210735178221 97.14656424473621 368.6739732375992 97.14656424473621 L 441.63252233304394 95.2418271409445 C 448.45580057862725 94.8089173323822 451.876492894215 95.39576938447418 451.876492894215 96.97339298199088 C 451.876492894215 97.4063027905533 451.82075917606363 97.81994688329843 451.7189107571059 98.2432054856514 Z M 551.1354157994348 299.9029574342822 C 551.1354157994348 304.1356535476171 548.8455238465466 305.98266689716036 544.2566867479749 305.45357529591826 C 530.1934004759089 304.077929793369 512.764872694132 304.29917360415294 491.9711034026434 306.0788486898403 C 487.79956190952134 306.51175849840297 485.22223108535434 306.3963109899054 484.2396767546922 305.77100089938216 C 483.2571224240303 305.1457275054605 482.7934292054998 303.39493264519894 482.7934292054998 300.5282308282041 C 482.7934292054998 297.998220330491 485.5747397798557 295.8530103966991 491.11840580615205 294.1022155364374 C 496.6620718324476 292.3514206761752 499.46177170467155 287.1471086434287 499.46177170467155 278.4796649285888 L 499.46177170467155 134.87536780984686 C 499.46177170467155 126.21753860461526 498.25656541367766 120.01280382023407 495.87416114690427 115.98212249846831 C 493.4914739678547 111.95140448010072 489.26419875658104 108.84419313650463 483.26617561682616 106.63168163545822 C 480.11424996237486 105.47727994369303 478.5197563811455 103.82270357271234 478.5197563811455 101.70633716774415 C 478.5197563811455 98.5317875602921 480.8096483340332 96.15568260950671 485.3984854326052 94.56844450238222 C 492.3326652899422 92.24044879623759 499.52655861561874 88.6522550960402 506.9708293045663 83.77505656956819 C 513.0893730734199 79.96558236198496 516.9644225024665 78.07049646440265 518.5869243989105 78.07049646440265 C 522.3598424967257 78.07049646440265 524.1489797230743 80.76402701865186 524.1489797230743 86.15112482375191 C 523.9212353417946 91.4411234211333 523.7141435565811 96.73203943355364 523.5279872797103 102.02376277120817 L 523.2312123033599 132.97066740265683 L 523.8338154488565 274.670227417607 C 523.8338154488565 281.11547172859 525.3635221191389 285.809957875912 528.422652547428 288.71511773133705 C 531.4820658879928 291.62031428336434 536.738293043009 293.55389491597964 544.1825637319563 294.4870161003589 C 548.771400830528 295.0160710049995 551.0612927834161 296.8149751099022 551.0612927834161 299.87407720885795 Z M 689.4506611642705 290.54290206166473 C 689.4506611642705 292.7554502593125 685.5572224373551 296.12236345212415 677.7700620712524 300.61479811127595 C 669.9829017051493 305.1072694670293 663.7251650970534 307.34866119350056 659.0438156845962 307.34866119350056 C 655.0572988192464 307.34866119350056 651.5531473825681 305.34774229702936 648.4940169542782 301.31706097526336 C 645.4346036137146 297.28634295689574 643.2839045000668 295.2950752666337 642.0693621040022 295.2950752666337 C 641.142258579217 295.2950752666337 636.3217163275173 297.46912872924884 627.5426655256817 301.79804333186473 C 618.7633318115694 306.12695793448063 609.9565556067955 308.31062590670336 601.0940456838694 308.31062590670336 C 592.7506797853496 308.31062590670336 585.7514301047898 305.76138638977443 580.1426942552716 300.61479811127595 C 574.0241504864177 295.0064564953917 570.8722248319672 287.3875814734287 570.8722248319672 277.7581730453859 C 570.8722248319672 259.4517063928963 591.0633909779584 246.33993726354535 631.4361042525953 238.31703265844433 C 638.3612309171364 236.9413871558949 641.8840545639558 234.02661279086158 641.9768497901165 229.5918651893569 L 642.2826779592637 219.43336516007216 C 642.8946172098308 202.08888156908583 635.5151334318313 193.41182334463826 620.1077309418055 193.41182334463826 C 615.7225906811473 193.41182334463826 611.5787745909645 197.4809994014371 607.6389382509692 205.62896602464275 C 603.6988189986995 213.77691429954743 598.0903660614558 218.16355265641153 590.7482267037416 218.80809176615034 C 582.4045778929462 219.64499446124884 578.2050280846112 215.99911370340445 578.2050280846112 207.84151422229024 C 578.2050280846112 202.76226420764803 584.416367079627 196.8460931496066 596.8664875603208 190.06413917104234 C 609.9194940987855 182.98397025992895 622.4530737005692 179.4342712947642 634.4861814880879 179.4342712947642 C 655.1778194483448 179.4342712947642 665.4217900095163 189.65049507829718 665.2178102593263 210.06369527784673 L 664.5968178159632 275.43017733924125 C 664.5040225898013 282.3083314587864 667.3037224620257 285.74261961205576 673.0049706254297 285.74261961205576 C 674.1173816902628 285.74261961205576 676.27741690898 285.4828810662386 679.4293425634309 284.9537894649963 L 684.9452831867877 284.1649593179373 C 687.8935120033238 284.1649593179373 689.3765381482505 286.23321647826486 689.3765381482505 290.3601162893119 Z M 642.3568009752819 254.37245637825376 C 642.4495962014423 251.7269983720438 641.8653823538131 249.9762035117818 640.5028768379857 249.13930081668377 C 639.1398054976091 248.30236142498345 637.2210944493651 248.12922685884004 634.4768453830187 248.65831846008223 C 609.9101579937158 253.2084768734826 597.6176196501301 261.51996355322376 597.6176196501301 273.6697679693719 C 597.6176196501301 285.8195723855198 603.9862578699787 291.9185108676127 616.7331533270233 291.9185108676127 C 621.8320812572053 291.9185108676127 627.088308412222 290.9180514193771 632.4930645115511 288.9075180132984 C 638.8246412233913 286.5699077975462 641.9768497901165 283.7705442444075 641.9768497901165 280.49019833466815 L 642.2826779592637 254.46867486753516 Z M 803.1253790360585 272.3903409561034 C 803.1253790360585 283.607024187872 798.9535546306608 292.52455524231885 790.6565863452217 299.1333563064387 C 782.3593351475084 305.74215737055897 771.0122896265764 308.94555050683454 756.6338390802916 308.94555050683454 C 746.9706874194522 308.9365598394529 737.3349782492759 307.87254187732185 727.8859911805212 305.77100089938216 C 719.542908194276 303.86630049219235 714.8332675543297 302.1155056319302 713.5168767393079 300.5378453378121 C 712.7009577385506 299.0467890233674 712.2932811504475 291.81271456532556 712.2932811504475 278.79712722865446 C 712.2932811504475 273.18878561277035 713.5168767393079 270.2835890607433 715.9643508293044 270.07195975956654 C 718.4118249193014 269.7544974595007 720.5995855409576 271.03392447276957 722.231140630197 274.18924506100564 C 729.8793910693331 288.04173509277507 742.2183270259992 294.96799845696046 759.2388953073972 294.96799845696046 C 773.6080097486101 294.96799845696046 780.7928498814921 289.77330093382125 780.7928498814921 279.40317160336076 C 780.7928498814921 274.8626276995682 779.1703479850486 271.05319018858677 775.8979017014982 267.9844735800231 C 772.3286804415977 264.4924983691071 765.4038366893323 260.4137078027003 755.1044153222847 255.76733090001912 C 740.2158739443903 248.8891767804741 730.2780144646413 242.8768055814526 725.28121786569 237.68210805831322 C 719.8764617663608 232.17959944131795 717.1788932253696 224.79158273974693 717.1788932253696 215.5565893852341 C 717.1788932253696 204.1282768522893 721.4061684366434 195.355018486861 729.8793910693331 188.90975582757778 C 737.7313383463843 182.77234095875255 748.2347394636214 179.7036243501891 761.3709222109018 179.7036243501891 C 768.9634389318862 179.6355154577002 776.5443562496014 180.32489781454112 784.0095624468898 181.76224865260812 C 791.3517018046056 183.13789415515762 795.1713004277753 184.82135075156364 795.4771285969223 186.84149866725028 C 796.283711492608 192.75768807359262 797.9803364050699 201.3289132991507 800.520322808953 212.55521104052747 C 800.826150978099 213.92124203346899 799.3892395339782 215.03711229360005 796.2373138795272 215.8836661949074 C 792.8720723698167 216.62438709732638 790.6285780300087 216.0375717418356 789.5071137723797 214.152100353861 C 781.4602399379361 200.49199225575185 771.2626669898463 193.68117640006344 758.9143949281084 193.68117640006344 C 744.952957075 193.68117640006344 737.9633264117872 198.33716781235233 737.9633264117872 207.64911394032939 C 737.9633264117872 212.84379311516753 739.8543120570923 216.96107841660742 743.52538173595 220.02018051556263 C 746.8906232456617 222.66560182517125 754.7889681357922 226.80211614582615 767.2300354236903 232.41045776171057 C 780.2827590498805 238.23042867877095 789.1455518850828 243.47323544655114 793.8362374026111 248.1099611430228 C 799.9547811714663 254.14159805786173 803.1067068259154 262.25106994603425 803.1067068259154 272.3903409561034 Z M 983.018826878799 300.15304477388986 C 983.018826878799 303.85668598258445 980.6084142968109 305.9249431429119 975.8249335531216 305.9249431429119 L 947.8466070410276 307.5122179466378 C 942.1360227725506 308.6665829418017 938.0569935933152 307.94509105859913 935.6095195033186 305.2996330523888 C 919.4973825365637 287.3106286999646 905.8327196598052 268.4846849558406 894.6339201709102 248.80260949740253 C 893.7070995583995 247.11915290099677 892.5482908804861 246.2629844900812 891.1113794363645 246.2629844900812 C 889.3776930158937 246.2629844900812 886.4761447247132 247.85022259720586 882.1003405691265 251.02477220465798 C 877.2981876152937 253.76641200354769 874.9064472434488 257.6912970230265 874.9064472434488 262.7609325280608 L 875.2125583248699 278.32575938166076 C 875.4162551627846 285.08846599270885 877.0387570592278 289.5327914072199 880.0978874875171 291.649157812188 C 882.2301973032964 293.14021412663277 887.1899323942379 294.2946158183984 894.9306951472605 295.1411330231041 C 899.7235119960211 295.776057623235 902.1245884729383 297.64229999199404 902.1245884729383 300.6917508847404 C 902.1245884729383 303.1255795897742 901.7536904805688 304.53968313075444 900.9751159000954 305.21306576931676 C 900.1965413196228 305.88644840787885 898.1940882380139 305.9249431429119 894.9306951472605 305.5978663332389 C 884.7331221991695 304.6358649234339 867.5088570798571 305.17460773088544 843.2479978596998 307.18514113696466 C 837.1294540908463 307.71423273820653 833.8196633870112 306.9157880815401 833.309855467676 304.80903618617947 C 833.1061586297612 304.06831528376097 833.0040272985294 303.01013208127694 833.0040272985294 301.6345232753288 C 833.0040272985294 298.3637918751971 836.1188914449708 295.86262490630713 842.3392836327816 294.1887828195092 C 847.9480194823002 292.6977265050642 850.7477193545237 285.87729613976813 850.7477193545237 273.7178772140122 L 850.7477193545237 135.01965884716714 C 850.7477193545237 126.36186633853677 849.931800353767 120.32061491409019 848.2911920717313 116.93447270206332 C 846.0476977319236 112.60555809944722 841.3567293021193 109.20976468121063 834.2185696945937 106.77597267277852 C 830.8626642899544 105.6215709810133 829.1753754825629 103.89000513996689 829.1753754825629 101.96607571356131 C 829.1753754825629 98.88774459539034 831.5857880645499 96.51163964460515 836.3599327031695 94.8281830481994 C 844.0644826850073 92.13237730465367 851.4139777618692 88.4483320811906 858.2383876565517 83.86158715603842 C 863.8468405937953 80.06180085126618 867.3232666275351 78.14744923786681 868.6212681446895 78.14744923786681 C 872.8114818479538 78.14744923786681 874.8973940506525 80.88908903675652 874.8973940506525 86.40121216335963 C 874.8973940506525 85.65091344793473 874.8416603325012 90.89368351911304 874.7395290012687 102.10075224127385 L 874.5912829692313 133.21117692925824 L 874.8973940506525 232.53551977981508 C 874.8973940506525 235.28677408831263 875.6111817201771 236.6528050812546 877.0294209541568 236.6528050812546 C 878.5591276244388 236.6528050812546 880.9044703832038 235.28677408831263 884.0750682477963 232.53551977981508 L 915.2610541324933 205.5616277607864 C 917.7175814152858 202.91618810287673 918.9321238113515 200.7998216979088 918.9321238113515 199.21256524248355 C 918.9321238113515 196.36511079300521 914.8066970190342 194.34494452901757 906.5558434344003 193.19056118555315 C 902.9866221745002 192.75768807359262 901.2996162793847 190.6894309132651 901.5035960295729 186.99542256247918 C 901.8094241987197 183.2917997020859 903.5985614250682 181.70454324666036 906.8526184107511 182.2336164996017 C 914.2040938735372 183.19559956110544 924.9021386358921 183.86898219966767 938.9654249079579 183.98442970816424 L 968.1673470089133 184.13833525509276 C 971.3195555756382 184.23453539607297 972.8025817205659 186.19697790581213 972.8025817205659 189.9102152758136 C 972.8025817205659 193.49840897601084 970.2996568246925 195.46083313744924 965.3121963308129 195.6820952965347 C 957.4506300364155 195.98992473869166 950.0620930656212 197.83693808823458 943.1372493133563 201.23271315817024 C 933.4494842846005 205.77325706196268 923.0943291994016 213.7672997899393 912.0811201628292 225.28221630255808 C 911.2745372671428 225.91710420608754 910.8572416616939 226.7251633723619 910.8572416616939 227.65828455674182 C 910.8572416616939 229.1397263615784 912.5909280821653 232.6894620233446 916.067354115905 238.29776694262713 C 928.8051963801527 258.49935618930147 940.838021255396 273.5735861766917 952.1480052683194 283.83788250826393 C 959.3789601020062 290.2831635158478 966.1648939273055 293.5154001809469 972.4783642535518 293.5154001809469 C 977.1690497710808 293.5154001809469 980.0799341673337 293.852091500228 981.19262814444 294.55435436421527 C 982.3050392092729 295.2565805316012 982.8796340395575 297.0554846365041 982.8796340395575 300.0183682461775 Z" stroke-linejoin="miter" stroke-linecap="butt" fill-rule="nonzero" fill="#ff0000" stroke="none"/></g></svg><svg id="kqjn8klguv" height="634.9606475830078" overflow="visible" v:setup="{&quot;paper&quot;:&quot;CUSTOM&quot;,&quot;unit&quot;:&quot;px&quot;,&quot;scale&quot;:{&quot;from&quot;:1,&quot;to&quot;:1},&quot;width&quot;:&quot;297mm&quot;,&quot;height&quot;:&quot;210mm&quot;}" viewBox="0 0 1122.5197162628174 793.7008094787598" width="898.015773010254" class="" style="display: none;"/><svg id="kqdsjzdi13d" height="476.22048568725586" overflow="visible" v:setup="{&quot;paper&quot;:&quot;CUSTOM&quot;,&quot;unit&quot;:&quot;px&quot;,&quot;scale&quot;:{&quot;from&quot;:1,&quot;to&quot;:1},&quot;width&quot;:&quot;297mm&quot;,&quot;height&quot;:&quot;210mm&quot;}" viewBox="0 0 1122.5197162628174 793.7008094787598" width="673.5118297576904" class="" style="display: none;"/><svg id="kqdsk0iz14n" height="476.22048568725586" overflow="visible" v:setup="{&quot;paper&quot;:&quot;CUSTOM&quot;,&quot;unit&quot;:&quot;px&quot;,&quot;scale&quot;:{&quot;from&quot;:1,&quot;to&quot;:1},&quot;width&quot;:&quot;297mm&quot;,&quot;height&quot;:&quot;210mm&quot;}" viewBox="0 0 1122.5197162628174 793.7008094787598" width="673.5118297576904" class="" style="display: none;"/></svg>