<svg id="draw.id" overflow="visible" v:layers="{&quot;default&quot;:{&quot;name&quot;:&quot;Default&quot;,&quot;print&quot;:0,&quot;display&quot;:1,&quot;publish&quot;:0},&quot;jx575u50pt&quot;:{&quot;name&quot;:&quot;Untitled layer&quot;,&quot;print&quot;:1,&quot;display&quot;:1,&quot;publish&quot;:1}}" v:ver="2" x="500.5" xmlns="http://www.w3.org/2000/svg" xmlns:v="http://vecta.io" xmlns:xlink="http://www.w3.org/1999/xlink" y="500.5" v:stencils="{&quot;0&quot;:{&quot;id&quot;:&quot;stencil_65&quot;,&quot;expand&quot;:0,&quot;show_name&quot;:1}}"><style xmlns="http://www.w3.org/1999/xhtml"><![CDATA[#draw\.id{stroke:#000;stroke-linecap:round;stroke-linejoin:round;fill:#fff;fill-rule:evenodd;font-family:Roboto;font-size:14px;text-anchor:middle}#draw\.id text{paint-order:stroke;white-space:pre}#draw\.id .Text\.cls{stroke:none}]]></style><defs><linearGradient id="L00100100000aaff10000387f.grad" x1="0%" y1="0%" x2="100%" y2="100%"><stop offset="0%" stop-color="#00aaff" stop-opacity="1"/><stop offset="100%" stop-color="#00387f" stop-opacity="1"/></linearGradient><linearGradient id="L001001000808080100000000.grad" x1="0%" y1="0%" x2="100%" y2="100%"><stop offset="0%" stop-color="#808080" stop-opacity="1"/><stop offset="100%" stop-color="#000000" stop-opacity="1"/></linearGradient><linearGradient id="L001001000808080100100000000100.grad" x1="0%" y1="0%" x2="100%" y2="100%"><stop offset="0%" stop-color="#808080" stop-opacity="1"/><stop offset="100%" stop-color="#000000" stop-opacity="1"/></linearGradient><linearGradient id="L001001000f1a9eb100672965.grad" x1="0%" y1="0%" x2="100%" y2="100%"><stop offset="0%" stop-color="#f1a9eb" stop-opacity="1"/><stop offset="100%" stop-color="#672965" stop-opacity="1"/></linearGradient><linearGradient id="L001001000ffd194100d1913c.grad" x1="0%" y1="0%" x2="100%" y2="100%"><stop offset="0%" stop-color="#ffd194"/><stop offset="100%" stop-color="#d1913c"/></linearGradient><linearGradient id="L06710033090a4ae100ECEFF1.grad" x1="0%" y1="67%" x2="100%" y2="33%"><stop offset="0%" stop-color="#90a4ae"/><stop offset="100%" stop-color="#ECEFF1"/></linearGradient><linearGradient id="L0941006090a4ae100B0BEC5.grad" x1="0%" y1="94%" x2="100%" y2="6%"><stop offset="0%" stop-color="#90a4ae"/><stop offset="100%" stop-color="#B0BEC5"/></linearGradient><linearGradient id="L100100000578fff1008ab1ff.grad" x1="100%" y1="100%" x2="0%" y2="0%"><stop offset="0%" stop-color="#578fff"/><stop offset="100%" stop-color="#8ab1ff"/></linearGradient><linearGradient id="L10010000057c7ff1008ad8ff.grad" x1="100%" y1="100%" x2="0%" y2="0%"><stop offset="0%" stop-color="#57c7ff"/><stop offset="100%" stop-color="#8ad8ff"/></linearGradient><linearGradient id="L10010000057ffff1008affff.grad" x1="100%" y1="100%" x2="0%" y2="0%"><stop offset="0%" stop-color="#57ffff"/><stop offset="100%" stop-color="#8affff"/></linearGradient><linearGradient id="L1001000008fff57100b1ff8a.grad" x1="100%" y1="100%" x2="0%" y2="0%"><stop offset="0%" stop-color="#8fff57"/><stop offset="100%" stop-color="#b1ff8a"/></linearGradient><linearGradient id="L100100000c757ff100d88aff.grad" x1="100%" y1="100%" x2="0%" y2="0%"><stop offset="0%" stop-color="#c757ff"/><stop offset="100%" stop-color="#d88aff"/></linearGradient><linearGradient id="L100100000c7ff57100d8ff8a.grad" x1="100%" y1="100%" x2="0%" y2="0%"><stop offset="0%" stop-color="#c7ff57"/><stop offset="100%" stop-color="#d8ff8a"/></linearGradient><linearGradient id="L100100000ff578f100ff8ab1.grad" x1="100%" y1="100%" x2="0%" y2="0%"><stop offset="0%" stop-color="#ff578f"/><stop offset="100%" stop-color="#ff8ab1"/></linearGradient><linearGradient id="L100100000ff57e3100ff8aeb.grad" x1="100%" y1="100%" x2="0%" y2="0%"><stop offset="0%" stop-color="#ff57e3"/><stop offset="100%" stop-color="#ff8aeb"/></linearGradient><linearGradient id="L100100000ff7357100ff9d8a.grad" x1="100%" y1="100%" x2="0%" y2="0%"><stop offset="0%" stop-color="#ff7357"/><stop offset="100%" stop-color="#ff9d8a"/></linearGradient><linearGradient id="L100100000ffab57100ffc48a.grad" x1="100%" y1="100%" x2="0%" y2="0%"><stop offset="0%" stop-color="#ffab57"/><stop offset="100%" stop-color="#ffc48a"/></linearGradient><linearGradient id="L100100000ffe357100ffeb8a.grad" x1="100%" y1="100%" x2="0%" y2="0%"><stop offset="0%" stop-color="#ffe357"/><stop offset="100%" stop-color="#ffeb8a"/></linearGradient><linearGradient id="L100100000ffff57100ffff8a.grad" x1="100%" y1="100%" x2="0%" y2="0%"><stop offset="0%" stop-color="#ffff57"/><stop offset="100%" stop-color="#ffff8a"/></linearGradient><linearGradient id="L170831000E0E0E0100757575.grad" x1="17%" y1="0%" x2="83%" y2="100%"><stop offset="0%" stop-color="#E0E0E0"/><stop offset="100%" stop-color="#757575"/></linearGradient><linearGradient id="L5005010004387FD1004683EA.grad" x1="50%" y1="0%" x2="50%" y2="100%"><stop offset="0%" stop-color="#4387FD"/><stop offset="100%" stop-color="#4683EA"/></linearGradient><linearGradient id="L611003900000000100100808080100.grad" x1="61%" y1="100%" x2="39%" y2="0%"><stop offset="0%" stop-color="#000000" stop-opacity="1"/><stop offset="100%" stop-color="#808080" stop-opacity="1"/></linearGradient><clipPath id="jw8nw00y2b8.clip"><path d="M 0 15 C 0 6.69 6.69 0 15 0 L 399 0 C 407.31 0 414 6.69 414 15 L 414 813 C 414 821.31 407.31 828 399 828 L 15 828 C 6.69 828 0 821.31 0 813 Z" stroke="hsla(0,0%,100%,1)" stroke-width="1" transform="translate(0 0)"/></clipPath><clipPath id="jw8nwu5f2en.clip"><path d="M 480 947.0445 C 480 966 463.5 986 440.1188 986 L 40.1346 986 C 10 986 0 960 0 949.9712 L 0 39.7345 C 0 16 20 0 39.7865 0 L 130.3007 0 C 139.25 0 145 7.75 145 14.1357 L 145 14 C 145 30.62 158.38 44 175 44 L 305 44 C 321.62 44 335 30.62 335 14 L 335 13.8857 C 335 8.75 340 0 349.9493 0 L 439.7751 0 C 464.5 0 480 20.5 480 39.9367 Z" stroke="hsla(0,0%,100%,1)" stroke-width="1" transform="translate(0 0)"/></clipPath><clipPath id="jw8nxjem3h1.clip"><path d="M 0 40 C 0 17.84 17.84 0 40 0 L 374 0 C 396.16 0 414 17.84 414 40 L 414 834 C 414 856.16 396.16 874 374 874 L 40 874 C 17.84 874 0 856.16 0 834 Z" stroke="hsla(0,0%,100%,1)" transform="translate(1.1517835812563817 3)"/></clipPath><clipPath id="jw8ny4f43i0.clip"><path d="M 0 40 C 0 17.84 17.84 0 40 0 L 440 0 C 462.16 0 480 17.84 480 40 L 480 973 C 480 995.16 462.16 1013 440 1013 L 40 1013 C 17.84 1013 0 995.16 0 973 Z" stroke="hsla(0,0%,100%,1)" stroke-width="1" transform="translate(6 8.642899999999997)"/></clipPath><clipPath id="jw8o1udg4wt.clip"><path d="M 43.54657451923149 0 L 149.36523437499966 0 C 180.34197716346247 0 180.34197716346247 30.062344341105906 206.68347355769168 30.062344341105906 C 233.02496995192348 30.062344341105906 233.02496995192348 0 264.0775615985576 0 L 375.48191105769286 0 C 390.62403846153893 0 396.11487379807704 1.5754000230444005 401.65063100961584 4.533742296454201 C 407.18638822115395 7.4920414082198015 411.530851862981 11.833239608706302 414.4913762019235 17.364835963593304 C 417.45190054086584 22.896389156836005 419.02848557692346 28.383140563119007 419.02848557692346 43.51388664745901 L 419.02848557692346 839.0223144317017 C 419.02848557692346 854.1529741927511 417.45190054086584 859.6397687606808 414.4913762019235 865.171365115567 C 411.530851862981 870.7028751471631 407.18638822115395 875.0440733476512 401.65063100961584 878.0024587827053 C 396.11487379807704 880.9607578944717 390.62403846153893 882.5361579175152 375.48191105769286 882.5361579175152 L 43.54657451923149 882.5361579175152 C 28.404447115384198 882.5361579175152 22.913611778847397 880.9607578944717 17.377854567307896 878.0024587827053 C 11.842097355768498 875.0440733476512 7.497633713942099 870.7028751471631 4.537109374999999 865.171365115567 C 1.5765850360578997 859.6397687606808 0 854.1529741927511 0 839.0223144317017 L 0 43.51388664745901 C 0 28.383140563119007 1.5765850360578997 22.896389156836005 4.537109374999999 17.364835963593304 C 7.497633713942099 11.833239608706302 11.842097355768498 7.4920414082198015 17.377854567307896 4.533742296454201 C 22.913611778847397 1.5754000230444005 28.404447115384198 0 43.54657451923149 0 Z" fill="hsla(0,0%,20%,1)" stroke="none" transform="translate(0 0)"/></clipPath><clipPath id="jw8pi2jcloi.clip"><path d="M 335.8927317333333 814.0000000000001 C 362.464 814.0000000000001 376 790.972109720438 376 774.0900697557959 L 376 39.9095124786729 C 376 15.5326649749132 354.944 0.0138998239484 336.1203370666667 0.0138998239484 L 298.2586410666667 0.0138998239484 C 296.288 0.0138998239484 292.7786666666667 2.3917210306186 292.7943082666667 5.7074945327155 C 292.7786666666667 7.1475636899658 292.7786666666667 8.3184020911954 292.7786666666667 10.0259999134094 C 292.7786666666667 21.1194284391008 283.83488 30.0503002153345 272.7253333333333 30.0503002153345 L 103.2746666666667 30.0503002153345 C 92.16512 30.0503002153345 83.2213333333333 21.1194284391008 83.2213333333333 10.0259999134094 C 83.2213333333333 7.9584598941353 83.2213333333333 8.5241548630892 83.2320618666667 6.3454783100915 C 83.2213333333333 2.0162597680386 79.8373333333333 0.0138998239484 77.4965077333333 0.0138998239484 L 39.9373162666667 0.0138998239484 C 23.0613333333333 -0.4867151928249 0 12.5290749972763 0 40.0629009198122 L 0 774.0901698787992 C 0 797.9806198322619 19.552 814.0000000000001 40.107168 814.0000000000001 Z" stroke="hsla(0,0%,100%,1)" stroke-width="1" transform="translate(1.6289867642501576 1)"/></clipPath><clipPath id="jw8pmnlrt78.clip"><path d="M 369.8393 895.9999976352831 C 399.096 895.9999976352831 414 870.652297635283 414 852.0696976352831 L 414 43.9298976352831 C 414 17.097397635283 390.816 0.015297635283 370.0899 0.015297635283 L 328.4018 0.015297635283 C 326.232 0.015297635283 322.368 2.632697635283 322.3852 6.282497635283 C 322.368 7.867597635283 322.368 9.156397635283 322.368 11.035997635283 C 322.368 23.246897635283 312.5203 33.0774976352831 300.288 33.0774976352831 L 113.712 33.0774976352831 C 101.4797 33.0774976352831 91.632 23.246897635283 91.632 11.035997635283 C 91.632 8.760197635283 91.632 9.382897635283 91.6438 6.984697635283 C 91.632 2.219397635283 87.906 0.015297635283 85.3286 0.015297635283 L 43.9735 0.015297635283 C 25.392 -0.535702364717 0 13.791197635283 0 44.0986976352831 L 0 852.0697976352831 C 0 878.3668976352831 21.528 895.9999976352831 44.1606 895.9999976352831 Z" stroke="hsla(0,0%,100%,1)" stroke-width="1" transform="translate(0.9199223449481906 1.0000011823585737)"/></clipPath><clipPath id="jw8uzo6nb9b.clip"><rect x="0" y="0" width="480" height="1040" stroke-width="0.2" stroke="none" rx="40" class="" transform="translate(0.999964282226756 1.16666664971126)"/></clipPath><clipPath id="jwpugewnio.clip"><path d="M 0 0 L 375 0 L 375 667 L 0 667 Z" fill="hsla(240,8%,12%,1)" fill-opacity="1" stroke="hsla(0,0%,75%,1)" stroke-linejoin="miter" stroke-width="1" transform="translate(146.49997790527343 1)"/></clipPath><clipPath id="jwpuhbtxk8.clip"><path d="M 0 0 L 414 0 L 414 736 L 0 736 Z" stroke="hsla(0,0%,75%,1)" stroke-linejoin="miter" stroke-width="1" transform="translate(161.99995786132808 1)"/></clipPath><link rel="stylesheet" data-is-imported="true" media="" href="data:text/css,%2F*%20cyrillic-ext%20*%2F%0A%40font-face%20%7B%0A%20%20font-family%3A%20'Roboto%20Condensed'%3B%0A%20%20font-style%3A%20italic%3B%0A%20%20font-weight%3A%20400%3B%0A%20%20src%3A%20local('Roboto%20Condensed%20Italic')%2C%20local('RobotoCondensed-Italic')%2C%20url(https%3A%2F%2Ffonts.gstatic.com%2Fs%2Frobotocondensed%2Fv17%2FieVj2ZhZI2eCN5jzbjEETS9weq8-19eLAgM9UvI.woff2)%20format('woff2')%3B%0A%20%20unicode-range%3A%20U%2B0460-052F%2C%20U%2B1C80-1C88%2C%20U%2B20B4%2C%20U%2B2DE0-2DFF%2C%20U%2BA640-A69F%2C%20U%2BFE2E-FE2F%3B%0A%7D%0A%2F*%20cyrillic%20*%2F%0A%40font-face%20%7B%0A%20%20font-family%3A%20'Roboto%20Condensed'%3B%0A%20%20font-style%3A%20italic%3B%0A%20%20font-weight%3A%20400%3B%0A%20%20src%3A%20local('Roboto%20Condensed%20Italic')%2C%20local('RobotoCondensed-Italic')%2C%20url(https%3A%2F%2Ffonts.gstatic.com%2Fs%2Frobotocondensed%2Fv17%2FieVj2ZhZI2eCN5jzbjEETS9weq8-19eLCwM9UvI.woff2)%20format('woff2')%3B%0A%20%20unicode-range%3A%20U%2B0400-045F%2C%20U%2B0490-0491%2C%20U%2B04B0-04B1%2C%20U%2B2116%3B%0A%7D%0A%2F*%20greek-ext%20*%2F%0A%40font-face%20%7B%0A%20%20font-family%3A%20'Roboto%20Condensed'%3B%0A%20%20font-style%3A%20italic%3B%0A%20%20font-weight%3A%20400%3B%0A%20%20src%3A%20local('Roboto%20Condensed%20Italic')%2C%20local('RobotoCondensed-Italic')%2C%20url(https%3A%2F%2Ffonts.gstatic.com%2Fs%2Frobotocondensed%2Fv17%2FieVj2ZhZI2eCN5jzbjEETS9weq8-19eLAwM9UvI.woff2)%20format('woff2')%3B%0A%20%20unicode-range%3A%20U%2B1F00-1FFF%3B%0A%7D%0A%2F*%20greek%20*%2F%0A%40font-face%20%7B%0A%20%20font-family%3A%20'Roboto%20Condensed'%3B%0A%20%20font-style%3A%20italic%3B%0A%20%20font-weight%3A%20400%3B%0A%20%20src%3A%20local('Roboto%20Condensed%20Italic')%2C%20local('RobotoCondensed-Italic')%2C%20url(https%3A%2F%2Ffonts.gstatic.com%2Fs%2Frobotocondensed%2Fv17%2FieVj2ZhZI2eCN5jzbjEETS9weq8-19eLDAM9UvI.woff2)%20format('woff2')%3B%0A%20%20unicode-range%3A%20U%2B0370-03FF%3B%0A%7D%0A%2F*%20vietnamese%20*%2F%0A%40font-face%20%7B%0A%20%20font-family%3A%20'Roboto%20Condensed'%3B%0A%20%20font-style%3A%20italic%3B%0A%20%20font-weight%3A%20400%3B%0A%20%20src%3A%20local('Roboto%20Condensed%20Italic')%2C%20local('RobotoCondensed-Italic')%2C%20url(https%3A%2F%2Ffonts.gstatic.com%2Fs%2Frobotocondensed%2Fv17%2FieVj2ZhZI2eCN5jzbjEETS9weq8-19eLAAM9UvI.woff2)%20format('woff2')%3B%0A%20%20unicode-range%3A%20U%2B0102-0103%2C%20U%2B0110-0111%2C%20U%2B1EA0-1EF9%2C%20U%2B20AB%3B%0A%7D%0A%2F*%20latin-ext%20*%2F%0A%40font-face%20%7B%0A%20%20font-family%3A%20'Roboto%20Condensed'%3B%0A%20%20font-style%3A%20italic%3B%0A%20%20font-weight%3A%20400%3B%0A%20%20src%3A%20local('Roboto%20Condensed%20Italic')%2C%20local('RobotoCondensed-Italic')%2C%20url(https%3A%2F%2Ffonts.gstatic.com%2Fs%2Frobotocondensed%2Fv17%2FieVj2ZhZI2eCN5jzbjEETS9weq8-19eLAQM9UvI.woff2)%20format('woff2')%3B%0A%20%20unicode-range%3A%20U%2B0100-024F%2C%20U%2B0259%2C%20U%2B1E00-1EFF%2C%20U%2B2020%2C%20U%2B20A0-20AB%2C%20U%2B20AD-20CF%2C%20U%2B2113%2C%20U%2B2C60-2C7F%2C%20U%2BA720-A7FF%3B%0A%7D%0A%2F*%20latin%20*%2F%0A%40font-face%20%7B%0A%20%20font-family%3A%20'Roboto%20Condensed'%3B%0A%20%20font-style%3A%20italic%3B%0A%20%20font-weight%3A%20400%3B%0A%20%20src%3A%20local('Roboto%20Condensed%20Italic')%2C%20local('RobotoCondensed-Italic')%2C%20url(https%3A%2F%2Ffonts.gstatic.com%2Fs%2Frobotocondensed%2Fv17%2FieVj2ZhZI2eCN5jzbjEETS9weq8-19eLDwM9.woff2)%20format('woff2')%3B%0A%20%20unicode-range%3A%20U%2B0000-00FF%2C%20U%2B0131%2C%20U%2B0152-0153%2C%20U%2B02BB-02BC%2C%20U%2B02C6%2C%20U%2B02DA%2C%20U%2B02DC%2C%20U%2B2000-206F%2C%20U%2B2074%2C%20U%2B20AC%2C%20U%2B2122%2C%20U%2B2191%2C%20U%2B2193%2C%20U%2B2212%2C%20U%2B2215%2C%20U%2BFEFF%2C%20U%2BFFFD%3B%0A%7D%0A%2F*%20cyrillic-ext%20*%2F%0A%40font-face%20%7B%0A%20%20font-family%3A%20'Roboto%20Condensed'%3B%0A%20%20font-style%3A%20italic%3B%0A%20%20font-weight%3A%20700%3B%0A%20%20src%3A%20local('Roboto%20Condensed%20Bold%20Italic')%2C%20local('RobotoCondensed-BoldItalic')%2C%20url(https%3A%2F%2Ffonts.gstatic.com%2Fs%2Frobotocondensed%2Fv17%2FieVg2ZhZI2eCN5jzbjEETS9weq8-19eDtCYoYNNZQyQ.woff2)%20format('woff2')%3B%0A%20%20unicode-range%3A%20U%2B0460-052F%2C%20U%2B1C80-1C88%2C%20U%2B20B4%2C%20U%2B2DE0-2DFF%2C%20U%2BA640-A69F%2C%20U%2BFE2E-FE2F%3B%0A%7D%0A%2F*%20cyrillic%20*%2F%0A%40font-face%20%7B%0A%20%20font-family%3A%20'Roboto%20Condensed'%3B%0A%20%20font-style%3A%20italic%3B%0A%20%20font-weight%3A%20700%3B%0A%20%20src%3A%20local('Roboto%20Condensed%20Bold%20Italic')%2C%20local('RobotoCondensed-BoldItalic')%2C%20url(https%3A%2F%2Ffonts.gstatic.com%2Fs%2Frobotocondensed%2Fv17%2FieVg2ZhZI2eCN5jzbjEETS9weq8-19eDtCYoadNZQyQ.woff2)%20format('woff2')%3B%0A%20%20unicode-range%3A%20U%2B0400-045F%2C%20U%2B0490-0491%2C%20U%2B04B0-04B1%2C%20U%2B2116%3B%0A%7D%0A%2F*%20greek-ext%20*%2F%0A%40font-face%20%7B%0A%20%20font-family%3A%20'Roboto%20Condensed'%3B%0A%20%20font-style%3A%20italic%3B%0A%20%20font-weight%3A%20700%3B%0A%20%20src%3A%20local('Roboto%20Condensed%20Bold%20Italic')%2C%20local('RobotoCondensed-BoldItalic')%2C%20url(https%3A%2F%2Ffonts.gstatic.com%2Fs%2Frobotocondensed%2Fv17%2FieVg2ZhZI2eCN5jzbjEETS9weq8-19eDtCYoYdNZQyQ.woff2)%20format('woff2')%3B%0A%20%20unicode-range%3A%20U%2B1F00-1FFF%3B%0A%7D%0A%2F*%20greek%20*%2F%0A%40font-face%20%7B%0A%20%20font-family%3A%20'Roboto%20Condensed'%3B%0A%20%20font-style%3A%20italic%3B%0A%20%20font-weight%3A%20700%3B%0A%20%20src%3A%20local('Roboto%20Condensed%20Bold%20Italic')%2C%20local('RobotoCondensed-BoldItalic')%2C%20url(https%3A%2F%2Ffonts.gstatic.com%2Fs%2Frobotocondensed%2Fv17%2FieVg2ZhZI2eCN5jzbjEETS9weq8-19eDtCYobtNZQyQ.woff2)%20format('woff2')%3B%0A%20%20unicode-range%3A%20U%2B0370-03FF%3B%0A%7D%0A%2F*%20vietnamese%20*%2F%0A%40font-face%20%7B%0A%20%20font-family%3A%20'Roboto%20Condensed'%3B%0A%20%20font-style%3A%20italic%3B%0A%20%20font-weight%3A%20700%3B%0A%20%20src%3A%20local('Roboto%20Condensed%20Bold%20Italic')%2C%20local('RobotoCondensed-BoldItalic')%2C%20url(https%3A%2F%2Ffonts.gstatic.com%2Fs%2Frobotocondensed%2Fv17%2FieVg2ZhZI2eCN5jzbjEETS9weq8-19eDtCYoYtNZQyQ.woff2)%20format('woff2')%3B%0A%20%20unicode-range%3A%20U%2B0102-0103%2C%20U%2B0110-0111%2C%20U%2B1EA0-1EF9%2C%20U%2B20AB%3B%0A%7D%0A%2F*%20latin-ext%20*%2F%0A%40font-face%20%7B%0A%20%20font-family%3A%20'Roboto%20Condensed'%3B%0A%20%20font-style%3A%20italic%3B%0A%20%20font-weight%3A%20700%3B%0A%20%20src%3A%20local('Roboto%20Condensed%20Bold%20Italic')%2C%20local('RobotoCondensed-BoldItalic')%2C%20url(https%3A%2F%2Ffonts.gstatic.com%2Fs%2Frobotocondensed%2Fv17%2FieVg2ZhZI2eCN5jzbjEETS9weq8-19eDtCYoY9NZQyQ.woff2)%20format('woff2')%3B%0A%20%20unicode-range%3A%20U%2B0100-024F%2C%20U%2B0259%2C%20U%2B1E00-1EFF%2C%20U%2B2020%2C%20U%2B20A0-20AB%2C%20U%2B20AD-20CF%2C%20U%2B2113%2C%20U%2B2C60-2C7F%2C%20U%2BA720-A7FF%3B%0A%7D%0A%2F*%20latin%20*%2F%0A%40font-face%20%7B%0A%20%20font-family%3A%20'Roboto%20Condensed'%3B%0A%20%20font-style%3A%20italic%3B%0A%20%20font-weight%3A%20700%3B%0A%20%20src%3A%20local('Roboto%20Condensed%20Bold%20Italic')%2C%20local('RobotoCondensed-BoldItalic')%2C%20url(https%3A%2F%2Ffonts.gstatic.com%2Fs%2Frobotocondensed%2Fv17%2FieVg2ZhZI2eCN5jzbjEETS9weq8-19eDtCYobdNZ.woff2)%20format('woff2')%3B%0A%20%20unicode-range%3A%20U%2B0000-00FF%2C%20U%2B0131%2C%20U%2B0152-0153%2C%20U%2B02BB-02BC%2C%20U%2B02C6%2C%20U%2B02DA%2C%20U%2B02DC%2C%20U%2B2000-206F%2C%20U%2B2074%2C%20U%2B20AC%2C%20U%2B2122%2C%20U%2B2191%2C%20U%2B2193%2C%20U%2B2212%2C%20U%2B2215%2C%20U%2BFEFF%2C%20U%2BFFFD%3B%0A%7D%0A%2F*%20cyrillic-ext%20*%2F%0A%40font-face%20%7B%0A%20%20font-family%3A%20'Roboto%20Condensed'%3B%0A%20%20font-style%3A%20normal%3B%0A%20%20font-weight%3A%20400%3B%0A%20%20src%3A%20local('Roboto%20Condensed')%2C%20local('RobotoCondensed-Regular')%2C%20url(https%3A%2F%2Ffonts.gstatic.com%2Fs%2Frobotocondensed%2Fv17%2FieVl2ZhZI2eCN5jzbjEETS9weq8-19-7DRs5.woff2)%20format('woff2')%3B%0A%20%20unicode-range%3A%20U%2B0460-052F%2C%20U%2B1C80-1C88%2C%20U%2B20B4%2C%20U%2B2DE0-2DFF%2C%20U%2BA640-A69F%2C%20U%2BFE2E-FE2F%3B%0A%7D%0A%2F*%20cyrillic%20*%2F%0A%40font-face%20%7B%0A%20%20font-family%3A%20'Roboto%20Condensed'%3B%0A%20%20font-style%3A%20normal%3B%0A%20%20font-weight%3A%20400%3B%0A%20%20src%3A%20local('Roboto%20Condensed')%2C%20local('RobotoCondensed-Regular')%2C%20url(https%3A%2F%2Ffonts.gstatic.com%2Fs%2Frobotocondensed%2Fv17%2FieVl2ZhZI2eCN5jzbjEETS9weq8-19a7DRs5.woff2)%20format('woff2')%3B%0A%20%20unicode-range%3A%20U%2B0400-045F%2C%20U%2B0490-0491%2C%20U%2B04B0-04B1%2C%20U%2B2116%3B%0A%7D%0A%2F*%20greek-ext%20*%2F%0A%40font-face%20%7B%0A%20%20font-family%3A%20'Roboto%20Condensed'%3B%0A%20%20font-style%3A%20normal%3B%0A%20%20font-weight%3A%20400%3B%0A%20%20src%3A%20local('Roboto%20Condensed')%2C%20local('RobotoCondensed-Regular')%2C%20url(https%3A%2F%2Ffonts.gstatic.com%2Fs%2Frobotocondensed%2Fv17%2FieVl2ZhZI2eCN5jzbjEETS9weq8-1967DRs5.woff2)%20format('woff2')%3B%0A%20%20unicode-range%3A%20U%2B1F00-1FFF%3B%0A%7D%0A%2F*%20greek%20*%2F%0A%40font-face%20%7B%0A%20%20font-family%3A%20'Roboto%20Condensed'%3B%0A%20%20font-style%3A%20normal%3B%0A%20%20font-weight%3A%20400%3B%0A%20%20src%3A%20local('Roboto%20Condensed')%2C%20local('RobotoCondensed-Regular')%2C%20url(https%3A%2F%2Ffonts.gstatic.com%2Fs%2Frobotocondensed%2Fv17%2FieVl2ZhZI2eCN5jzbjEETS9weq8-19G7DRs5.woff2)%20format('woff2')%3B%0A%20%20unicode-range%3A%20U%2B0370-03FF%3B%0A%7D%0A%2F*%20vietnamese%20*%2F%0A%40font-face%20%7B%0A%20%20font-family%3A%20'Roboto%20Condensed'%3B%0A%20%20font-style%3A%20normal%3B%0A%20%20font-weight%3A%20400%3B%0A%20%20src%3A%20local('Roboto%20Condensed')%2C%20local('RobotoCondensed-Regular')%2C%20url(https%3A%2F%2Ffonts.gstatic.com%2Fs%2Frobotocondensed%2Fv17%2FieVl2ZhZI2eCN5jzbjEETS9weq8-1927DRs5.woff2)%20format('woff2')%3B%0A%20%20unicode-range%3A%20U%2B0102-0103%2C%20U%2B0110-0111%2C%20U%2B1EA0-1EF9%2C%20U%2B20AB%3B%0A%7D%0A%2F*%20latin-ext%20*%2F%0A%40font-face%20%7B%0A%20%20font-family%3A%20'Roboto%20Condensed'%3B%0A%20%20font-style%3A%20normal%3B%0A%20%20font-weight%3A%20400%3B%0A%20%20src%3A%20local('Roboto%20Condensed')%2C%20local('RobotoCondensed-Regular')%2C%20url(https%3A%2F%2Ffonts.gstatic.com%2Fs%2Frobotocondensed%2Fv17%2FieVl2ZhZI2eCN5jzbjEETS9weq8-19y7DRs5.woff2)%20format('woff2')%3B%0A%20%20unicode-range%3A%20U%2B0100-024F%2C%20U%2B0259%2C%20U%2B1E00-1EFF%2C%20U%2B2020%2C%20U%2B20A0-20AB%2C%20U%2B20AD-20CF%2C%20U%2B2113%2C%20U%2B2C60-2C7F%2C%20U%2BA720-A7FF%3B%0A%7D%0A%2F*%20latin%20*%2F%0A%40font-face%20%7B%0A%20%20font-family%3A%20'Roboto%20Condensed'%3B%0A%20%20font-style%3A%20normal%3B%0A%20%20font-weight%3A%20400%3B%0A%20%20src%3A%20local('Roboto%20Condensed')%2C%20local('RobotoCondensed-Regular')%2C%20url(https%3A%2F%2Ffonts.gstatic.com%2Fs%2Frobotocondensed%2Fv17%2FieVl2ZhZI2eCN5jzbjEETS9weq8-19K7DQ.woff2)%20format('woff2')%3B%0A%20%20unicode-range%3A%20U%2B0000-00FF%2C%20U%2B0131%2C%20U%2B0152-0153%2C%20U%2B02BB-02BC%2C%20U%2B02C6%2C%20U%2B02DA%2C%20U%2B02DC%2C%20U%2B2000-206F%2C%20U%2B2074%2C%20U%2B20AC%2C%20U%2B2122%2C%20U%2B2191%2C%20U%2B2193%2C%20U%2B2212%2C%20U%2B2215%2C%20U%2BFEFF%2C%20U%2BFFFD%3B%0A%7D%0A%2F*%20cyrillic-ext%20*%2F%0A%40font-face%20%7B%0A%20%20font-family%3A%20'Roboto%20Condensed'%3B%0A%20%20font-style%3A%20normal%3B%0A%20%20font-weight%3A%20700%3B%0A%20%20src%3A%20local('Roboto%20Condensed%20Bold')%2C%20local('RobotoCondensed-Bold')%2C%20url(https%3A%2F%2Ffonts.gstatic.com%2Fs%2Frobotocondensed%2Fv17%2FieVi2ZhZI2eCN5jzbjEETS9weq8-32meGCkYb8td.woff2)%20format('woff2')%3B%0A%20%20unicode-range%3A%20U%2B0460-052F%2C%20U%2B1C80-1C88%2C%20U%2B20B4%2C%20U%2B2DE0-2DFF%2C%20U%2BA640-A69F%2C%20U%2BFE2E-FE2F%3B%0A%7D%0A%2F*%20cyrillic%20*%2F%0A%40font-face%20%7B%0A%20%20font-family%3A%20'Roboto%20Condensed'%3B%0A%20%20font-style%3A%20normal%3B%0A%20%20font-weight%3A%20700%3B%0A%20%20src%3A%20local('Roboto%20Condensed%20Bold')%2C%20local('RobotoCondensed-Bold')%2C%20url(https%3A%2F%2Ffonts.gstatic.com%2Fs%2Frobotocondensed%2Fv17%2FieVi2ZhZI2eCN5jzbjEETS9weq8-32meGCAYb8td.woff2)%20format('woff2')%3B%0A%20%20unicode-range%3A%20U%2B0400-045F%2C%20U%2B0490-0491%2C%20U%2B04B0-04B1%2C%20U%2B2116%3B%0A%7D%0A%2F*%20greek-ext%20*%2F%0A%40font-face%20%7B%0A%20%20font-family%3A%20'Roboto%20Condensed'%3B%0A%20%20font-style%3A%20normal%3B%0A%20%20font-weight%3A%20700%3B%0A%20%20src%3A%20local('Roboto%20Condensed%20Bold')%2C%20local('RobotoCondensed-Bold')%2C%20url(https%3A%2F%2Ffonts.gstatic.com%2Fs%2Frobotocondensed%2Fv17%2FieVi2ZhZI2eCN5jzbjEETS9weq8-32meGCgYb8td.woff2)%20format('woff2')%3B%0A%20%20unicode-range%3A%20U%2B1F00-1FFF%3B%0A%7D%0A%2F*%20greek%20*%2F%0A%40font-face%20%7B%0A%20%20font-family%3A%20'Roboto%20Condensed'%3B%0A%20%20font-style%3A%20normal%3B%0A%20%20font-weight%3A%20700%3B%0A%20%20src%3A%20local('Roboto%20Condensed%20Bold')%2C%20local('RobotoCondensed-Bold')%2C%20url(https%3A%2F%2Ffonts.gstatic.com%2Fs%2Frobotocondensed%2Fv17%2FieVi2ZhZI2eCN5jzbjEETS9weq8-32meGCcYb8td.woff2)%20format('woff2')%3B%0A%20%20unicode-range%3A%20U%2B0370-03FF%3B%0A%7D%0A%2F*%20vietnamese%20*%2F%0A%40font-face%20%7B%0A%20%20font-family%3A%20'Roboto%20Condensed'%3B%0A%20%20font-style%3A%20normal%3B%0A%20%20font-weight%3A%20700%3B%0A%20%20src%3A%20local('Roboto%20Condensed%20Bold')%2C%20local('RobotoCondensed-Bold')%2C%20url(https%3A%2F%2Ffonts.gstatic.com%2Fs%2Frobotocondensed%2Fv17%2FieVi2ZhZI2eCN5jzbjEETS9weq8-32meGCsYb8td.woff2)%20format('woff2')%3B%0A%20%20unicode-range%3A%20U%2B0102-0103%2C%20U%2B0110-0111%2C%20U%2B1EA0-1EF9%2C%20U%2B20AB%3B%0A%7D%0A%2F*%20latin-ext%20*%2F%0A%40font-face%20%7B%0A%20%20font-family%3A%20'Roboto%20Condensed'%3B%0A%20%20font-style%3A%20normal%3B%0A%20%20font-weight%3A%20700%3B%0A%20%20src%3A%20local('Roboto%20Condensed%20Bold')%2C%20local('RobotoCondensed-Bold')%2C%20url(https%3A%2F%2Ffonts.gstatic.com%2Fs%2Frobotocondensed%2Fv17%2FieVi2ZhZI2eCN5jzbjEETS9weq8-32meGCoYb8td.woff2)%20format('woff2')%3B%0A%20%20unicode-range%3A%20U%2B0100-024F%2C%20U%2B0259%2C%20U%2B1E00-1EFF%2C%20U%2B2020%2C%20U%2B20A0-20AB%2C%20U%2B20AD-20CF%2C%20U%2B2113%2C%20U%2B2C60-2C7F%2C%20U%2BA720-A7FF%3B%0A%7D%0A%2F*%20latin%20*%2F%0A%40font-face%20%7B%0A%20%20font-family%3A%20'Roboto%20Condensed'%3B%0A%20%20font-style%3A%20normal%3B%0A%20%20font-weight%3A%20700%3B%0A%20%20src%3A%20local('Roboto%20Condensed%20Bold')%2C%20local('RobotoCondensed-Bold')%2C%20url(https%3A%2F%2Ffonts.gstatic.com%2Fs%2Frobotocondensed%2Fv17%2FieVi2ZhZI2eCN5jzbjEETS9weq8-32meGCQYbw.woff2)%20format('woff2')%3B%0A%20%20unicode-range%3A%20U%2B0000-00FF%2C%20U%2B0131%2C%20U%2B0152-0153%2C%20U%2B02BB-02BC%2C%20U%2B02C6%2C%20U%2B02DA%2C%20U%2B02DC%2C%20U%2B2000-206F%2C%20U%2B2074%2C%20U%2B20AC%2C%20U%2B2122%2C%20U%2B2191%2C%20U%2B2193%2C%20U%2B2212%2C%20U%2B2215%2C%20U%2BFEFF%2C%20U%2BFFFD%3B%0A%7D%0A"/><g id="many.end"><path d="M -5 0 L 0 7.5 L 5 0" fill="none"/></g><link rel="stylesheet" data-is-imported="true" media="" href="data:text/css,%2F*%20cyrillic-ext%20*%2F%0A%40font-face%20%7B%0A%20%20font-family%3A%20'Roboto%20Condensed'%3B%0A%20%20font-style%3A%20italic%3B%0A%20%20font-weight%3A%20400%3B%0A%20%20src%3A%20local('Roboto%20Condensed%20Italic')%2C%20local('RobotoCondensed-Italic')%2C%20url(https%3A%2F%2Ffonts.gstatic.com%2Fs%2Frobotocondensed%2Fv17%2FieVj2ZhZI2eCN5jzbjEETS9weq8-19eLAgM9UvI.woff2)%20format('woff2')%3B%0A%20%20unicode-range%3A%20U%2B0460-052F%2C%20U%2B1C80-1C88%2C%20U%2B20B4%2C%20U%2B2DE0-2DFF%2C%20U%2BA640-A69F%2C%20U%2BFE2E-FE2F%3B%0A%7D%0A%2F*%20cyrillic%20*%2F%0A%40font-face%20%7B%0A%20%20font-family%3A%20'Roboto%20Condensed'%3B%0A%20%20font-style%3A%20italic%3B%0A%20%20font-weight%3A%20400%3B%0A%20%20src%3A%20local('Roboto%20Condensed%20Italic')%2C%20local('RobotoCondensed-Italic')%2C%20url(https%3A%2F%2Ffonts.gstatic.com%2Fs%2Frobotocondensed%2Fv17%2FieVj2ZhZI2eCN5jzbjEETS9weq8-19eLCwM9UvI.woff2)%20format('woff2')%3B%0A%20%20unicode-range%3A%20U%2B0400-045F%2C%20U%2B0490-0491%2C%20U%2B04B0-04B1%2C%20U%2B2116%3B%0A%7D%0A%2F*%20greek-ext%20*%2F%0A%40font-face%20%7B%0A%20%20font-family%3A%20'Roboto%20Condensed'%3B%0A%20%20font-style%3A%20italic%3B%0A%20%20font-weight%3A%20400%3B%0A%20%20src%3A%20local('Roboto%20Condensed%20Italic')%2C%20local('RobotoCondensed-Italic')%2C%20url(https%3A%2F%2Ffonts.gstatic.com%2Fs%2Frobotocondensed%2Fv17%2FieVj2ZhZI2eCN5jzbjEETS9weq8-19eLAwM9UvI.woff2)%20format('woff2')%3B%0A%20%20unicode-range%3A%20U%2B1F00-1FFF%3B%0A%7D%0A%2F*%20greek%20*%2F%0A%40font-face%20%7B%0A%20%20font-family%3A%20'Roboto%20Condensed'%3B%0A%20%20font-style%3A%20italic%3B%0A%20%20font-weight%3A%20400%3B%0A%20%20src%3A%20local('Roboto%20Condensed%20Italic')%2C%20local('RobotoCondensed-Italic')%2C%20url(https%3A%2F%2Ffonts.gstatic.com%2Fs%2Frobotocondensed%2Fv17%2FieVj2ZhZI2eCN5jzbjEETS9weq8-19eLDAM9UvI.woff2)%20format('woff2')%3B%0A%20%20unicode-range%3A%20U%2B0370-03FF%3B%0A%7D%0A%2F*%20vietnamese%20*%2F%0A%40font-face%20%7B%0A%20%20font-family%3A%20'Roboto%20Condensed'%3B%0A%20%20font-style%3A%20italic%3B%0A%20%20font-weight%3A%20400%3B%0A%20%20src%3A%20local('Roboto%20Condensed%20Italic')%2C%20local('RobotoCondensed-Italic')%2C%20url(https%3A%2F%2Ffonts.gstatic.com%2Fs%2Frobotocondensed%2Fv17%2FieVj2ZhZI2eCN5jzbjEETS9weq8-19eLAAM9UvI.woff2)%20format('woff2')%3B%0A%20%20unicode-range%3A%20U%2B0102-0103%2C%20U%2B0110-0111%2C%20U%2B1EA0-1EF9%2C%20U%2B20AB%3B%0A%7D%0A%2F*%20latin-ext%20*%2F%0A%40font-face%20%7B%0A%20%20font-family%3A%20'Roboto%20Condensed'%3B%0A%20%20font-style%3A%20italic%3B%0A%20%20font-weight%3A%20400%3B%0A%20%20src%3A%20local('Roboto%20Condensed%20Italic')%2C%20local('RobotoCondensed-Italic')%2C%20url(https%3A%2F%2Ffonts.gstatic.com%2Fs%2Frobotocondensed%2Fv17%2FieVj2ZhZI2eCN5jzbjEETS9weq8-19eLAQM9UvI.woff2)%20format('woff2')%3B%0A%20%20unicode-range%3A%20U%2B0100-024F%2C%20U%2B0259%2C%20U%2B1E00-1EFF%2C%20U%2B2020%2C%20U%2B20A0-20AB%2C%20U%2B20AD-20CF%2C%20U%2B2113%2C%20U%2B2C60-2C7F%2C%20U%2BA720-A7FF%3B%0A%7D%0A%2F*%20latin%20*%2F%0A%40font-face%20%7B%0A%20%20font-family%3A%20'Roboto%20Condensed'%3B%0A%20%20font-style%3A%20italic%3B%0A%20%20font-weight%3A%20400%3B%0A%20%20src%3A%20local('Roboto%20Condensed%20Italic')%2C%20local('RobotoCondensed-Italic')%2C%20url(https%3A%2F%2Ffonts.gstatic.com%2Fs%2Frobotocondensed%2Fv17%2FieVj2ZhZI2eCN5jzbjEETS9weq8-19eLDwM9.woff2)%20format('woff2')%3B%0A%20%20unicode-range%3A%20U%2B0000-00FF%2C%20U%2B0131%2C%20U%2B0152-0153%2C%20U%2B02BB-02BC%2C%20U%2B02C6%2C%20U%2B02DA%2C%20U%2B02DC%2C%20U%2B2000-206F%2C%20U%2B2074%2C%20U%2B20AC%2C%20U%2B2122%2C%20U%2B2191%2C%20U%2B2193%2C%20U%2B2212%2C%20U%2B2215%2C%20U%2BFEFF%2C%20U%2BFFFD%3B%0A%7D%0A%2F*%20cyrillic-ext%20*%2F%0A%40font-face%20%7B%0A%20%20font-family%3A%20'Roboto%20Condensed'%3B%0A%20%20font-style%3A%20italic%3B%0A%20%20font-weight%3A%20700%3B%0A%20%20src%3A%20local('Roboto%20Condensed%20Bold%20Italic')%2C%20local('RobotoCondensed-BoldItalic')%2C%20url(https%3A%2F%2Ffonts.gstatic.com%2Fs%2Frobotocondensed%2Fv17%2FieVg2ZhZI2eCN5jzbjEETS9weq8-19eDtCYoYNNZQyQ.woff2)%20format('woff2')%3B%0A%20%20unicode-range%3A%20U%2B0460-052F%2C%20U%2B1C80-1C88%2C%20U%2B20B4%2C%20U%2B2DE0-2DFF%2C%20U%2BA640-A69F%2C%20U%2BFE2E-FE2F%3B%0A%7D%0A%2F*%20cyrillic%20*%2F%0A%40font-face%20%7B%0A%20%20font-family%3A%20'Roboto%20Condensed'%3B%0A%20%20font-style%3A%20italic%3B%0A%20%20font-weight%3A%20700%3B%0A%20%20src%3A%20local('Roboto%20Condensed%20Bold%20Italic')%2C%20local('RobotoCondensed-BoldItalic')%2C%20url(https%3A%2F%2Ffonts.gstatic.com%2Fs%2Frobotocondensed%2Fv17%2FieVg2ZhZI2eCN5jzbjEETS9weq8-19eDtCYoadNZQyQ.woff2)%20format('woff2')%3B%0A%20%20unicode-range%3A%20U%2B0400-045F%2C%20U%2B0490-0491%2C%20U%2B04B0-04B1%2C%20U%2B2116%3B%0A%7D%0A%2F*%20greek-ext%20*%2F%0A%40font-face%20%7B%0A%20%20font-family%3A%20'Roboto%20Condensed'%3B%0A%20%20font-style%3A%20italic%3B%0A%20%20font-weight%3A%20700%3B%0A%20%20src%3A%20local('Roboto%20Condensed%20Bold%20Italic')%2C%20local('RobotoCondensed-BoldItalic')%2C%20url(https%3A%2F%2Ffonts.gstatic.com%2Fs%2Frobotocondensed%2Fv17%2FieVg2ZhZI2eCN5jzbjEETS9weq8-19eDtCYoYdNZQyQ.woff2)%20format('woff2')%3B%0A%20%20unicode-range%3A%20U%2B1F00-1FFF%3B%0A%7D%0A%2F*%20greek%20*%2F%0A%40font-face%20%7B%0A%20%20font-family%3A%20'Roboto%20Condensed'%3B%0A%20%20font-style%3A%20italic%3B%0A%20%20font-weight%3A%20700%3B%0A%20%20src%3A%20local('Roboto%20Condensed%20Bold%20Italic')%2C%20local('RobotoCondensed-BoldItalic')%2C%20url(https%3A%2F%2Ffonts.gstatic.com%2Fs%2Frobotocondensed%2Fv17%2FieVg2ZhZI2eCN5jzbjEETS9weq8-19eDtCYobtNZQyQ.woff2)%20format('woff2')%3B%0A%20%20unicode-range%3A%20U%2B0370-03FF%3B%0A%7D%0A%2F*%20vietnamese%20*%2F%0A%40font-face%20%7B%0A%20%20font-family%3A%20'Roboto%20Condensed'%3B%0A%20%20font-style%3A%20italic%3B%0A%20%20font-weight%3A%20700%3B%0A%20%20src%3A%20local('Roboto%20Condensed%20Bold%20Italic')%2C%20local('RobotoCondensed-BoldItalic')%2C%20url(https%3A%2F%2Ffonts.gstatic.com%2Fs%2Frobotocondensed%2Fv17%2FieVg2ZhZI2eCN5jzbjEETS9weq8-19eDtCYoYtNZQyQ.woff2)%20format('woff2')%3B%0A%20%20unicode-range%3A%20U%2B0102-0103%2C%20U%2B0110-0111%2C%20U%2B1EA0-1EF9%2C%20U%2B20AB%3B%0A%7D%0A%2F*%20latin-ext%20*%2F%0A%40font-face%20%7B%0A%20%20font-family%3A%20'Roboto%20Condensed'%3B%0A%20%20font-style%3A%20italic%3B%0A%20%20font-weight%3A%20700%3B%0A%20%20src%3A%20local('Roboto%20Condensed%20Bold%20Italic')%2C%20local('RobotoCondensed-BoldItalic')%2C%20url(https%3A%2F%2Ffonts.gstatic.com%2Fs%2Frobotocondensed%2Fv17%2FieVg2ZhZI2eCN5jzbjEETS9weq8-19eDtCYoY9NZQyQ.woff2)%20format('woff2')%3B%0A%20%20unicode-range%3A%20U%2B0100-024F%2C%20U%2B0259%2C%20U%2B1E00-1EFF%2C%20U%2B2020%2C%20U%2B20A0-20AB%2C%20U%2B20AD-20CF%2C%20U%2B2113%2C%20U%2B2C60-2C7F%2C%20U%2BA720-A7FF%3B%0A%7D%0A%2F*%20latin%20*%2F%0A%40font-face%20%7B%0A%20%20font-family%3A%20'Roboto%20Condensed'%3B%0A%20%20font-style%3A%20italic%3B%0A%20%20font-weight%3A%20700%3B%0A%20%20src%3A%20local('Roboto%20Condensed%20Bold%20Italic')%2C%20local('RobotoCondensed-BoldItalic')%2C%20url(https%3A%2F%2Ffonts.gstatic.com%2Fs%2Frobotocondensed%2Fv17%2FieVg2ZhZI2eCN5jzbjEETS9weq8-19eDtCYobdNZ.woff2)%20format('woff2')%3B%0A%20%20unicode-range%3A%20U%2B0000-00FF%2C%20U%2B0131%2C%20U%2B0152-0153%2C%20U%2B02BB-02BC%2C%20U%2B02C6%2C%20U%2B02DA%2C%20U%2B02DC%2C%20U%2B2000-206F%2C%20U%2B2074%2C%20U%2B20AC%2C%20U%2B2122%2C%20U%2B2191%2C%20U%2B2193%2C%20U%2B2212%2C%20U%2B2215%2C%20U%2BFEFF%2C%20U%2BFFFD%3B%0A%7D%0A%2F*%20cyrillic-ext%20*%2F%0A%40font-face%20%7B%0A%20%20font-family%3A%20'Roboto%20Condensed'%3B%0A%20%20font-style%3A%20normal%3B%0A%20%20font-weight%3A%20400%3B%0A%20%20src%3A%20local('Roboto%20Condensed')%2C%20local('RobotoCondensed-Regular')%2C%20url(https%3A%2F%2Ffonts.gstatic.com%2Fs%2Frobotocondensed%2Fv17%2FieVl2ZhZI2eCN5jzbjEETS9weq8-19-7DRs5.woff2)%20format('woff2')%3B%0A%20%20unicode-range%3A%20U%2B0460-052F%2C%20U%2B1C80-1C88%2C%20U%2B20B4%2C%20U%2B2DE0-2DFF%2C%20U%2BA640-A69F%2C%20U%2BFE2E-FE2F%3B%0A%7D%0A%2F*%20cyrillic%20*%2F%0A%40font-face%20%7B%0A%20%20font-family%3A%20'Roboto%20Condensed'%3B%0A%20%20font-style%3A%20normal%3B%0A%20%20font-weight%3A%20400%3B%0A%20%20src%3A%20local('Roboto%20Condensed')%2C%20local('RobotoCondensed-Regular')%2C%20url(https%3A%2F%2Ffonts.gstatic.com%2Fs%2Frobotocondensed%2Fv17%2FieVl2ZhZI2eCN5jzbjEETS9weq8-19a7DRs5.woff2)%20format('woff2')%3B%0A%20%20unicode-range%3A%20U%2B0400-045F%2C%20U%2B0490-0491%2C%20U%2B04B0-04B1%2C%20U%2B2116%3B%0A%7D%0A%2F*%20greek-ext%20*%2F%0A%40font-face%20%7B%0A%20%20font-family%3A%20'Roboto%20Condensed'%3B%0A%20%20font-style%3A%20normal%3B%0A%20%20font-weight%3A%20400%3B%0A%20%20src%3A%20local('Roboto%20Condensed')%2C%20local('RobotoCondensed-Regular')%2C%20url(https%3A%2F%2Ffonts.gstatic.com%2Fs%2Frobotocondensed%2Fv17%2FieVl2ZhZI2eCN5jzbjEETS9weq8-1967DRs5.woff2)%20format('woff2')%3B%0A%20%20unicode-range%3A%20U%2B1F00-1FFF%3B%0A%7D%0A%2F*%20greek%20*%2F%0A%40font-face%20%7B%0A%20%20font-family%3A%20'Roboto%20Condensed'%3B%0A%20%20font-style%3A%20normal%3B%0A%20%20font-weight%3A%20400%3B%0A%20%20src%3A%20local('Roboto%20Condensed')%2C%20local('RobotoCondensed-Regular')%2C%20url(https%3A%2F%2Ffonts.gstatic.com%2Fs%2Frobotocondensed%2Fv17%2FieVl2ZhZI2eCN5jzbjEETS9weq8-19G7DRs5.woff2)%20format('woff2')%3B%0A%20%20unicode-range%3A%20U%2B0370-03FF%3B%0A%7D%0A%2F*%20vietnamese%20*%2F%0A%40font-face%20%7B%0A%20%20font-family%3A%20'Roboto%20Condensed'%3B%0A%20%20font-style%3A%20normal%3B%0A%20%20font-weight%3A%20400%3B%0A%20%20src%3A%20local('Roboto%20Condensed')%2C%20local('RobotoCondensed-Regular')%2C%20url(https%3A%2F%2Ffonts.gstatic.com%2Fs%2Frobotocondensed%2Fv17%2FieVl2ZhZI2eCN5jzbjEETS9weq8-1927DRs5.woff2)%20format('woff2')%3B%0A%20%20unicode-range%3A%20U%2B0102-0103%2C%20U%2B0110-0111%2C%20U%2B1EA0-1EF9%2C%20U%2B20AB%3B%0A%7D%0A%2F*%20latin-ext%20*%2F%0A%40font-face%20%7B%0A%20%20font-family%3A%20'Roboto%20Condensed'%3B%0A%20%20font-style%3A%20normal%3B%0A%20%20font-weight%3A%20400%3B%0A%20%20src%3A%20local('Roboto%20Condensed')%2C%20local('RobotoCondensed-Regular')%2C%20url(https%3A%2F%2Ffonts.gstatic.com%2Fs%2Frobotocondensed%2Fv17%2FieVl2ZhZI2eCN5jzbjEETS9weq8-19y7DRs5.woff2)%20format('woff2')%3B%0A%20%20unicode-range%3A%20U%2B0100-024F%2C%20U%2B0259%2C%20U%2B1E00-1EFF%2C%20U%2B2020%2C%20U%2B20A0-20AB%2C%20U%2B20AD-20CF%2C%20U%2B2113%2C%20U%2B2C60-2C7F%2C%20U%2BA720-A7FF%3B%0A%7D%0A%2F*%20latin%20*%2F%0A%40font-face%20%7B%0A%20%20font-family%3A%20'Roboto%20Condensed'%3B%0A%20%20font-style%3A%20normal%3B%0A%20%20font-weight%3A%20400%3B%0A%20%20src%3A%20local('Roboto%20Condensed')%2C%20local('RobotoCondensed-Regular')%2C%20url(https%3A%2F%2Ffonts.gstatic.com%2Fs%2Frobotocondensed%2Fv17%2FieVl2ZhZI2eCN5jzbjEETS9weq8-19K7DQ.woff2)%20format('woff2')%3B%0A%20%20unicode-range%3A%20U%2B0000-00FF%2C%20U%2B0131%2C%20U%2B0152-0153%2C%20U%2B02BB-02BC%2C%20U%2B02C6%2C%20U%2B02DA%2C%20U%2B02DC%2C%20U%2B2000-206F%2C%20U%2B2074%2C%20U%2B20AC%2C%20U%2B2122%2C%20U%2B2191%2C%20U%2B2193%2C%20U%2B2212%2C%20U%2B2215%2C%20U%2BFEFF%2C%20U%2BFFFD%3B%0A%7D%0A%2F*%20cyrillic-ext%20*%2F%0A%40font-face%20%7B%0A%20%20font-family%3A%20'Roboto%20Condensed'%3B%0A%20%20font-style%3A%20normal%3B%0A%20%20font-weight%3A%20700%3B%0A%20%20src%3A%20local('Roboto%20Condensed%20Bold')%2C%20local('RobotoCondensed-Bold')%2C%20url(https%3A%2F%2Ffonts.gstatic.com%2Fs%2Frobotocondensed%2Fv17%2FieVi2ZhZI2eCN5jzbjEETS9weq8-32meGCkYb8td.woff2)%20format('woff2')%3B%0A%20%20unicode-range%3A%20U%2B0460-052F%2C%20U%2B1C80-1C88%2C%20U%2B20B4%2C%20U%2B2DE0-2DFF%2C%20U%2BA640-A69F%2C%20U%2BFE2E-FE2F%3B%0A%7D%0A%2F*%20cyrillic%20*%2F%0A%40font-face%20%7B%0A%20%20font-family%3A%20'Roboto%20Condensed'%3B%0A%20%20font-style%3A%20normal%3B%0A%20%20font-weight%3A%20700%3B%0A%20%20src%3A%20local('Roboto%20Condensed%20Bold')%2C%20local('RobotoCondensed-Bold')%2C%20url(https%3A%2F%2Ffonts.gstatic.com%2Fs%2Frobotocondensed%2Fv17%2FieVi2ZhZI2eCN5jzbjEETS9weq8-32meGCAYb8td.woff2)%20format('woff2')%3B%0A%20%20unicode-range%3A%20U%2B0400-045F%2C%20U%2B0490-0491%2C%20U%2B04B0-04B1%2C%20U%2B2116%3B%0A%7D%0A%2F*%20greek-ext%20*%2F%0A%40font-face%20%7B%0A%20%20font-family%3A%20'Roboto%20Condensed'%3B%0A%20%20font-style%3A%20normal%3B%0A%20%20font-weight%3A%20700%3B%0A%20%20src%3A%20local('Roboto%20Condensed%20Bold')%2C%20local('RobotoCondensed-Bold')%2C%20url(https%3A%2F%2Ffonts.gstatic.com%2Fs%2Frobotocondensed%2Fv17%2FieVi2ZhZI2eCN5jzbjEETS9weq8-32meGCgYb8td.woff2)%20format('woff2')%3B%0A%20%20unicode-range%3A%20U%2B1F00-1FFF%3B%0A%7D%0A%2F*%20greek%20*%2F%0A%40font-face%20%7B%0A%20%20font-family%3A%20'Roboto%20Condensed'%3B%0A%20%20font-style%3A%20normal%3B%0A%20%20font-weight%3A%20700%3B%0A%20%20src%3A%20local('Roboto%20Condensed%20Bold')%2C%20local('RobotoCondensed-Bold')%2C%20url(https%3A%2F%2Ffonts.gstatic.com%2Fs%2Frobotocondensed%2Fv17%2FieVi2ZhZI2eCN5jzbjEETS9weq8-32meGCcYb8td.woff2)%20format('woff2')%3B%0A%20%20unicode-range%3A%20U%2B0370-03FF%3B%0A%7D%0A%2F*%20vietnamese%20*%2F%0A%40font-face%20%7B%0A%20%20font-family%3A%20'Roboto%20Condensed'%3B%0A%20%20font-style%3A%20normal%3B%0A%20%20font-weight%3A%20700%3B%0A%20%20src%3A%20local('Roboto%20Condensed%20Bold')%2C%20local('RobotoCondensed-Bold')%2C%20url(https%3A%2F%2Ffonts.gstatic.com%2Fs%2Frobotocondensed%2Fv17%2FieVi2ZhZI2eCN5jzbjEETS9weq8-32meGCsYb8td.woff2)%20format('woff2')%3B%0A%20%20unicode-range%3A%20U%2B0102-0103%2C%20U%2B0110-0111%2C%20U%2B1EA0-1EF9%2C%20U%2B20AB%3B%0A%7D%0A%2F*%20latin-ext%20*%2F%0A%40font-face%20%7B%0A%20%20font-family%3A%20'Roboto%20Condensed'%3B%0A%20%20font-style%3A%20normal%3B%0A%20%20font-weight%3A%20700%3B%0A%20%20src%3A%20local('Roboto%20Condensed%20Bold')%2C%20local('RobotoCondensed-Bold')%2C%20url(https%3A%2F%2Ffonts.gstatic.com%2Fs%2Frobotocondensed%2Fv17%2FieVi2ZhZI2eCN5jzbjEETS9weq8-32meGCoYb8td.woff2)%20format('woff2')%3B%0A%20%20unicode-range%3A%20U%2B0100-024F%2C%20U%2B0259%2C%20U%2B1E00-1EFF%2C%20U%2B2020%2C%20U%2B20A0-20AB%2C%20U%2B20AD-20CF%2C%20U%2B2113%2C%20U%2B2C60-2C7F%2C%20U%2BA720-A7FF%3B%0A%7D%0A%2F*%20latin%20*%2F%0A%40font-face%20%7B%0A%20%20font-family%3A%20'Roboto%20Condensed'%3B%0A%20%20font-style%3A%20normal%3B%0A%20%20font-weight%3A%20700%3B%0A%20%20src%3A%20local('Roboto%20Condensed%20Bold')%2C%20local('RobotoCondensed-Bold')%2C%20url(https%3A%2F%2Ffonts.gstatic.com%2Fs%2Frobotocondensed%2Fv17%2FieVi2ZhZI2eCN5jzbjEETS9weq8-32meGCQYbw.woff2)%20format('woff2')%3B%0A%20%20unicode-range%3A%20U%2B0000-00FF%2C%20U%2B0131%2C%20U%2B0152-0153%2C%20U%2B02BB-02BC%2C%20U%2B02C6%2C%20U%2B02DA%2C%20U%2B02DC%2C%20U%2B2000-206F%2C%20U%2B2074%2C%20U%2B20AC%2C%20U%2B2122%2C%20U%2B2191%2C%20U%2B2193%2C%20U%2B2212%2C%20U%2B2215%2C%20U%2BFEFF%2C%20U%2BFFFD%3B%0A%7D%0A"/><linearGradient id="L00100100000aaff10010000387f100.grad" x1="0%" y1="0%" x2="100%" y2="100%"><stop offset="0%" stop-color="#00aaff" stop-opacity="1"/><stop offset="100%" stop-color="#00387f" stop-opacity="1"/></linearGradient></defs><title xmlns="http://www.w3.org/1999/xhtml">Link Editable</title><desc xmlns="http://www.w3.org/1999/xhtml"></desc><svg height="396.8504047393799" id="kq2cgh6wu0" overflow="visible" v:setup="{&quot;paper&quot;:&quot;CUSTOM&quot;,&quot;unit&quot;:&quot;px&quot;,&quot;scale&quot;:{&quot;from&quot;:1,&quot;to&quot;:1},&quot;width&quot;:&quot;297mm&quot;,&quot;height&quot;:&quot;210mm&quot;}" viewBox="0 0 1122.5197162628174 793.7008094787598" width="561.2598581314087"><g id="kqgewmdhjs" transform="translate(6.981173121201081 9.166195892219019)" class="NoPrint.cls"><path d="M 13.958643747832205 37.11561007713423 C 12.17864496853533 35.71560855125532 10.281641794707205 34.37560839866743 8.984644724394705 32.485609009018994 C 6.254648996855644 29.15360827659712 4.154642893340019 25.28560824607954 2.7166393533009563 21.240610077134228 C 1.8466442361134563 18.603609039536572 1.5506389870900188 15.77761264061079 0.4306438699025188 13.242608978501416 C -0.7393542990427937 11.40261264061079 0.6326397195118938 9.38961215232954 2.6486461892384563 8.804609253159619 C 3.5456493630665813 8.63160891746626 5.124644114043144 7.784608795395947 3.218638254668144 8.390611603013134 C 1.5186413064259563 9.643609955063916 1.3456524148243938 7.252611114731884 3.0966442361134563 7.090608551255322 C 4.292643381621269 6.930612518540478 4.732645823027519 5.953611328354931 4.322642160918144 5.073610260239697 C 3.038645578886894 4.235609009018994 7.434641672636894 3.3176097414408687 5.222651316191581 2.0676097414408687 C 2.9196422829884563 -0.41739086891069377 8.444651438261893 -0.8963909604634281 7.082651926543144 1.9276103517924312 C 6.756647898222831 4.097612335435009 10.944651438261893 1.527608825913525 9.982645823027518 4.035608246079541 C 10.97063715603533 5.239610626450634 13.682642771269705 4.310609771958447 13.612650705840018 5.998609497300244 C 15.052637888457205 6.098611786118603 15.54564936306658 7.298608734360791 16.89464838650408 7.4006099245463375 C 18.294642282988455 8.03260989402876 20.83263666775408 8.530610992661572 21.307642771269705 10.107610656968212 C 19.90764887478533 11.207609131089306 16.70464594509783 7.837610199204541 16.549647165800955 10.879610016099072 C 16.969630075957205 15.375612213364697 16.862635447050955 20.006610824814892 18.50664789822283 24.2866115114604 C 19.284632517363455 26.878610565415478 21.17064936306658 28.918611480942822 22.87365229275408 30.93660922264204 C 24.50365717556658 32.91361041282759 26.710657907988455 34.30661196922407 28.961634470488455 35.476610138169384 C 30.935633493925955 36.406610443345166 33.06164057400408 37.02361102317915 35.213648630644705 37.4116115114604 C 36.085657907988455 36.74461169456587 37.625635935332205 34.26360888694868 38.986658884550955 35.30961032127485 C 39.052637888457205 36.48660845970259 36.286646677519705 37.76761050438032 38.856654001738455 37.63760943626509 C 40.356654001738455 37.18161196922407 41.413660837675955 38.80460925315962 42.656641794707205 37.34060855125532 C 43.801661325957205 38.6976108095561 47.416651560332205 36.4746112368022 46.60265619900408 39.24761004661665 C 45.500635935332205 39.9476108095561 43.90264399197283 39.527608825913525 42.789637400175955 40.50760836814985 C 40.969630075957205 39.60761065696821 39.521632029082205 41.319608642808056 37.50664789822283 41.10260958885298 C 35.26964838650408 41.502611114731884 32.992640329863455 41.66460986351118 30.724634958769705 41.66760821556196 C 27.002650095488455 41.373609497300244 23.20263178494158 41.24960894798384 19.66265375759783 39.954610779038525 C 17.66765864041033 39.37460894798384 15.72265131619158 38.23861117576704 13.968653513457205 37.10260958885298 Z M 17.101649118925955 38.47860903953657 C 19.04864008572283 39.31860919212446 20.953638865019705 40.2086085817729 23.08764155056658 40.47561068748579 C 26.473658396269705 40.945611908188916 29.97063715603533 41.6716098329936 33.367640329863455 41.0106105348979 C 31.82964594509783 40.316610290757275 30.239649607207205 41.28061099266157 28.70763666775408 40.514608337632275 C 26.870631052519705 40.90960879539595 24.90764887478533 40.41460986351118 23.02965815212908 40.16861148094282 C 20.90563471462908 39.222608520737744 18.612635447050955 38.5726108095561 16.62365229275408 37.34361071800337 C 14.13665278103533 36.43560977195845 17.908655954863455 38.50861163353071 18.580653025175955 38.67661090110884 C 20.13463862087908 39.55861087059126 16.880640818144705 38.2246112368022 16.41063959744158 37.85661120628462 C 15.10863764431658 37.12661166404829 14.943644358183768 37.27860827659712 16.28063471462908 38.01960940574751 C 16.55065424587908 38.17761035179243 16.81664545681658 38.342611267319775 17.098658396269705 38.47760958885298 Z M 13.395640207793143 35.858610107651806 C 15.283640696074393 36.55861087059126 13.387644602324393 34.531610443345166 12.523646189238455 34.65860934471235 C 12.140650583769705 33.99360842918501 11.059641672636893 33.5736102602397 11.82165033962908 33.21861071800337 C 10.451639963652518 33.694608642808056 10.38463862087908 31.418611480942822 9.741648508574393 31.735609009018994 C 8.291651560332205 31.277608825913525 9.177637888457205 29.655610992661572 7.448649240996269 28.65760989402876 C 7.290644480254081 27.607610656968212 5.731638742949394 26.697610809556103 5.235651804472831 25.11361117576704 C 5.015650583769706 24.313611938706494 3.473643137480644 21.97360987876997 4.420649363066581 24.140611603013134 C 5.226649118925956 26.226610138169384 6.645640207793144 28.01360888694868 7.826639963652519 29.797609283677197 C 8.742640329863455 31.49761004661665 9.826639963652518 33.27361102317915 11.49663813259783 34.332609131089306 C 12.059641672636893 34.87261004661665 12.602640940215018 35.69960971092329 13.396647287871268 35.86961169456587 Z M 7.959650827910331 29.88860888694868 C 8.02465326931658 29.603609039536572 8.304652048613455 30.505609466782666 7.959650827910331 29.88860888694868 Z M 15.656641794707205 36.695611908188916 C 16.07464106228533 36.50861163353071 15.056650949980643 36.45961184715376 15.656641794707205 36.695611908188916 Z M 16.68065912869158 37.069608642808056 C 16.57464106228533 36.553609802476025 16.21264155056658 37.36961169456587 16.68065912869158 37.069608642808056 Z M 17.963648630644705 37.604608490220166 C 18.56365473416033 37.024610473862744 17.023646189238455 37.23761172508345 17.963648630644705 37.604608490220166 Z M 20.161646677519705 38.829610779038525 C 20.531641794707205 38.281610443345166 18.974634958769705 38.623609497300244 20.161646677519705 38.829610779038525 Z M 15.94164545681658 35.88760943626509 C 16.888636423613455 35.274610473862744 14.716639353300955 35.877611114731884 15.94164545681658 35.88760943626509 Z M 16.903651072050955 36.367608978501416 C 16.87664301541033 36.044610931626416 16.56164057400408 36.51260943626509 16.903651072050955 36.367608978501416 Z M 21.710657907988455 39.367608978501416 C 22.48363764431658 39.855611755601025 26.224634958769705 40.437608673325634 23.882654978300955 39.56760974144087 C 23.489649607207205 39.649610473862744 19.539637400175955 38.44960971092329 21.710657907988455 39.367608978501416 Z M 14.080653025175955 33.42360873436079 C 14.005640818144705 33.0996112368022 12.880640818144705 33.063611938706494 14.080653025175955 33.42360873436079 Z M 16.317652536894705 34.72860903953657 C 16.900660349394705 34.32161135887251 15.117640329863455 34.41460986351118 16.317652536894705 34.72860903953657 Z M 18.200648142363455 35.88260836814985 C 19.036646677519705 35.56760974144087 16.84563715603533 35.566610290757275 18.200648142363455 35.88260836814985 Z M 13.168650461699393 32.432611419907666 C 14.075648142363455 33.12861056541548 16.82665522244158 32.53260989402876 14.568644358183768 32.01761050438032 C 13.536646677519705 31.467611267319775 11.208643747832205 31.090608551255322 12.79564936306658 32.3496112368022 L 13.179652048613455 32.432611419907666 Z M 19.47564203884783 36.28260989402876 C 19.85363276150408 35.639608337632275 17.890650583769705 35.91460986351118 19.47564203884783 36.28260989402876 Z M 17.559656931425955 34.759611084214306 C 19.776636911894705 35.3856105348979 15.694651438261893 33.35661120628462 17.012659861113455 34.527608825913525 L 17.304652048613455 34.66060824607954 L 17.559656931425955 34.7606105348979 Z M 21.401636911894705 36.979608490220166 C 23.50164301541033 36.99960894798384 19.50463373806658 36.67960925315962 21.401636911894705 36.979608490220166 Z M 12.361643625761893 31.217611267319775 C 12.279642893340018 30.81760974144087 11.843653513457205 31.249608947983837 12.361643625761893 31.217611267319775 Z M 24.95464594509783 38.97160907005415 C 25.010645700957205 38.265611603013134 24.26964838650408 39.49761004661665 24.95464594509783 38.97160907005415 Z M 15.95464594509783 33.4116115114604 C 15.826639963652518 33.03960986351118 15.29864008572283 33.3956088564311 15.95464594509783 33.4116115114604 Z M 12.569651438261893 30.97160907005415 C 13.77465326931658 30.89861102317915 10.919642282988455 30.441610290757275 12.569651438261893 30.97160907005415 Z M 8.569651438261893 28.379610016099072 C 8.419642282988455 27.799608185044384 7.269648386504081 27.339609100571728 8.569651438261893 28.379610016099072 Z M 19.096644236113455 35.05961032127485 C 18.87664301541033 34.807611419907666 18.992640329863455 35.114610626450634 19.096644236113455 35.05961032127485 Z M 25.648646189238455 39.079610779038525 C 25.62865717556658 38.694608642808056 25.291651560332205 39.2246112368022 25.648646189238455 39.079610779038525 Z M 18.518641306425955 34.45961184715376 C 18.63665278103533 33.963609649888134 17.49065668728533 34.30961032127485 18.518641306425955 34.45961184715376 Z M 13.638651682402518 31.365610077134228 C 14.53563959744158 31.26960940574751 12.200648142363455 30.759611084214306 13.638651682402518 31.365610077134228 Z M 21.895655466582205 36.49561114524946 C 23.29363520291033 35.941610290757275 20.53264887478533 36.22561068748579 21.895655466582205 36.49561114524946 Z M 17.601649118925955 33.58061022972212 C 19.20165522244158 33.787610962143994 15.684641672636893 32.483610107651806 17.247645212675955 33.463609649888134 Z M 23.19964106228533 37.022611572495556 C 24.70464594509783 36.12460894798384 24.20763666775408 39.12861056541548 25.75164301541033 37.27660937522993 C 27.273646189238455 36.16460986351118 24.43664057400408 38.65160937522993 26.31164057400408 37.4746112368022 C 27.669642282988455 36.566610290757275 29.67364008572283 37.90461154197798 30.939661814238455 38.34060855125532 C 31.83965571072283 38.2966098329936 32.73565180447283 39.127611114731884 33.669642282988455 38.62061114524946 C 35.466639353300955 38.136609985581494 30.15465815212908 37.902608825913525 31.546656443144705 37.044610931626416 C 29.90264399197283 37.524610473862744 28.68664057400408 36.4746112368022 27.87865717556658 35.42061038231001 C 26.033655954863455 34.99461169456587 23.901636911894705 34.050611450425244 22.98064692166033 32.41861148094282 C 22.604639841582205 31.806611969224072 23.52263910916033 32.505609466782666 22.656641794707205 31.503610565415478 C 21.55663569119158 30.515611603013134 20.99065668728533 29.40360827659712 20.244654490019705 28.191610290757275 C 19.344630075957205 27.71661181663618 19.24865229275408 26.316610290757275 19.158655954863455 28.145608856431103 C 19.16564448025408 26.991609527817822 18.08263666775408 26.215608551255322 17.818629099394705 26.537610962143994 C 17.81365473416033 25.437608673325634 18.97863276150408 25.983610107651806 18.163660837675955 25.1616115114604 C 17.98864252712908 24.009611084214306 17.41063959744158 22.809610321274853 17.237635447050955 21.509609176865673 C 16.96764643337908 20.88360972618208 17.19964106228533 19.53960986351118 16.317652536894705 20.959609939805127 C 15.997645212675955 22.45961184715376 16.211634470488455 19.11761088585005 16.711634470488455 20.219610168686962 C 17.367640329863455 19.095609619370556 16.47564203884783 19.219610168686962 16.43963129666033 19.38360972618208 C 16.86663324978533 18.435609771958447 16.70965082791033 17.088609649888134 16.32763178494158 17.603609039536572 C 16.55565912869158 16.59761233543501 16.687647654082205 13.903612091294384 15.987635447050955 14.380609466782666 C 16.41265375759783 13.328607513657666 16.79265864041033 9.567609741440869 14.947642160918143 11.000612213364697 C 14.200648142363455 11.0106105348979 12.90764887478533 11.270608856431103 12.29564936306658 11.575609161606884 C 14.21264155056658 12.632608368149853 12.102640940215018 11.957609131089306 11.320643259550955 11.789609863511181 C 11.22063715603533 12.767610504380322 10.445643259550955 12.345609619370556 9.48064692166033 12.354608490220166 C 11.02465326931658 12.554609253159619 8.728648020293143 13.934610321274853 7.844645334746269 13.39460940574751 C 6.694651438261894 13.944612457505322 8.844645334746268 15.314607574692822 7.867640329863456 15.740610077134228 C 7.987650705840019 16.378610565415478 6.107645823027519 15.5106105348979 6.253641916777519 16.986612274399853 C 5.137644602324394 16.516611053696728 6.100642038847831 18.73661036705122 6.659647776152519 17.986612274399853 C 8.557642771269705 18.500612213364697 7.995646311308769 19.671609832993603 8.043650461699393 20.78461070274458 C 7.743647409941581 21.432609512559033 6.516642405058769 19.2606105348979 7.773646189238456 19.36161036705122 C 6.773646189238456 17.761609985581494 6.677637888457206 18.779609634629345 5.853648020293144 19.527610733262158 C 5.653651072050956 19.581609680405712 7.953638865019706 20.59160990928755 6.515650583769706 21.090610458603955 C 7.780649973418144 21.286609604111767 7.817652536894706 22.393609955063916 8.075648142363455 23.09361071800337 C 8.835642649199393 23.8856105348979 8.679652048613455 22.21861071800337 9.589640451933768 23.171609832993603 C 9.013651682402518 22.32161135887251 6.539637400175956 20.77161021446333 8.531641794707205 21.275609924546337 C 8.521647287871268 20.422609283677197 8.171641184355643 19.733610107651806 8.781641794707205 19.750610306016064 C 9.38665278103533 18.656610443345166 8.14763910916033 22.450609161606884 9.51165278103533 21.05861087059126 C 9.888651682402518 20.893609955063916 9.981638742949393 19.963609649888134 10.661646677519705 21.14661021446333 C 11.645640207793143 22.116609527817822 11.017649485136893 22.816610290757275 9.628641916777518 21.92960925315962 C 9.87664301541033 22.77361102317915 11.486643625761893 23.073610260239697 11.18364985134783 24.392610504380322 C 11.503641916777518 25.55261035179243 11.953638865019705 25.124608947983837 12.343653513457205 25.05861087059126 C 12.650645090605643 26.184610321274853 12.823649240996268 25.35661120628462 12.838648630644705 24.818609192124462 C 14.242640329863455 25.11860842918501 13.913645578886893 25.948610260239697 14.353648020293143 26.518609955063916 C 15.32165033962908 26.954610779038525 12.968653513457205 23.55861087059126 14.629648996855643 25.498609497300244 C 16.377650095488455 27.07861132835493 15.28563959744158 27.735609009018994 13.716639353300955 27.482610656968212 C 14.70965082791033 27.402608825913525 15.028651072050955 28.82460971092329 16.270655466582205 28.774610473862744 C 17.40264399197283 29.314611389390087 18.17064936306658 31.382608368149853 16.21764643337908 30.521608307114697 C 15.54064448025408 29.921609832993603 13.143641306425955 29.15760989402876 15.101649118925955 30.318609192124462 C 16.90764887478533 31.156610443345166 18.344630075957205 31.656610443345166 20.08764155056658 32.71861071800337 C 21.33465082791033 33.61860842918501 21.87365229275408 34.61860842918501 22.34563715603533 34.83061022972212 C 21.29564936306658 35.33061022972212 19.185633493925955 34.43060870384321 20.75365717556658 34.15561099266157 C 19.775660349394705 33.97760958885298 18.67565424587908 33.48261065696821 19.611658884550955 34.700609161606884 C 20.408655954863455 35.36660952781782 22.43364985134783 35.29561038231001 22.797633005644705 35.37061114524946 C 22.489649607207205 36.04860873436079 21.961634470488455 36.10260958885298 22.809656931425955 36.15461154197798 C 21.86364252712908 36.65960879539595 23.11364252712908 36.73761172508345 23.20965082791033 37.024610473862744 Z M 21.26464350369158 31.556611969224072 C 20.68865473416033 30.95361132835493 20.539637400175955 29.826608612290478 21.161646677519705 30.806611969224072 C 21.481654001738455 30.93660922264204 22.184656931425955 32.65060992454634 21.26464350369158 31.556611969224072 Z M 27.568629099394705 35.56060977195845 C 27.92864496853533 35.5366115114604 27.578638865019705 35.8336085817729 27.568629099394705 35.56060977195845 Z M 20.35564692166033 30.08061022972212 C 20.33263666775408 29.180608703843212 20.562647654082205 30.783609344712353 20.35564692166033 30.08061022972212 Z M 19.729639841582205 29.23861117576704 C 19.00463373806658 27.838609649888134 20.64263422634783 29.634611084214306 19.729639841582205 29.23861117576704 Z M 12.13665278103533 23.998609497300244 C 12.562647654082205 23.884611084214306 12.336649729277518 24.726610138169384 12.13665278103533 23.998609497300244 Z M 18.18065912869158 27.27361102317915 C 18.440638376738455 26.29160876487837 18.487635447050955 28.09660907005415 18.18065912869158 27.27361102317915 Z M 13.91063959744158 24.303609802476025 C 13.61065180447283 23.761609985581494 14.54064448025408 24.803609802476025 13.91063959744158 24.303609802476025 Z M 17.573633982207205 25.477609588852978 C 16.887659861113455 23.94061084007368 18.060633493925955 24.637609436265087 17.726649118925955 25.729608490220166 Z M 11.255640818144705 21.264610244980908 C 10.948649240996268 20.759609176865673 10.44164545681658 19.280610992661572 10.60564692166033 18.8286094210063 C 10.752650095488455 19.564609482041455 12.169642282988455 21.99560923790083 11.299647165800955 19.83560939048872 C 10.339640451933768 18.03560824607954 12.44964106228533 20.422609283677197 12.66564448025408 20.875610306016064 C 12.765650583769705 21.325609161606884 12.072642160918143 20.75260920738325 12.542643381621268 21.805610611191845 C 11.684641672636893 20.605609848252392 12.036646677519705 22.467611267319775 11.255640818144705 21.2656096956645 Z M 9.30364496853533 19.91860957359419 C 9.383646799590018 18.74560923790083 9.749644114043143 20.722610428086377 9.30364496853533 19.91860957359419 Z M 10.181650949980643 20.221610977402783 C 10.601649118925955 19.336610748520947 10.88164789822283 21.45561022972212 10.181650949980643 20.221610977402783 Z M 8.068644358183768 18.58761019920454 C 7.341639353300956 17.864610626450634 6.815638376738456 17.187608673325634 8.103648020293143 18.137609436265087 C 8.598643137480643 18.15760989402876 7.001643015410331 16.623609497300244 8.223643137480643 17.650609924546337 C 9.507639719511893 17.88460726951704 8.857645823027518 19.756610824814892 8.069651438261893 18.586610748520947 Z M 9.168650461699393 18.557611419907666 C 9.590647532011893 18.137609436265087 9.392649485136893 18.969610168686962 9.168650461699393 18.557611419907666 Z M 9.852640940215018 18.775609924546337 C 9.21264155056658 17.575609161606884 10.629648996855643 19.27861018394575 9.852640940215018 18.775609924546337 Z M 8.494639231230643 17.478609039536572 C 6.381647898222831 15.596612884751416 11.14965326931658 18.461610748520947 8.839640451933768 17.826608612290478 Z M 14.549647165800955 20.99560923790083 C 13.63463862087908 20.447610809556103 14.306650949980643 17.1356105348979 14.619639231230643 19.400609924546337 C 15.51964838650408 19.112609817734814 14.569651438261893 20.570610000840283 15.232645823027518 20.55661006187544 C 15.128641916777518 21.476610138169384 14.83263666775408 21.80661006187544 14.550638987090018 20.996610595933056 Z M 16.77263910916033 22.31561084007368 C 16.872645212675955 21.31561084007368 16.960657907988455 22.998609497300244 16.77263910916033 22.31561084007368 Z M 16.372645212675955 21.930610611191845 C 16.47265131619158 21.504610016099072 16.382654978300955 22.432611419907666 16.372645212675955 21.930610611191845 Z M 8.872645212675955 16.85560794090376 C 7.514643503691581 14.982610656968212 12.818644358183768 18.750610306016064 9.742640329863455 17.33061022972212 C 9.422648264433768 17.245607330552197 9.042643381621268 17.215608551255322 8.872645212675955 16.85560794090376 Z M 13.185648752715018 19.141609146348095 C 13.055643869902518 17.564607574692822 13.47265131619158 19.40160937522993 13.185648752715018 19.141609146348095 Z M 16.45965082791033 21.241609527817822 C 16.71264155056658 20.34361071800337 16.479639841582205 21.83560939048872 16.45965082791033 21.241609527817822 Z M 9.081644846465018 16.13961215232954 C 9.888651682402518 15.966608001938916 12.424647165800955 17.555612518540478 10.09563715603533 16.59361071800337 C 9.835642649199393 16.306611969224072 9.29564936306658 16.437608673325634 9.081644846465018 16.13961215232954 Z M 16.01165278103533 19.592609359971142 C 16.09765131619158 17.979608490220166 16.49364740994158 18.629610016099072 16.015650583769705 19.82460971092329 Z M 9.68364985134783 15.577608062974072 C 10.013651682402518 15.095609619370556 8.809641672636893 13.39760775779829 9.856638742949393 14.977609588852978 C 10.30864985134783 15.33761019920454 11.156641794707205 15.577608062974072 10.409647776152518 15.73060794090376 C 11.609644724394705 16.780610992661572 10.109644724394705 16.01461215232954 9.684641672636893 15.586610748520947 Z M 15.669642282988455 19.077609970322705 C 15.896632029082205 17.239610626450634 15.869639231230643 20.15361018394575 15.669642282988455 19.077609970322705 Z M 8.99663813259783 13.869607879868603 C 9.24865229275408 13.761609985581494 9.129648996855643 14.204610779038525 8.99663813259783 13.869607879868603 Z M 10.55864985134783 14.799608185044384 C 10.960642649199393 13.955610229722119 11.29864008572283 15.739610626450634 10.55864985134783 14.799608185044384 Z M 14.96264155056658 17.249612762681103 C 14.958643747832205 16.926610901108837 15.04564936306658 17.719610168686962 14.96264155056658 17.249612762681103 Z M 14.70763666775408 16.685609771958447 C 14.107645823027518 15.177610351792431 15.27764399197283 17.483610107651806 14.70763666775408 16.685609771958447 Z M 14.33263666775408 15.685609771958447 C 14.23064692166033 15.062608673325634 14.682642771269705 16.46861071800337 14.33263666775408 15.685609771958447 Z M 14.932642771269705 14.692609741440869 C 14.512644602324393 13.952608062974072 15.46264155056658 11.435609771958447 15.568644358183768 12.99761004661665 C 15.125651194121268 14.214609100571728 15.440638376738455 14.89460940574751 15.74865229275408 13.262609436265087 C 16.318629099394705 11.978609039536572 15.625651194121268 15.79860873436079 14.932642771269705 14.692609741440869 Z M 15.560648752715018 10.947610809556103 C 15.74364740994158 10.72261233543501 15.60064203884783 11.21760745262251 15.560648752715018 10.947610809556103 Z M 14.510645700957205 31.604608490220166 C 14.262644602324393 31.387609436265087 14.542643381621268 31.741609527817822 14.510645700957205 31.604608490220166 Z M 16.67064936306658 32.69661135887251 C 17.870631052519705 32.996610595933056 17.86663324978533 32.5106105348979 16.770655466582205 32.36261172508345 C 16.187647654082205 31.819608642808056 14.343653513457205 31.242608978501416 15.99364740994158 32.29561038231001 C 16.093653513457205 32.5726108095561 16.447657419707205 32.56561084007368 16.66063959744158 32.695611908188916 Z M 12.406641794707205 29.86361117576704 C 13.06664545681658 30.357610656968212 14.898646189238455 31.261609985581494 13.349650217558768 30.063611938706494 C 13.872645212675955 29.45561022972212 12.349650217558768 29.133611633530712 12.854639841582205 28.72561068748579 C 11.569651438261893 27.938611938706494 11.840647532011893 28.009611084214306 12.741648508574393 28.025609924546337 C 11.197642160918143 27.325609161606884 12.964640451933768 27.387609436265087 12.88164789822283 27.03260989402876 C 12.286646677519705 26.915609314194775 9.92364008572283 25.982610656968212 11.313639475371268 27.108610107651806 C 9.900645090605643 26.38860888694868 10.976649118925955 27.37661166404829 10.549647165800955 27.27361102317915 C 9.104639841582205 26.879610016099072 11.835642649199393 28.373609497300244 10.319651438261893 28.003610565415478 C 11.14763910916033 28.659608795395947 12.549647165800955 29.685609771958447 10.669642282988455 28.697610809556103 C 10.422648264433768 29.05460925315962 12.015650583769705 29.594610168686962 12.406641794707205 29.865610077134228 Z M 14.664637400175955 31.1616115114604 C 17.41063959744158 32.04561038231001 13.317652536894705 30.079610779038525 14.664637400175955 31.1616115114604 Z M 26.226649118925955 38.165609314194775 C 26.262659861113455 37.62061114524946 25.851649118925955 38.630609466782666 26.226649118925955 38.165609314194775 Z M 27.426661325957205 38.665609314194775 C 28.060633493925955 38.05261035179243 27.452662302519705 39.643609955063916 28.476649118925955 38.515611603013134 C 28.486658884550955 37.707609131089306 28.44665033962908 37.230611755601025 27.30065424587908 38.21261019920454 C 26.984644724394705 38.38860888694868 26.843653513457205 39.13260836814985 27.426661325957205 38.66660876487837 Z M 8.580653025175955 26.84161181663618 C 8.385645700957205 26.076608612290478 7.216639353300956 26.081609680405712 8.580653025175955 26.84161181663618 Z M 9.848643137480643 27.671609832993603 C 9.378641916777518 26.891611053696728 8.168650461699393 26.964609100571728 9.848643137480643 27.671609832993603 Z M 17.068629099394705 32.02560992454634 C 17.773646189238455 32.65160937522993 20.30565912869158 32.485609009018994 17.924647165800955 32.10360903953657 C 17.572657419707205 31.5836085817729 15.68664057400408 31.707609131089306 17.068629099394705 32.02560992454634 Z M 26.99163324978533 38.15561099266157 C 28.07665522244158 37.255609466782666 25.94164545681658 38.56160922264204 26.99163324978533 38.15561099266157 Z M 29.247645212675955 39.70561022972212 C 29.25463373806658 39.41361041282759 28.77965815212908 39.8336085817729 29.247645212675955 39.70561022972212 Z M 29.25164301541033 39.30560870384321 C 30.45165522244158 38.03360934471235 28.088648630644705 39.380609466782666 29.25164301541033 39.30560870384321 Z M 5.458643747832206 24.228609039536572 C 4.434641672636894 22.768609955063916 4.822642160918144 22.11161036705122 3.8346508279103313 20.928609802476025 C 3.646647287871269 20.0156096956645 2.1406505837697063 17.94661135887251 3.0546520486134563 20.128610565415478 C 3.892649485136894 21.411609604111767 4.140650583769706 23.396608307114697 5.457651926543144 24.228609039536572 Z M 28.874659372832205 38.89261050438032 C 31.07464106228533 37.46460910057173 27.96764643337908 38.2706088564311 28.874659372832205 38.89261050438032 Z M 30.56164057400408 39.55261035179243 C 31.66863520291033 38.60260958885298 29.861658884550955 39.354608490220166 30.56164057400408 39.55261035179243 Z M 8.20464594509783 25.215608551255322 C 8.520640207793143 24.745611145249462 7.386652781035331 25.155610992661572 8.20464594509783 25.215608551255322 Z M 30.20965082791033 39.09060855125532 C 31.281641794707205 38.390611603013134 29.96264155056658 38.505609466782666 30.015650583769705 39.15360827659712 Z M 15.667643381621268 29.935609771958447 C 15.630640818144705 29.467611267319775 15.10064203884783 29.97561068748579 15.667643381621268 29.935609771958447 Z M 16.565638376738455 30.452611877671337 C 16.27965815212908 29.874608947983837 16.125635935332205 30.55261035179243 16.565638376738455 30.452611877671337 Z M 31.92864496853533 39.56860919212446 C 33.301661325957205 38.56860919212446 31.098658396269705 39.36860842918501 31.64165766384783 39.75660891746626 Z M 31.40264399197283 39.31461138939009 C 32.52263910916033 38.377611114731884 30.22265131619158 39.729608490220166 31.40264399197283 39.31461138939009 Z M 34.08965571072283 41.10260958885298 C 34.83965571072283 40.60061068748579 33.176661325957205 40.94061084007368 34.08965571072283 41.10260958885298 Z M 8.892649485136893 24.8856105348979 C 9.898646189238455 25.110609009018994 12.914637400175955 27.36361117576704 11.135645700957205 25.04160876487837 C 10.23565180447283 24.771608307114697 10.770640207793143 22.544610931626416 9.841639353300955 22.937608673325634 C 10.465647532011893 23.980611755601025 10.354639841582205 24.422609283677197 9.044642282988455 23.767610504380322 C 7.399653269316581 22.963609649888134 8.119639231230643 24.16460986351118 8.442652536894705 24.49761004661665 C 8.002650095488455 24.597608520737744 9.02263910916033 24.877611114731884 8.892649485136893 24.897611572495556 Z M 4.307642771269706 21.2656096956645 C 4.487650705840019 20.51960940574751 2.6476391091603313 17.165609314194775 3.4376476540822063 19.58560939048872 C 3.7226513161915813 20.092609359971142 3.6926525368947063 21.05261035179243 4.307642771269706 21.2656096956645 Z M 12.723643137480643 26.465608551255322 C 12.203638865019705 26.03260989402876 12.698649240996268 26.40360827659712 12.723643137480643 26.465608551255322 Z M 13.999644114043143 26.762609436265087 C 13.999644114043143 25.96261019920454 12.599650217558768 26.44260974144087 13.999644114043143 26.762609436265087 Z M 25.059656931425955 33.7346095583354 C 24.859644724394705 33.194608642808056 24.22564203884783 33.722608520737744 25.059656931425955 33.7346095583354 Z M 25.58965571072283 34.12261004661665 C 25.50963862087908 33.820611908188916 25.28264887478533 34.182611419907666 25.58965571072283 34.12261004661665 Z M 29.97265131619158 36.87560839866743 C 30.39263422634783 36.575609161606884 29.44665033962908 36.83561129783735 29.97265131619158 36.87560839866743 Z M 6.597651316191581 21.85061068748579 C 7.803644968535331 21.38360972618208 5.305643869902519 21.517610504380322 6.597651316191581 21.85061068748579 Z M 24.09765131619158 32.86860842918501 C 24.083643747832205 32.088609649888134 23.32763178494158 33.063611938706494 24.09765131619158 32.86860842918501 Z M 6.130640818144706 20.738609268418408 C 6.904642893340019 20.478610946885205 5.413645578886894 20.566610290757275 6.130640818144706 20.738609268418408 Z M 8.378641916777518 21.838609649888134 C 8.365641428496268 21.582609131089306 8.141642405058768 21.93660922264204 8.378641916777518 21.838609649888134 Z M 35.792628122832205 38.6456088564311 C 36.788660837675955 38.44360919212446 39.059656931425955 39.152608825913525 39.42565424587908 38.38160891746626 C 38.22564203884783 38.351610138169384 35.24163324978533 37.527608825913525 35.10064203884783 38.57660861229048 L 35.36565668728533 38.61860842918501 L 35.792628122832205 38.64460940574751 Z M 9.09264643337908 22.007610275498486 C 9.11065180447283 21.207609131089306 8.47564203884783 21.977609588852978 9.09264643337908 22.007610275498486 Z M 3.1926525368947063 17.90760989402876 C 2.9246471658009563 16.400609924546337 2.172648264433769 17.67960925315962 3.1926525368947063 17.90760989402876 Z M 4.592646433379081 18.261609985581494 C 4.610651804472831 17.77761264061079 3.292643381621269 17.825609161606884 4.592646433379081 18.261609985581494 Z M 5.397639109160331 18.65760989402876 C 5.164637400175956 18.457609131089306 5.217646433379081 18.89460940574751 5.397639109160331 18.65760989402876 Z M 10.46764643337908 21.90760989402876 C 10.70763666775408 21.687610580674267 9.90264399197283 21.74560923790083 10.46764643337908 21.90760989402876 Z M 4.852640940215019 17.765611603013134 C 4.715647532011894 16.627611114731884 3.218638254668144 17.595609619370556 4.852640940215019 17.765611603013134 Z M 1.9526470437306438 15.88961215232954 C 1.9126384988087688 15.364610626450634 1.6706493630665813 16.08761019920454 1.9526470437306438 15.88961215232954 Z M 2.3726452126759563 15.565610840073681 C 2.3026378884572063 14.942609741440869 2.0026500954884563 15.643609955063916 2.3726452126759563 15.565610840073681 Z M 4.747645212675956 16.982610656968212 C 5.752650095488456 16.588609649888134 2.917643381621269 16.166612579575634 4.542643381621269 16.908609344712353 Z M 36.547633005644705 36.61961169456587 C 37.190638376738455 36.01960940574751 35.731654001738455 36.437608673325634 36.547633005644705 36.61961169456587 Z M 40.387659861113455 38.61961169456587 C 40.645655466582205 37.8596095583354 39.737635447050955 38.71961016868696 40.387659861113455 38.61961169456587 Z M 4.987650705840019 15.739610626450634 C 5.093638254668144 15.002611114731884 4.190638376738456 15.886609985581494 4.987650705840019 15.739610626450634 Z M 1.6076458230275188 13.474611236802197 C 1.4276378884572063 12.434610321274853 1.4516399636525188 10.607610656968212 3.1876476540822063 11.224611236802197 C 0.8706463113087688 11.684610321274853 4.792643381621269 14.104608490220166 4.287638498808769 12.194612457505322 C 5.262644602324394 12.242608978501416 6.194651438261894 11.61860842918501 5.682642771269706 12.564607574692822 C 7.602640940215019 12.364610626450634 8.934641672636893 10.687608673325634 10.789637400175955 10.921609832993603 C 12.234644724394705 10.729608490220166 13.814646555449393 10.58461184715376 15.37163813259783 10.00161166404829 C 16.651636911894705 9.909608795395947 17.88463862087908 8.531610443345166 17.171656443144705 7.713609649888134 C 15.425638987090018 7.565610840073681 13.59765131619158 7.783609344712353 11.668650461699393 8.168611480942822 C 9.530649973418143 8.612611725083447 7.588648630644706 9.456609680405712 5.430643869902519 9.818609192124462 C 3.326639963652519 10.101610138169384 5.852640940215019 10.596612884751416 5.250651194121269 10.718610718003369 C 4.153651072050956 11.098611786118603 6.550638987090019 11.35560794090376 5.108637644316581 11.758607818833447 C 4.212641550566581 11.588609649888134 3.2786510720509563 11.280610992661572 3.662638498808769 10.335611297837353 C 1.6486461892384563 10.598611786118603 -0.1223499045115437 11.43361087059126 1.4696453347462688 13.483610107651806 L 1.5876415505665813 13.4846095583354 Z M 6.462641550566581 11.002611114731884 C 6.932642771269706 9.262609436265087 8.992640329863455 12.434610321274853 7.235651804472831 11.2346095583354 C 7.035639597441581 11.076608612290478 6.680643869902519 10.94960971092329 6.462641550566581 11.002611114731884 Z M 6.554652048613456 10.158609344712353 C 7.234644724394706 9.651609375229931 6.916651560332206 10.443609192124462 6.554652048613456 10.158609344712353 Z M 7.419642282988456 10.172609283677197 C 7.481638742949394 9.37261004661665 9.401636911894705 10.596612884751416 7.735651804472831 10.460611297837353 Z M 8.603648020293143 9.69661135887251 C 9.036646677519705 9.190610840073681 8.729639841582205 10.14460940574751 8.603648020293143 9.69661135887251 Z M 8.906641794707205 9.49360842918501 C 9.62664301541033 8.628610565415478 12.98363764431658 8.940610840073681 10.526636911894705 9.408609344712353 C 9.866648508574393 8.912610962143994 9.36364252712908 9.700609161606884 8.906641794707205 9.49360842918501 Z M 13.286646677519705 8.818609192124462 C 13.17864496853533 6.454610779038525 15.464640451933768 9.658609344712353 13.286646677519705 8.818609192124462 Z M 14.529642893340018 8.81160922264204 C 14.984644724394705 7.611612274399853 16.294642282988455 8.333612396470166 14.729639841582205 8.57161135887251 C 14.762644602324393 8.69960971092329 14.68364985134783 9.187608673325634 14.529642893340018 8.81160922264204 Z M 4.496638132597831 15.128610565415478 C 5.854639841582206 14.296609832993603 3.056650949980644 14.406610443345166 4.496638132597831 15.128610565415478 Z M 5.501643015410331 15.406610443345166 C 5.977640940215019 14.900609924546337 4.465647532011894 15.201608612290478 5.501643015410331 15.406610443345166 Z M 2.572642160918144 13.315610840073681 C 3.348643137480644 12.718610718003369 1.6526439919728313 13.088609649888134 2.572642160918144 13.315610840073681 Z M 42.672633005644705 38.40160937522993 C 42.695643259550955 37.70961184715376 42.07964594509783 38.70160861229048 42.672633005644705 38.40160937522993 Z M 38.59765131619158 35.621610595933056 C 38.713648630644705 34.825609161606884 38.073633982207205 35.691610290757275 38.59765131619158 35.621610595933056 Z M 43.792628122832205 38.6716098329936 C 44.877650095488455 38.675611450425244 47.07964594509783 38.3336085817729 44.719630075957205 38.33461184715376 C 44.349634958769705 38.39161105369673 42.56164057400408 38.380609466782666 43.792628122832205 38.6716098329936 Z M 6.406641794707206 14.917612030259228 C 7.284647776152519 14.857610656968212 7.779642893340019 13.94960971092329 6.236643625761894 14.00161166404829 C 3.844645334746269 13.754610016099072 8.336649729277518 14.82161135887251 5.929652048613456 14.515611603013134 C 5.605646921660331 14.73060794090376 6.387644602324394 14.977609588852978 6.406641794707206 14.917612030259228 Z M 7.179652048613456 15.309610321274853 C 7.087641550566581 14.746610595933056 6.907648874785331 15.6096095583354 7.179652048613456 15.309610321274853 Z M 8.09765131619158 12.86361117576704 C 8.477640940215018 12.390611603013134 7.569651438261894 12.737611725083447 8.09765131619158 12.86361117576704 Z M 5.177637888457206 7.983610107651806 C 6.745646311308769 7.451608612290478 8.877650095488455 6.853609039536572 9.627650095488455 8.246610595933056 C 8.874644114043143 7.340608551255322 9.323649240996268 6.448610260239697 10.034647776152518 7.77361102317915 C 11.04064448025408 9.11361117576704 11.534647776152518 7.173608734360791 10.88964350369158 6.713609649888134 C 11.635645700957205 7.639612152329541 12.482645823027518 8.077608062974072 11.38964350369158 6.77361102317915 C 12.589640451933768 5.343610718003369 9.00963862087908 6.960611297837353 8.197642160918143 6.9436091921244625 C 7.797648264433769 7.118608429185009 4.167643381621269 7.871610595933056 5.177637888457206 7.983610107651806 Z M 6.097651316191581 6.225610687485791 C 6.991648508574394 5.5516109011088375 9.197642160918143 6.627611114731884 7.777643991972831 5.5556087038432125 C 7.639643503691581 5.433610870591259 4.689646555449394 6.369607879868603 6.097651316191581 6.225610687485791 Z M 9.357645823027518 6.360612823716259 C 10.40264399197283 6.386609985581494 8.90764887478533 4.954610779038525 10.15264399197283 5.603609039536572 C 9.948649240996268 4.935609771958447 8.702647043730643 4.810609771958447 8.09264643337908 4.543611480942822 C 7.747645212675956 5.143609955063916 8.792643381621268 6.368608429185009 9.35863764431658 6.360612823716259 Z M 6.670649363066581 3.402608825913525 C 7.032648874785331 2.902608825913525 6.035639597441581 3.652608825913525 6.670649363066581 3.402608825913525 Z M 8.002650095488455 3.7226123354350094 C 9.688639475371268 3.4996089479838375 7.572642160918144 2.99761004661665 7.662638498808769 3.704610779038525 Z M 5.515650583769706 1.777608825913525 C 4.328638865019706 0.2276095888529781 7.748652292754081 2.0376109621439937 6.541651560332206 0.41460986351118123 C 5.526652170683769 -0.39338879371538127 4.541651560332206 1.3146113893900875 5.515650583769706 1.777608825913525 Z M 20.745631052519705 9.98060794090376 C 21.289637400175955 9.016611053696728 18.49865229275408 8.680612518540478 20.37963373806658 9.640611603013134 C 20.552637888457205 9.697610809556103 20.513636423613455 10.04860873436079 20.745631052519705 9.98060794090376 Z M 48.752650095488455 10.23561282371626 C 48.565638376738455 10.973611786118603 48.450648142363455 12.210611297837353 48.406641794707205 13.935609771958447 C 48.406641794707205 14.275609924546337 48.252650095488455 14.447610809556103 47.94463617947283 14.447610809556103 C 47.63665278103533 14.447610809556103 47.421656443144705 14.297609283677197 47.30065424587908 14.00161166404829 C 46.97063715603533 13.198610260239697 46.658655954863455 12.638612701645947 46.36065180447283 12.318609192124462 C 46.008631540800955 11.945611908188916 45.54064448025408 11.718610718003369 44.958643747832205 11.642610504380322 C 44.331629587675955 11.542612030259228 42.770655466582205 11.492608978501416 40.27465326931658 11.492608978501416 C 39.702662302519705 11.492608978501416 39.328638865019705 11.552610351792431 39.15465815212908 11.674608185044384 C 39.054652048613455 11.75161166404829 38.989649607207205 11.916612579575634 38.989649607207205 12.169610931626416 L 38.989649607207205 19.641609146348095 C 38.989649607207205 19.89460940574751 39.14965326931658 20.014610244980908 39.466639353300955 20.004610016099072 L 43.72265131619158 19.80661006187544 C 44.085657907988455 19.761609985581494 44.330653025175955 19.64460940574751 44.456629587675955 19.45161051963911 C 44.58263666775408 19.25860972618208 44.706629587675955 18.751609756699658 44.82665522244158 17.958612396470166 C 44.903651072050955 17.518609955063916 45.161646677519705 17.358610107651806 45.601649118925955 17.458612396470166 C 45.97564203884783 17.53560824607954 46.135645700957205 17.70561022972212 46.081629587675955 17.958612396470166 C 45.773646189238455 19.454610779038525 45.67364008572283 21.400609924546337 45.783655954863455 23.79860873436079 C 45.79564936306658 24.0836085817729 45.61364252712908 24.23861117576704 45.239649607207205 24.2606105348979 C 44.93163569119158 24.293611480942822 44.739649607207205 24.128610565415478 44.66265375759783 23.765611603013134 C 44.377650095488455 22.391611053696728 43.84563715603533 21.665609314194775 43.062647654082205 21.562610580674267 C 42.27965815212908 21.459609939805127 41.02465326931658 21.422609283677197 39.276636911894705 21.422609283677197 C 39.078638865019705 21.422609283677197 38.98064692166033 21.49261088585005 38.98064692166033 21.636609985581494 L 38.98064692166033 29.059610321274853 C 38.98064692166033 29.6096095583354 39.18364985134783 29.983610107651806 39.580653025175955 30.17960925315962 C 39.900660349394705 30.344610168686962 40.58764155056658 30.49360842918501 41.64263422634783 30.62560839866743 C 42.182642771269705 30.680608703843212 42.417628122832205 30.917608215561962 42.34264643337908 31.325609161606884 C 42.275660349394705 31.688611938706494 41.792628122832205 31.831609680405712 40.890650583769705 31.755609466782666 C 38.284632517363455 31.555608703843212 36.13463862087908 31.557611419907666 34.440638376738455 31.788610412827587 C 33.96764643337908 31.853609039536572 33.74065668728533 31.6616115114604 33.74065668728533 31.211610748520947 C 33.74065668728533 30.925611450425244 33.976649118925955 30.761609985581494 34.440638376738455 30.71661181663618 C 35.518641306425955 30.59660907005415 36.05663569119158 29.649610473862744 36.05663569119158 27.879610016099072 L 36.05663569119158 13.75960726951704 C 36.05663569119158 13.034608795395947 35.926661325957205 12.476610138169384 35.669642282988455 12.085611297837353 C 35.41265375759783 11.694612457505322 34.929652048613455 11.339609100571728 34.226649118925955 11.021608307114697 C 33.786646677519705 10.823610260239697 33.62163813259783 10.554609253159619 33.731654001738455 10.213609649888134 C 33.786646677519705 10.005609466782666 33.874659372832205 9.88961215232954 33.994654490019705 9.867608978501416 C 34.094630075957205 9.83461184715376 34.396632029082205 9.857610656968212 34.86864740994158 9.93361087059126 C 35.56164057400408 10.033609344712353 37.195643259550955 10.098611786118603 39.768641306425955 10.098611786118603 L 47.638636423613455 9.900609924546337 C 48.374659372832205 9.85560794090376 48.74364740994158 9.916612579575634 48.74364740994158 10.080610229722119 C 48.74364740994158 10.125612213364697 48.737635447050955 10.168611480942822 48.726649118925955 10.21261019920454 Z M 59.450648142363455 31.175611450425244 C 59.450648142363455 31.615610077134228 59.203638865019705 31.807611419907666 58.708643747832205 31.752611114731884 C 57.19164545681658 31.6096095583354 55.31164057400408 31.632608368149853 53.068629099394705 31.81760974144087 C 52.61864740994158 31.862611725083447 52.34063227322283 31.85061068748579 52.234644724394705 31.78560824607954 C 52.12865717556658 31.720609619370556 52.078638865019705 31.538610412827587 52.078638865019705 31.240610077134228 C 52.078638865019705 30.977609588852978 52.37865717556658 30.754610016099072 52.976649118925955 30.572610809556103 C 53.57464106228533 30.390611603013134 53.87664301541033 29.849611236802197 53.87664301541033 28.948610260239697 L 53.87664301541033 14.020608856431103 C 53.87664301541033 13.120607330552197 53.74663813259783 12.47561068748579 53.489649607207205 12.056611969224072 C 53.232630564238455 11.637609436265087 52.776636911894705 11.314607574692822 52.12963373806658 11.08461184715376 C 51.789637400175955 10.964609100571728 51.617640329863455 10.792612030259228 51.617640329863455 10.572610809556103 C 51.617640329863455 10.242608978501416 51.864649607207205 9.995607330552197 52.359644724394705 9.830610229722119 C 53.107630564238455 9.588609649888134 53.883631540800955 9.215608551255322 54.68664057400408 8.708612396470166 C 55.346644236113455 8.312608673325634 55.76464350369158 8.115610077134228 55.939661814238455 8.115610077134228 C 56.346644236113455 8.115610077134228 56.539637400175955 8.395608856431103 56.539637400175955 8.955610229722119 C 56.51507074978533 9.50551791404829 56.49273188259783 10.055520965806103 56.47265131619158 10.60560794090376 L 56.440638376738455 13.822610809556103 L 56.505640818144705 28.55261035179243 C 56.505640818144705 29.222608520737744 56.67064936306658 29.710611297837353 57.000635935332205 30.012609436265087 C 57.330653025175955 30.314611389390087 57.89763910916033 30.515611603013134 58.700648142363455 30.612611725083447 C 59.195643259550955 30.667608215561962 59.442652536894705 30.854608490220166 59.442652536894705 31.172609283677197 Z M 74.37063105251971 30.202611877671337 C 74.37063105251971 30.432611419907666 73.95064814236346 30.78260989402876 73.11065180447284 31.249608947983837 C 72.27065546658221 31.71661181663618 71.59563715603534 31.94960971092329 71.09066279080096 31.94960971092329 C 70.66063959744159 31.94960971092329 70.28264887478534 31.741609527817822 69.95266230251971 31.322610809556103 C 69.62264521267596 30.90360827659712 69.39065058376971 30.69661135887251 69.25963862087909 30.69661135887251 C 69.15963251736346 30.69661135887251 68.63964350369159 30.922609283677197 67.69265253689471 31.37261004661665 C 66.74563105251971 31.822610809556103 65.79564936306659 32.049608185044384 64.83965571072284 32.049608185044384 C 63.939661814238455 32.049608185044384 63.184656931425955 31.784608795395947 62.57964594509783 31.249608947983837 C 61.919642282988455 30.66660876487837 61.57964594509783 29.874608947983837 61.57964594509783 28.873609497300244 C 61.57964594509783 26.970609619370556 63.757654978300955 25.607610656968212 68.11263544705096 24.77361102317915 C 68.85964472439471 24.630609466782666 69.23964960720721 24.327611877671337 69.24965937283221 23.866609527817822 L 69.28264887478534 22.810609771958447 C 69.34865839626971 21.007610275498486 68.55263788845721 20.105609848252392 66.89065058376971 20.105609848252392 C 66.41762812283221 20.105609848252392 65.97063715603534 20.52861018394575 65.54564936306659 21.375610306016064 C 65.12063105251971 22.222608520737744 64.51565058376971 22.678609802476025 63.723658396269705 22.745611145249462 C 62.823633982207205 22.832609131089306 62.370631052519705 22.45361132835493 62.370631052519705 21.605609848252392 C 62.370631052519705 21.077609970322705 63.04064448025408 20.46261019920454 64.38363154080096 19.757610275498486 C 65.79165156033221 19.02161021446333 67.14364130642596 18.652610733262158 68.44164545681659 18.652610733262158 C 70.67364008572284 18.652610733262158 71.77865107205096 19.71461100792036 71.75664789822284 21.836610748520947 L 71.68966181423846 28.63160891746626 C 71.67965204861346 29.34660907005415 71.98165400173846 29.70361132835493 72.59664423611346 29.70361132835493 C 72.71663935330096 29.70361132835493 72.94964106228534 29.676610901108837 73.28963740017596 29.621610595933056 L 73.88463862087909 29.53960986351118 C 74.20266230251971 29.53960986351118 74.36263544705096 29.754610016099072 74.36263544705096 30.18361087059126 Z M 69.29064448025409 26.44260974144087 C 69.30065424587909 26.167608215561962 69.23763544705096 25.985609009018994 69.09066279080096 25.89861102317915 C 68.94362909939471 25.81160922264204 68.73665888455096 25.793611480942822 68.44063837673846 25.848611786118603 C 65.79064448025409 26.32161135887251 64.46465571072284 27.185609771958447 64.46465571072284 28.448610260239697 C 64.46465571072284 29.711610748520947 65.15163691189471 30.345609619370556 66.52663691189471 30.345609619370556 C 67.07665522244159 30.345609619370556 67.64364130642596 30.241609527817822 68.22664911892596 30.03260989402876 C 68.90963251736346 29.78960986351118 69.24965937283221 29.498609497300244 69.24965937283221 29.15760989402876 L 69.28264887478534 26.452611877671337 Z M 86.63265497830096 28.31561084007368 C 86.63265497830096 29.48161120628462 86.18264277126971 30.408609344712353 85.28765375759784 31.095609619370556 C 84.39263422634784 31.78260989402876 83.16863520291034 32.11561007713423 81.61764032986346 32.11561007713423 C 80.57528193142596 32.11467547630415 79.53588373806659 32.00406832908735 78.51662714626971 31.78560824607954 C 77.61666376736346 31.58761019920454 77.10863764431659 31.405610992661572 76.96663935330096 31.241609527817822 C 76.87862665798846 31.086610748520947 76.83465082791034 30.33461184715376 76.83465082791034 28.98161120628462 C 76.83465082791034 28.39861102317915 76.96663935330096 28.09660907005415 77.23064692166034 28.07460971092329 C 77.49465449001971 28.04160876487837 77.73064692166034 28.174608185044384 77.90664179470721 28.502611114731884 C 78.73165400173846 29.94260974144087 80.06264765408221 30.662610962143994 81.89864618923846 30.662610962143994 C 83.44863398220721 30.662610962143994 84.22365839626971 30.12261004661665 84.22365839626971 29.044610931626416 C 84.22365839626971 28.572610809556103 84.04864008572284 28.176610901108837 83.69564325955096 27.857610656968212 C 83.31063349392596 27.49461169456587 82.56365473416034 27.070611908188916 81.45266230251971 26.58761019920454 C 79.84664423611346 25.87261004661665 78.77465326931659 25.24761004661665 78.23565180447284 24.707609131089306 C 77.65264399197284 24.1356105348979 77.36165888455096 23.367608978501416 77.36165888455096 22.40760989402876 C 77.36165888455096 21.219610168686962 77.81765253689471 20.307609512559033 78.73165400173846 19.637609436265087 C 79.57863886501971 18.99961085533247 80.71163447048846 18.680610611191845 82.12862665798846 18.680610611191845 C 82.94762690212909 18.673530533066845 83.76537592556659 18.745193435898877 84.57064325955096 18.89460940574751 C 85.36263544705096 19.037610962143994 85.77465326931659 19.21261019920454 85.80764277126971 19.422609283677197 C 85.89464838650409 20.037610962143994 86.07766230251971 20.928609802476025 86.35164911892596 22.095609619370556 C 86.38463862087909 22.237611725083447 86.22963984158221 22.353609039536572 85.88964350369159 22.441610290757275 C 85.52663691189471 22.518609955063916 85.28463251736346 22.457609131089306 85.16366083767596 22.261609985581494 C 84.29564936306659 20.84160990928755 83.19564325955096 20.13360972618208 81.86364252712909 20.13360972618208 C 80.35763056423846 20.13360972618208 79.60366327908221 20.61761088585005 79.60366327908221 21.58560939048872 C 79.60366327908221 22.12560839866743 79.80764277126971 22.553609802476025 80.20363886501971 22.871610595933056 C 80.56664545681659 23.146608307114697 81.41863520291034 23.576608612290478 82.76064570095721 24.159608795395947 C 84.16863520291034 24.764608337632275 85.12465937283221 25.309610321274853 85.63064081814471 25.79160876487837 C 86.29064448025409 26.418611480942822 86.63064081814471 27.261609985581494 86.63064081814471 28.31561084007368 Z M 106.03765375759784 31.201608612290478 C 106.03765375759784 31.586610748520947 105.77764399197284 31.801610901108837 105.26165278103534 31.801610901108837 L 102.24364740994159 31.96661181663618 C 101.62765009548846 32.08661074852095 101.18764765408221 32.011609985581494 100.92364008572284 31.736608459702587 C 99.18563349392596 29.866609527817822 97.71163447048846 27.909608795395947 96.50362665798846 25.86361117576704 C 96.40365107205096 25.688611938706494 96.27865107205096 25.599611236802197 96.12365229275409 25.599611236802197 C 95.93664057400409 25.599611236802197 95.62365229275409 25.764608337632275 95.15163691189471 26.094610168686962 C 94.63363154080096 26.379610016099072 94.37563593533221 26.787610962143994 94.37563593533221 27.314611389390087 L 94.40865595486346 28.932611419907666 C 94.43062861111346 29.6356105348979 94.60564692166034 30.097608520737744 94.93563349392596 30.31760974144087 C 95.16564448025409 30.472608520737744 95.70064814236346 30.592611267319775 96.53563959744159 30.680608703843212 C 97.05263788845721 30.746610595933056 97.31164057400409 30.94061084007368 97.31164057400409 31.257608368149853 C 97.31164057400409 31.5106105348979 97.27163202908221 31.65760989402876 97.18764765408221 31.727609588852978 C 97.10366327908221 31.797609283677197 96.88765986111346 31.801610901108837 96.53563959744159 31.767610504380322 C 95.43563349392596 31.667608215561962 93.57766230251971 31.723611786118603 90.96065790798846 31.932611419907666 C 90.30065424587909 31.987611725083447 89.94362909939471 31.904611541977978 89.88863642361346 31.685609771958447 C 89.86666376736346 31.608610107651806 89.85564692166034 31.498609497300244 89.85564692166034 31.355611755601025 C 89.85564692166034 31.015611603013134 90.19164545681659 30.755609466782666 90.86263544705096 30.581609680405712 C 91.46764643337909 30.426610901108837 91.76964838650409 29.717611267319775 91.76964838650409 28.45361132835493 L 91.76964838650409 14.03560824607954 C 91.76964838650409 13.1356105348979 91.68163569119159 12.507608368149853 91.50466425564471 12.155610992661572 C 91.26265986111346 11.705610229722119 90.75664789822284 11.352609588852978 89.98665888455096 11.099611236802197 C 89.62465937283221 10.979608490220166 89.44265253689471 10.799608185044384 89.44265253689471 10.599611236802197 C 89.44265253689471 10.279611541977978 89.70266230251971 10.03260989402876 90.21764643337909 9.857610656968212 C 91.04873163845721 9.577375366440869 91.84151728298846 9.194410278550244 92.57766230251971 8.71760745262251 C 93.18264277126971 8.322610809556103 93.55764277126971 8.123609497300244 93.69765741970721 8.123609497300244 C 94.14965326931659 8.123609497300244 94.37465937283221 8.408609344712353 94.37465937283221 8.981607391587353 C 94.37465937283221 8.903612091294384 94.36864740994159 9.448610260239697 94.35763056423846 10.61361117576704 L 94.34163935330096 13.84761233543501 L 94.37465937283221 24.172609283677197 C 94.37465937283221 24.4586085817729 94.45165522244159 24.60061068748579 94.60463984158221 24.60061068748579 C 94.76964838650409 24.60061068748579 95.02263910916034 24.4586085817729 95.36464960720721 24.172609283677197 L 98.72866327908221 21.368610336533642 C 98.99364740994159 21.09361071800337 99.12465937283221 20.873609497300244 99.12465937283221 20.708610489121533 C 99.12465937283221 20.412610962143994 98.67965204861346 20.202609970322705 97.78963740017596 20.082609131089306 C 97.40462763455096 20.037610962143994 97.22265131619159 19.822610809556103 97.24465449001971 19.43861003135786 C 97.27764399197284 19.053609802476025 97.47063715603534 18.888610794297314 97.82165033962909 18.943609192124462 C 98.61464960720721 19.04360957359419 99.76864130642596 19.113609268418408 101.28563959744159 19.125610306016064 L 104.43563349392596 19.141609146348095 C 104.77566034939471 19.15160937522993 104.93563349392596 19.355609848252392 104.93563349392596 19.741609527817822 C 104.93563349392596 20.114610626450634 104.66564448025409 20.318609192124462 104.12765009548846 20.34160990928755 C 103.27962763455096 20.373609497300244 102.48263056423846 20.56561084007368 101.73565180447284 20.91860957359419 C 100.69063837673846 21.3906096956645 99.57363398220721 22.22160907005415 98.38564570095721 23.418611480942822 C 98.29864008572284 23.4846095583354 98.25362665798846 23.568609192124462 98.25362665798846 23.665609314194775 C 98.25362665798846 23.819608642808056 98.44063837673846 24.188611938706494 98.81563837673846 24.771608307114697 C 100.18966181423846 26.871610595933056 101.48763544705096 28.438611938706494 102.70763666775409 29.505609466782666 C 103.48763544705096 30.175611450425244 104.21963007595721 30.511609985581494 104.90066034939471 30.511609985581494 C 105.40664179470721 30.511609985581494 105.72063715603534 30.546609832993603 105.84066279080096 30.61961169456587 C 105.96065790798846 30.69260974144087 106.02263910916034 30.879610016099072 106.02263910916034 31.187608673325634 Z" stroke-linejoin="miter" stroke-linecap="butt" fill-rule="nonzero" stroke="#99ffee" fill="url(#L00100100000aaff10010000387f100.grad)"/></g></svg><svg id="kqjn8klguv" height="634.9606475830078" overflow="visible" v:setup="{&quot;paper&quot;:&quot;CUSTOM&quot;,&quot;unit&quot;:&quot;px&quot;,&quot;scale&quot;:{&quot;from&quot;:1,&quot;to&quot;:1},&quot;width&quot;:&quot;297mm&quot;,&quot;height&quot;:&quot;210mm&quot;}" viewBox="0 0 1122.5197162628174 793.7008094787598" width="898.015773010254" class="" style="display: none;"/><svg id="kqdsjzdi13d" height="476.22048568725586" overflow="visible" v:setup="{&quot;paper&quot;:&quot;CUSTOM&quot;,&quot;unit&quot;:&quot;px&quot;,&quot;scale&quot;:{&quot;from&quot;:1,&quot;to&quot;:1},&quot;width&quot;:&quot;297mm&quot;,&quot;height&quot;:&quot;210mm&quot;}" viewBox="0 0 1122.5197162628174 793.7008094787598" width="673.5118297576904" class="" style="display: none;"/><svg id="kqdsk0iz14n" height="476.22048568725586" overflow="visible" v:setup="{&quot;paper&quot;:&quot;CUSTOM&quot;,&quot;unit&quot;:&quot;px&quot;,&quot;scale&quot;:{&quot;from&quot;:1,&quot;to&quot;:1},&quot;width&quot;:&quot;297mm&quot;,&quot;height&quot;:&quot;210mm&quot;}" viewBox="0 0 1122.5197162628174 793.7008094787598" width="673.5118297576904" class="" style="display: none;"/></svg>